<svg width="363" height="372" viewBox="0 0 363 372" fill="none" xmlns="http://www.w3.org/2000/svg">
<g filter="url(#filter0_d_233_1579)">
<path d="M246.802 347.327C207.637 363.428 189.051 374.069 174.595 347.327C145.057 292.68 124.051 307.523 99.1073 307.523C70.397 307.523 51.8449 340.581 30.1832 322.365C0.71696 297.586 -6.85291 258.479 22.9628 247.479C48.563 238.034 59.0658 238.034 59.0658 196.88C59.0658 154.932 3.2702 157.076 17.055 109.175C25.0759 81.3042 76.7891 119.97 95.1689 87.5866C114.364 53.7671 127.636 71.9705 131.272 38.3371C135.21 1.90602 170.001 18.7723 205.447 3.92998C240.894 -10.9123 242.207 25.5188 273.058 33.6146C291.137 38.3587 256.648 79.4908 309.161 87.5866C361.24 95.6153 331.48 134.812 348.546 157.076C367.047 181.209 364.3 221.842 309.161 271.092C254.022 320.341 266.494 339.231 246.802 347.327Z" fill="white"/>
</g>
<defs>
<filter id="filter0_d_233_1579" x="0" y="0.413025" width="362.829" height="371.221" filterUnits="userSpaceOnUse" color-interpolation-filters="sRGB">
<feFlood flood-opacity="0" result="BackgroundImageFix"/>
<feColorMatrix in="SourceAlpha" type="matrix" values="0 0 0 0 0 0 0 0 0 0 0 0 0 0 0 0 0 0 127 0" result="hardAlpha"/>
<feOffset dy="4"/>
<feGaussianBlur stdDeviation="2"/>
<feComposite in2="hardAlpha" operator="out"/>
<feColorMatrix type="matrix" values="0 0 0 0 0.627451 0 0 0 0 0.435294 0 0 0 0 0.298039 0 0 0 1 0"/>
<feBlend mode="normal" in2="BackgroundImageFix" result="effect1_dropShadow_233_1579"/>
<feBlend mode="normal" in="SourceGraphic" in2="effect1_dropShadow_233_1579" result="shape"/>
</filter>
</defs>
</svg>
