<svg width="1200" height="964" viewBox="0 0 1200 964" fill="none" xmlns="http://www.w3.org/2000/svg">
<circle cx="1060" cy="1042" r="87.5" stroke="#A06F4C" stroke-width="5"/>
<circle cx="1060" cy="1042" r="125" fill="url(#paint0_radial_110_1657)" stroke="#A06F4C" stroke-width="5"/>
<circle cx="1060" cy="1042" r="142.5" stroke="#A06F4C" stroke-width="5"/>
<circle cx="1060" cy="1042" r="177.5" stroke="#A06F4C" stroke-width="5"/>
<circle cx="1060" cy="1042" r="200" fill="url(#paint1_radial_110_1657)" stroke="#A06F4C" stroke-width="5"/>
<circle cx="1060" cy="1042" r="232.5" stroke="#A06F4C" stroke-width="5"/>
<circle cx="1060" cy="1042" r="252.5" fill="url(#paint2_radial_110_1657)" stroke="#A06F4C" stroke-width="5"/>
<circle cx="89" cy="-106" r="125" fill="url(#paint3_radial_110_1657)" stroke="#A06F4C" stroke-width="5"/>
<circle cx="89" cy="-106" r="142.5" stroke="#A06F4C" stroke-width="5"/>
<circle cx="89" cy="-106" r="177.5" stroke="#A06F4C" stroke-width="5"/>
<circle cx="89" cy="-106" r="200" fill="url(#paint4_radial_110_1657)" stroke="#A06F4C" stroke-width="5"/>
<circle cx="89" cy="-106" r="232.5" stroke="#A06F4C" stroke-width="5"/>
<circle cx="89" cy="-106" r="252.5" fill="url(#paint5_radial_110_1657)" stroke="#A06F4C" stroke-width="5"/>
<circle cx="22.5" cy="22.5" r="21.5" transform="matrix(-1 0 0 1 292 169)" fill="#A06F4C" stroke="#A06F4C" stroke-width="2"/>
<circle cx="28.5" cy="28.5" r="27.5" transform="matrix(-1 0 0 1 298 163)" stroke="#A06F4C" stroke-width="2"/>
<circle cx="39.5" cy="39.5" r="38.5" transform="matrix(-1 0 0 1 309 152)" stroke="#A06F4C" stroke-width="2"/>
<circle cx="46.5" cy="46.5" r="45.5" transform="matrix(-1 0 0 1 316 145)" stroke="#A06F4C" stroke-width="2"/>
<circle cx="57.5" cy="57.5" r="56.5" transform="matrix(-1 0 0 1 327 134)" fill="url(#paint6_radial_110_1657)" stroke="#A06F4C" stroke-width="2"/>
<circle cx="63.5" cy="63.5" r="62.5" transform="matrix(-1 0 0 1 333 128)" stroke="#A06F4C" stroke-width="2"/>
<circle cx="75.5" cy="75.5" r="74.5" transform="matrix(-1 0 0 1 345 116)" fill="url(#paint7_radial_110_1657)" stroke="#A06F4C" stroke-width="2"/>
<circle cx="81.5" cy="81.5" r="80.5" transform="matrix(-1 0 0 1 351 110)" stroke="#A06F4C" stroke-width="2"/>
<circle cx="53.5" cy="310.5" r="43" stroke="#A06F4C" stroke-width="3"/>
<circle cx="53.5" cy="310.5" r="53" fill="url(#paint8_radial_110_1657)" stroke="#A06F4C" stroke-width="3"/>
<circle cx="53.5" cy="310.5" r="76" fill="url(#paint9_radial_110_1657)" stroke="#A06F4C" stroke-width="3"/>
<circle cx="53.5" cy="310.5" r="89" stroke="#A06F4C" stroke-width="3"/>
<circle cx="53.5" cy="310.5" r="111" stroke="#A06F4C" stroke-width="3"/>
<circle cx="53.5" cy="310.5" r="123" fill="url(#paint10_radial_110_1657)" stroke="#A06F4C" stroke-width="3"/>
<circle cx="53.5" cy="310.5" r="145" stroke="#A06F4C" stroke-width="3"/>
<circle cx="53.5" cy="310.5" r="157" stroke="#A06F4C" stroke-width="3"/>
<circle cx="327.5" cy="386.5" r="28.6569" stroke="#A06F4C" stroke-width="5"/>
<circle cx="327.5" cy="386.5" r="37.5588" stroke="#A06F4C" stroke-width="5"/>
<circle cx="327.5" cy="386.5" r="55.6373" fill="url(#paint11_radial_110_1657)" stroke="#A06F4C" stroke-width="5"/>
<circle cx="327.5" cy="386.5" r="62.0392" stroke="#A06F4C" stroke-width="5"/>
<circle cx="327.5" cy="386.5" r="77.6177" stroke="#A06F4C" stroke-width="5"/>
<circle cx="327.5" cy="386.5" r="89.0196" fill="url(#paint12_radial_110_1657)" stroke="#A06F4C" stroke-width="5"/>
<circle cx="327.5" cy="386.5" r="102.098" stroke="#A06F4C" stroke-width="5"/>
<circle cx="327.5" cy="386.5" r="111" fill="url(#paint13_radial_110_1657)" stroke="#A06F4C" stroke-width="5"/>
<circle cx="530" cy="57" r="55.4937" stroke="#A06F4C" stroke-width="3"/>
<circle cx="530" cy="57" r="68.3013" fill="url(#paint14_radial_110_1657)" stroke="#A06F4C" stroke-width="3"/>
<circle cx="530" cy="57" r="97.7587" fill="url(#paint15_radial_110_1657)" stroke="#A06F4C" stroke-width="3"/>
<circle cx="530" cy="57" r="114.409" stroke="#A06F4C" stroke-width="3"/>
<circle cx="530" cy="57" r="142.585" stroke="#A06F4C" stroke-width="3"/>
<circle cx="530" cy="57" r="157.954" fill="url(#paint16_radial_110_1657)" stroke="#A06F4C" stroke-width="3"/>
<circle cx="530" cy="57" r="186.131" stroke="#A06F4C" stroke-width="3"/>
<circle cx="530" cy="57" r="201.5" stroke="#A06F4C" stroke-width="3"/>
<circle cx="161" cy="729" r="67.5" stroke="#A06F4C" stroke-width="5"/>
<circle cx="161" cy="729" r="87.5" stroke="#A06F4C" stroke-width="5"/>
<circle cx="161" cy="729" r="125" fill="url(#paint17_radial_110_1657)" stroke="#A06F4C" stroke-width="5"/>
<circle cx="161" cy="729" r="142.5" stroke="#A06F4C" stroke-width="5"/>
<circle cx="161" cy="729" r="177.5" stroke="#A06F4C" stroke-width="5"/>
<circle cx="161" cy="729" r="200" fill="url(#paint18_radial_110_1657)" stroke="#A06F4C" stroke-width="5"/>
<circle cx="161" cy="729" r="232.5" stroke="#A06F4C" stroke-width="5"/>
<circle cx="161" cy="729" r="252.5" fill="url(#paint19_radial_110_1657)" stroke="#A06F4C" stroke-width="5"/>
<circle cx="63.5" cy="63.5" r="62.5" transform="matrix(-1 0 0 1 405 963)" stroke="#A06F4C" stroke-width="2"/>
<circle cx="75.5" cy="75.5" r="74.5" transform="matrix(-1 0 0 1 417 951)" fill="url(#paint20_radial_110_1657)" stroke="#A06F4C" stroke-width="2"/>
<circle cx="81.5" cy="81.5" r="80.5" transform="matrix(-1 0 0 1 423 945)" stroke="#A06F4C" stroke-width="2"/>
<circle cx="602" cy="892" r="55.4937" stroke="#A06F4C" stroke-width="3"/>
<circle cx="602" cy="892" r="68.3013" fill="url(#paint21_radial_110_1657)" stroke="#A06F4C" stroke-width="3"/>
<circle cx="602" cy="892" r="97.7587" fill="url(#paint22_radial_110_1657)" stroke="#A06F4C" stroke-width="3"/>
<circle cx="602" cy="892" r="114.409" stroke="#A06F4C" stroke-width="3"/>
<circle cx="602" cy="892" r="142.585" stroke="#A06F4C" stroke-width="3"/>
<circle cx="602" cy="892" r="157.954" fill="url(#paint23_radial_110_1657)" stroke="#A06F4C" stroke-width="3"/>
<circle cx="602" cy="892" r="186.131" stroke="#A06F4C" stroke-width="3"/>
<circle cx="602" cy="892" r="201.5" stroke="#A06F4C" stroke-width="3"/>
<circle cx="1001" cy="196" r="67.5" stroke="#A06F4C" stroke-width="5"/>
<circle cx="1001" cy="196" r="87.5" stroke="#A06F4C" stroke-width="5"/>
<circle cx="1001" cy="196" r="125" fill="url(#paint24_radial_110_1657)" stroke="#A06F4C" stroke-width="5"/>
<circle cx="1001" cy="196" r="142.5" stroke="#A06F4C" stroke-width="5"/>
<circle cx="1001" cy="196" r="177.5" stroke="#A06F4C" stroke-width="5"/>
<circle cx="1001" cy="196" r="200" fill="url(#paint25_radial_110_1657)" stroke="#A06F4C" stroke-width="5"/>
<circle cx="1001" cy="196" r="232.5" stroke="#A06F4C" stroke-width="5"/>
<circle cx="1001" cy="196" r="252.5" fill="url(#paint26_radial_110_1657)" stroke="#A06F4C" stroke-width="5"/>
<circle cx="22.5" cy="22.5" r="21.5" transform="matrix(-1 0 0 1 1204 471)" fill="#A06F4C" stroke="#A06F4C" stroke-width="2"/>
<circle cx="28.5" cy="28.5" r="27.5" transform="matrix(-1 0 0 1 1210 465)" stroke="#A06F4C" stroke-width="2"/>
<circle cx="39.5" cy="39.5" r="38.5" transform="matrix(-1 0 0 1 1221 454)" stroke="#A06F4C" stroke-width="2"/>
<circle cx="46.5" cy="46.5" r="45.5" transform="matrix(-1 0 0 1 1228 447)" stroke="#A06F4C" stroke-width="2"/>
<circle cx="57.5" cy="57.5" r="56.5" transform="matrix(-1 0 0 1 1239 436)" fill="url(#paint27_radial_110_1657)" stroke="#A06F4C" stroke-width="2"/>
<circle cx="63.5" cy="63.5" r="62.5" transform="matrix(-1 0 0 1 1245 430)" stroke="#A06F4C" stroke-width="2"/>
<circle cx="75.5" cy="75.5" r="74.5" transform="matrix(-1 0 0 1 1257 418)" fill="url(#paint28_radial_110_1657)" stroke="#A06F4C" stroke-width="2"/>
<circle cx="81.5" cy="81.5" r="80.5" transform="matrix(-1 0 0 1 1263 412)" stroke="#A06F4C" stroke-width="2"/>
<circle cx="965.5" cy="612.5" r="43" stroke="#A06F4C" stroke-width="3"/>
<circle cx="965.5" cy="612.5" r="53" fill="url(#paint29_radial_110_1657)" stroke="#A06F4C" stroke-width="3"/>
<circle cx="965.5" cy="612.5" r="76" fill="url(#paint30_radial_110_1657)" stroke="#A06F4C" stroke-width="3"/>
<circle cx="965.5" cy="612.5" r="89" stroke="#A06F4C" stroke-width="3"/>
<circle cx="965.5" cy="612.5" r="111" stroke="#A06F4C" stroke-width="3"/>
<circle cx="965.5" cy="612.5" r="123" fill="url(#paint31_radial_110_1657)" stroke="#A06F4C" stroke-width="3"/>
<circle cx="965.5" cy="612.5" r="145" stroke="#A06F4C" stroke-width="3"/>
<circle cx="965.5" cy="612.5" r="157" stroke="#A06F4C" stroke-width="3"/>
<circle cx="1239.5" cy="688.5" r="37.5588" stroke="#A06F4C" stroke-width="5"/>
<circle cx="1239.5" cy="688.5" r="55.6373" fill="url(#paint32_radial_110_1657)" stroke="#A06F4C" stroke-width="5"/>
<circle cx="1239.5" cy="688.5" r="62.0392" stroke="#A06F4C" stroke-width="5"/>
<circle cx="1239.5" cy="688.5" r="77.6177" stroke="#A06F4C" stroke-width="5"/>
<circle cx="1239.5" cy="688.5" r="89.0196" fill="url(#paint33_radial_110_1657)" stroke="#A06F4C" stroke-width="5"/>
<circle cx="1239.5" cy="688.5" r="102.098" stroke="#A06F4C" stroke-width="5"/>
<circle cx="1239.5" cy="688.5" r="111" fill="url(#paint34_radial_110_1657)" stroke="#A06F4C" stroke-width="5"/>
<circle cx="51.4877" cy="51.4877" r="50.4877" transform="matrix(-1 0 0 1 692.988 423.012)" fill="#A06F4C" stroke="#A06F4C" stroke-width="2"/>
<circle cx="65.2178" cy="65.2178" r="64.2178" transform="matrix(-1 0 0 1 706.718 409.282)" stroke="#A06F4C" stroke-width="2"/>
<circle cx="90.3896" cy="90.3896" r="89.3896" transform="matrix(-1 0 0 1 731.89 384.11)" stroke="#A06F4C" stroke-width="2"/>
<circle cx="106.408" cy="106.408" r="105.408" transform="matrix(-1 0 0 1 747.908 368.092)" stroke="#A06F4C" stroke-width="2"/>
<circle cx="131.58" cy="131.58" r="130.58" transform="matrix(-1 0 0 1 773.08 342.92)" fill="url(#paint35_radial_110_1657)" stroke="#A06F4C" stroke-width="2"/>
<circle cx="145.31" cy="145.31" r="144.31" transform="matrix(-1 0 0 1 786.81 329.19)" stroke="#A06F4C" stroke-width="2"/>
<circle cx="172.77" cy="172.77" r="171.77" transform="matrix(-1 0 0 1 814.27 301.73)" fill="url(#paint36_radial_110_1657)" stroke="#A06F4C" stroke-width="2"/>
<circle cx="186.5" cy="186.5" r="185.5" transform="matrix(-1 0 0 1 828 288)" stroke="#A06F4C" stroke-width="2"/>
<defs>
<radialGradient id="paint0_radial_110_1657" cx="0" cy="0" r="1" gradientUnits="userSpaceOnUse" gradientTransform="translate(1060 1042) rotate(90) scale(125)">
<stop offset="0.7" stop-color="white" stop-opacity="0"/>
<stop offset="1" stop-color="#A06F4C"/>
</radialGradient>
<radialGradient id="paint1_radial_110_1657" cx="0" cy="0" r="1" gradientUnits="userSpaceOnUse" gradientTransform="translate(1060 1042) rotate(90) scale(200)">
<stop offset="0.875" stop-color="white" stop-opacity="0"/>
<stop offset="1" stop-color="#A06F4C"/>
</radialGradient>
<radialGradient id="paint2_radial_110_1657" cx="0" cy="0" r="1" gradientUnits="userSpaceOnUse" gradientTransform="translate(1060 1042) rotate(90) scale(255)">
<stop offset="0.9" stop-color="white" stop-opacity="0"/>
<stop offset="0.9001" stop-color="#A06F4C"/>
</radialGradient>
<radialGradient id="paint3_radial_110_1657" cx="0" cy="0" r="1" gradientUnits="userSpaceOnUse" gradientTransform="translate(89 -106) rotate(90) scale(125)">
<stop offset="0.7" stop-color="white" stop-opacity="0"/>
<stop offset="1" stop-color="#A06F4C"/>
</radialGradient>
<radialGradient id="paint4_radial_110_1657" cx="0" cy="0" r="1" gradientUnits="userSpaceOnUse" gradientTransform="translate(89 -106) rotate(90) scale(200)">
<stop offset="0.875" stop-color="white" stop-opacity="0"/>
<stop offset="1" stop-color="#A06F4C"/>
</radialGradient>
<radialGradient id="paint5_radial_110_1657" cx="0" cy="0" r="1" gradientUnits="userSpaceOnUse" gradientTransform="translate(89 -106) rotate(90) scale(255)">
<stop offset="0.9" stop-color="white" stop-opacity="0"/>
<stop offset="0.9001" stop-color="#A06F4C"/>
</radialGradient>
<radialGradient id="paint6_radial_110_1657" cx="0" cy="0" r="1" gradientUnits="userSpaceOnUse" gradientTransform="translate(57.5 57.5) rotate(90) scale(57.5)">
<stop offset="0.8" stop-color="white" stop-opacity="0"/>
<stop offset="0.8001" stop-color="#A06F4C"/>
</radialGradient>
<radialGradient id="paint7_radial_110_1657" cx="0" cy="0" r="1" gradientUnits="userSpaceOnUse" gradientTransform="translate(75.5 75.5) rotate(90) scale(75.5)">
<stop offset="0.905" stop-color="white" stop-opacity="0"/>
<stop offset="1" stop-color="#A06F4C"/>
</radialGradient>
<radialGradient id="paint8_radial_110_1657" cx="0" cy="0" r="1" gradientUnits="userSpaceOnUse" gradientTransform="translate(53.5 310.5) rotate(90) scale(54.5)">
<stop offset="0.8" stop-color="#D9D9D9" stop-opacity="0"/>
<stop offset="1" stop-color="#A06F4C"/>
</radialGradient>
<radialGradient id="paint9_radial_110_1657" cx="0" cy="0" r="1" gradientUnits="userSpaceOnUse" gradientTransform="translate(53.5 310.5) rotate(90) scale(77.5)">
<stop offset="0.86" stop-color="white" stop-opacity="0"/>
<stop offset="1" stop-color="#A06F4C"/>
</radialGradient>
<radialGradient id="paint10_radial_110_1657" cx="0" cy="0" r="1" gradientUnits="userSpaceOnUse" gradientTransform="translate(53.5 310.5) rotate(90) scale(124.5)">
<stop offset="0.88" stop-color="#D9D9D9" stop-opacity="0"/>
<stop offset="1" stop-color="#A06F4C"/>
</radialGradient>
<radialGradient id="paint11_radial_110_1657" cx="0" cy="0" r="1" gradientUnits="userSpaceOnUse" gradientTransform="translate(327.5 386.5) rotate(90) scale(55.6373)">
<stop offset="0.7" stop-color="white" stop-opacity="0"/>
<stop offset="1" stop-color="#A06F4C"/>
</radialGradient>
<radialGradient id="paint12_radial_110_1657" cx="0" cy="0" r="1" gradientUnits="userSpaceOnUse" gradientTransform="translate(327.5 386.5) rotate(90) scale(89.0196)">
<stop offset="0.875" stop-color="white" stop-opacity="0"/>
<stop offset="1" stop-color="#A06F4C"/>
</radialGradient>
<radialGradient id="paint13_radial_110_1657" cx="0" cy="0" r="1" gradientUnits="userSpaceOnUse" gradientTransform="translate(327.5 386.5) rotate(90) scale(113.5)">
<stop offset="0.9" stop-color="white" stop-opacity="0"/>
<stop offset="0.9001" stop-color="#A06F4C"/>
</radialGradient>
<radialGradient id="paint14_radial_110_1657" cx="0" cy="0" r="1" gradientUnits="userSpaceOnUse" gradientTransform="translate(530 57) rotate(90) scale(69.8013)">
<stop offset="0.8" stop-color="#D9D9D9" stop-opacity="0"/>
<stop offset="1" stop-color="#A06F4C"/>
</radialGradient>
<radialGradient id="paint15_radial_110_1657" cx="0" cy="0" r="1" gradientUnits="userSpaceOnUse" gradientTransform="translate(530 57) rotate(90) scale(99.2587)">
<stop offset="0.86" stop-color="white" stop-opacity="0"/>
<stop offset="1" stop-color="#A06F4C"/>
</radialGradient>
<radialGradient id="paint16_radial_110_1657" cx="0" cy="0" r="1" gradientUnits="userSpaceOnUse" gradientTransform="translate(530 57) rotate(90) scale(159.454)">
<stop offset="0.88" stop-color="#D9D9D9" stop-opacity="0"/>
<stop offset="1" stop-color="#A06F4C"/>
</radialGradient>
<radialGradient id="paint17_radial_110_1657" cx="0" cy="0" r="1" gradientUnits="userSpaceOnUse" gradientTransform="translate(161 729) rotate(90) scale(125)">
<stop offset="0.7" stop-color="white" stop-opacity="0"/>
<stop offset="1" stop-color="#A06F4C"/>
</radialGradient>
<radialGradient id="paint18_radial_110_1657" cx="0" cy="0" r="1" gradientUnits="userSpaceOnUse" gradientTransform="translate(161 729) rotate(90) scale(200)">
<stop offset="0.875" stop-color="white" stop-opacity="0"/>
<stop offset="1" stop-color="#A06F4C"/>
</radialGradient>
<radialGradient id="paint19_radial_110_1657" cx="0" cy="0" r="1" gradientUnits="userSpaceOnUse" gradientTransform="translate(161 729) rotate(90) scale(255)">
<stop offset="0.9" stop-color="white" stop-opacity="0"/>
<stop offset="0.9001" stop-color="#A06F4C"/>
</radialGradient>
<radialGradient id="paint20_radial_110_1657" cx="0" cy="0" r="1" gradientUnits="userSpaceOnUse" gradientTransform="translate(75.5 75.5) rotate(90) scale(75.5)">
<stop offset="0.905" stop-color="white" stop-opacity="0"/>
<stop offset="1" stop-color="#A06F4C"/>
</radialGradient>
<radialGradient id="paint21_radial_110_1657" cx="0" cy="0" r="1" gradientUnits="userSpaceOnUse" gradientTransform="translate(602 892) rotate(90) scale(69.8013)">
<stop offset="0.8" stop-color="#D9D9D9" stop-opacity="0"/>
<stop offset="1" stop-color="#A06F4C"/>
</radialGradient>
<radialGradient id="paint22_radial_110_1657" cx="0" cy="0" r="1" gradientUnits="userSpaceOnUse" gradientTransform="translate(602 892) rotate(90) scale(99.2587)">
<stop offset="0.86" stop-color="white" stop-opacity="0"/>
<stop offset="1" stop-color="#A06F4C"/>
</radialGradient>
<radialGradient id="paint23_radial_110_1657" cx="0" cy="0" r="1" gradientUnits="userSpaceOnUse" gradientTransform="translate(602 892) rotate(90) scale(159.454)">
<stop offset="0.88" stop-color="#D9D9D9" stop-opacity="0"/>
<stop offset="1" stop-color="#A06F4C"/>
</radialGradient>
<radialGradient id="paint24_radial_110_1657" cx="0" cy="0" r="1" gradientUnits="userSpaceOnUse" gradientTransform="translate(1001 196) rotate(90) scale(125)">
<stop offset="0.7" stop-color="white" stop-opacity="0"/>
<stop offset="1" stop-color="#A06F4C"/>
</radialGradient>
<radialGradient id="paint25_radial_110_1657" cx="0" cy="0" r="1" gradientUnits="userSpaceOnUse" gradientTransform="translate(1001 196) rotate(90) scale(200)">
<stop offset="0.875" stop-color="white" stop-opacity="0"/>
<stop offset="1" stop-color="#A06F4C"/>
</radialGradient>
<radialGradient id="paint26_radial_110_1657" cx="0" cy="0" r="1" gradientUnits="userSpaceOnUse" gradientTransform="translate(1001 196) rotate(90) scale(255)">
<stop offset="0.9" stop-color="white" stop-opacity="0"/>
<stop offset="0.9001" stop-color="#A06F4C"/>
</radialGradient>
<radialGradient id="paint27_radial_110_1657" cx="0" cy="0" r="1" gradientUnits="userSpaceOnUse" gradientTransform="translate(57.5 57.5) rotate(90) scale(57.5)">
<stop offset="0.8" stop-color="white" stop-opacity="0"/>
<stop offset="0.8001" stop-color="#A06F4C"/>
</radialGradient>
<radialGradient id="paint28_radial_110_1657" cx="0" cy="0" r="1" gradientUnits="userSpaceOnUse" gradientTransform="translate(75.5 75.5) rotate(90) scale(75.5)">
<stop offset="0.905" stop-color="white" stop-opacity="0"/>
<stop offset="1" stop-color="#A06F4C"/>
</radialGradient>
<radialGradient id="paint29_radial_110_1657" cx="0" cy="0" r="1" gradientUnits="userSpaceOnUse" gradientTransform="translate(965.5 612.5) rotate(90) scale(54.5)">
<stop offset="0.8" stop-color="#D9D9D9" stop-opacity="0"/>
<stop offset="1" stop-color="#A06F4C"/>
</radialGradient>
<radialGradient id="paint30_radial_110_1657" cx="0" cy="0" r="1" gradientUnits="userSpaceOnUse" gradientTransform="translate(965.5 612.5) rotate(90) scale(77.5)">
<stop offset="0.86" stop-color="white" stop-opacity="0"/>
<stop offset="1" stop-color="#A06F4C"/>
</radialGradient>
<radialGradient id="paint31_radial_110_1657" cx="0" cy="0" r="1" gradientUnits="userSpaceOnUse" gradientTransform="translate(965.5 612.5) rotate(90) scale(124.5)">
<stop offset="0.88" stop-color="#D9D9D9" stop-opacity="0"/>
<stop offset="1" stop-color="#A06F4C"/>
</radialGradient>
<radialGradient id="paint32_radial_110_1657" cx="0" cy="0" r="1" gradientUnits="userSpaceOnUse" gradientTransform="translate(1239.5 688.5) rotate(90) scale(55.6373)">
<stop offset="0.7" stop-color="white" stop-opacity="0"/>
<stop offset="1" stop-color="#A06F4C"/>
</radialGradient>
<radialGradient id="paint33_radial_110_1657" cx="0" cy="0" r="1" gradientUnits="userSpaceOnUse" gradientTransform="translate(1239.5 688.5) rotate(90) scale(89.0196)">
<stop offset="0.875" stop-color="white" stop-opacity="0"/>
<stop offset="1" stop-color="#A06F4C"/>
</radialGradient>
<radialGradient id="paint34_radial_110_1657" cx="0" cy="0" r="1" gradientUnits="userSpaceOnUse" gradientTransform="translate(1239.5 688.5) rotate(90) scale(113.5)">
<stop offset="0.9" stop-color="white" stop-opacity="0"/>
<stop offset="0.9001" stop-color="#A06F4C"/>
</radialGradient>
<radialGradient id="paint35_radial_110_1657" cx="0" cy="0" r="1" gradientUnits="userSpaceOnUse" gradientTransform="translate(131.58 131.58) rotate(90) scale(131.58)">
<stop offset="0.8" stop-color="white" stop-opacity="0"/>
<stop offset="0.8001" stop-color="#A06F4C"/>
</radialGradient>
<radialGradient id="paint36_radial_110_1657" cx="0" cy="0" r="1" gradientUnits="userSpaceOnUse" gradientTransform="translate(172.77 172.77) rotate(90) scale(172.77)">
<stop offset="0.905" stop-color="white" stop-opacity="0"/>
<stop offset="1" stop-color="#A06F4C"/>
</radialGradient>
</defs>
</svg>
