<svg width="340" height="531" viewBox="0 0 340 531" fill="none" xmlns="http://www.w3.org/2000/svg">
<circle cx="144" cy="107.75" r="67.5" stroke="#A06F4C" stroke-width="5"/>
<circle cx="144" cy="107.75" r="87.5" stroke="#A06F4C" stroke-width="5"/>
<circle cx="144" cy="107.75" r="125" fill="url(#paint0_radial_269_1255)" stroke="#A06F4C" stroke-width="5"/>
<circle cx="144" cy="107.75" r="142.5" stroke="#A06F4C" stroke-width="5"/>
<circle cx="144" cy="107.75" r="177.5" stroke="#A06F4C" stroke-width="5"/>
<circle cx="144" cy="107.75" r="200" fill="url(#paint1_radial_269_1255)" stroke="#A06F4C" stroke-width="5"/>
<circle cx="144" cy="107.75" r="232.5" stroke="#A06F4C" stroke-width="5"/>
<circle cx="144" cy="107.75" r="252.5" fill="url(#paint2_radial_269_1255)" stroke="#A06F4C" stroke-width="5"/>
<circle cx="22.5" cy="22.5" r="21.5" transform="matrix(-1 0 0 1 347 382.75)" fill="#A06F4C" stroke="#A06F4C" stroke-width="2"/>
<circle cx="28.5" cy="28.5" r="27.5" transform="matrix(-1 0 0 1 353 376.75)" stroke="#A06F4C" stroke-width="2"/>
<circle cx="39.5" cy="39.5" r="38.5" transform="matrix(-1 0 0 1 364 365.75)" stroke="#A06F4C" stroke-width="2"/>
<circle cx="46.5" cy="46.5" r="45.5" transform="matrix(-1 0 0 1 371 358.75)" stroke="#A06F4C" stroke-width="2"/>
<circle cx="57.5" cy="57.5" r="56.5" transform="matrix(-1 0 0 1 382 347.75)" fill="url(#paint3_radial_269_1255)" stroke="#A06F4C" stroke-width="2"/>
<circle cx="63.5" cy="63.5" r="62.5" transform="matrix(-1 0 0 1 388 341.75)" stroke="#A06F4C" stroke-width="2"/>
<circle cx="75.5" cy="75.5" r="74.5" transform="matrix(-1 0 0 1 400 329.75)" fill="url(#paint4_radial_269_1255)" stroke="#A06F4C" stroke-width="2"/>
<circle cx="81.5" cy="81.5" r="80.5" transform="matrix(-1 0 0 1 406 323.75)" stroke="#A06F4C" stroke-width="2"/>
<circle cx="108.5" cy="524.25" r="43" stroke="#A06F4C" stroke-width="3"/>
<circle cx="108.5" cy="524.25" r="53" fill="url(#paint5_radial_269_1255)" stroke="#A06F4C" stroke-width="3"/>
<circle cx="108.5" cy="524.25" r="76" fill="url(#paint6_radial_269_1255)" stroke="#A06F4C" stroke-width="3"/>
<circle cx="108.5" cy="524.25" r="89" stroke="#A06F4C" stroke-width="3"/>
<circle cx="108.5" cy="524.25" r="111" stroke="#A06F4C" stroke-width="3"/>
<circle cx="108.5" cy="524.25" r="123" fill="url(#paint7_radial_269_1255)" stroke="#A06F4C" stroke-width="3"/>
<circle cx="108.5" cy="524.25" r="145" stroke="#A06F4C" stroke-width="3"/>
<circle cx="108.5" cy="524.25" r="157" stroke="#A06F4C" stroke-width="3"/>
<circle cx="382.5" cy="600.25" r="77.6177" stroke="#A06F4C" stroke-width="5"/>
<circle cx="382.5" cy="600.25" r="89.0196" fill="url(#paint8_radial_269_1255)" stroke="#A06F4C" stroke-width="5"/>
<circle cx="382.5" cy="600.25" r="102.098" stroke="#A06F4C" stroke-width="5"/>
<circle cx="382.5" cy="600.25" r="111" fill="url(#paint9_radial_269_1255)" stroke="#A06F4C" stroke-width="5"/>
<defs>
<radialGradient id="paint0_radial_269_1255" cx="0" cy="0" r="1" gradientUnits="userSpaceOnUse" gradientTransform="translate(144 107.75) rotate(90) scale(125)">
<stop offset="0.7" stop-color="white" stop-opacity="0"/>
<stop offset="1" stop-color="#A06F4C"/>
</radialGradient>
<radialGradient id="paint1_radial_269_1255" cx="0" cy="0" r="1" gradientUnits="userSpaceOnUse" gradientTransform="translate(144 107.75) rotate(90) scale(200)">
<stop offset="0.875" stop-color="white" stop-opacity="0"/>
<stop offset="1" stop-color="#A06F4C"/>
</radialGradient>
<radialGradient id="paint2_radial_269_1255" cx="0" cy="0" r="1" gradientUnits="userSpaceOnUse" gradientTransform="translate(144 107.75) rotate(90) scale(255)">
<stop offset="0.9" stop-color="white" stop-opacity="0"/>
<stop offset="0.9001" stop-color="#A06F4C"/>
</radialGradient>
<radialGradient id="paint3_radial_269_1255" cx="0" cy="0" r="1" gradientUnits="userSpaceOnUse" gradientTransform="translate(57.5 57.5) rotate(90) scale(57.5)">
<stop offset="0.8" stop-color="white" stop-opacity="0"/>
<stop offset="0.8001" stop-color="#A06F4C"/>
</radialGradient>
<radialGradient id="paint4_radial_269_1255" cx="0" cy="0" r="1" gradientUnits="userSpaceOnUse" gradientTransform="translate(75.5 75.5) rotate(90) scale(75.5)">
<stop offset="0.905" stop-color="white" stop-opacity="0"/>
<stop offset="1" stop-color="#A06F4C"/>
</radialGradient>
<radialGradient id="paint5_radial_269_1255" cx="0" cy="0" r="1" gradientUnits="userSpaceOnUse" gradientTransform="translate(108.5 524.25) rotate(90) scale(54.5)">
<stop offset="0.8" stop-color="#D9D9D9" stop-opacity="0"/>
<stop offset="1" stop-color="#A06F4C"/>
</radialGradient>
<radialGradient id="paint6_radial_269_1255" cx="0" cy="0" r="1" gradientUnits="userSpaceOnUse" gradientTransform="translate(108.5 524.25) rotate(90) scale(77.5)">
<stop offset="0.86" stop-color="white" stop-opacity="0"/>
<stop offset="1" stop-color="#A06F4C"/>
</radialGradient>
<radialGradient id="paint7_radial_269_1255" cx="0" cy="0" r="1" gradientUnits="userSpaceOnUse" gradientTransform="translate(108.5 524.25) rotate(90) scale(124.5)">
<stop offset="0.88" stop-color="#D9D9D9" stop-opacity="0"/>
<stop offset="1" stop-color="#A06F4C"/>
</radialGradient>
<radialGradient id="paint8_radial_269_1255" cx="0" cy="0" r="1" gradientUnits="userSpaceOnUse" gradientTransform="translate(382.5 600.25) rotate(90) scale(89.0196)">
<stop offset="0.875" stop-color="white" stop-opacity="0"/>
<stop offset="1" stop-color="#A06F4C"/>
</radialGradient>
<radialGradient id="paint9_radial_269_1255" cx="0" cy="0" r="1" gradientUnits="userSpaceOnUse" gradientTransform="translate(382.5 600.25) rotate(90) scale(113.5)">
<stop offset="0.9" stop-color="white" stop-opacity="0"/>
<stop offset="0.9001" stop-color="#A06F4C"/>
</radialGradient>
</defs>
</svg>
