<svg width="173" height="64" viewBox="0 0 173 64" fill="none" xmlns="http://www.w3.org/2000/svg">
<rect width="173" height="64" fill="#1E1E1E"/>
<g id="Desktop " clip-path="url(#clip0_0_1)">
<rect width="1200" height="2580" transform="translate(-43 -80)" fill="#EFD8B1"/>
<g id="Background">
<g id="vector fondo 2">
<g id="Frame 13">
<g id="Group 11">
<g id="galleta-alternativa (1)" clip-path="url(#clip1_0_1)">
<path id="Vector" d="M69.3002 19.0009C69.8447 17.6988 69.9272 16.2976 69.5408 14.9488C69.0582 13.2616 67.8702 11.8564 66.2807 11.0933C66.0139 10.9654 65.8228 10.7289 65.7953 10.491C65.5973 8.7805 64.7324 7.27763 63.3602 6.25738C62.0058 5.25088 60.342 4.85213 58.6632 5.13675C58.4019 5.17525 58.0898 5.05288 57.8423 4.804C56.6777 3.64075 55.1363 3 53.5 3C51.8638 3 50.321 3.64075 49.1578 4.804C48.9089 5.05425 48.5927 5.178 48.3355 5.13675C46.658 4.8535 44.9929 5.25225 43.6399 6.25738C42.2663 7.27763 41.4014 8.7805 41.2034 10.491C41.1759 10.7275 40.9862 10.964 40.7194 11.0933C39.1299 11.8564 37.9405 13.263 37.4579 14.9488C37.0715 16.2976 37.1554 17.6988 37.6985 19.0009C37.836 19.3295 37.836 19.6774 37.6985 20.006C37.154 21.3081 37.0715 22.7106 37.4579 24.0581C37.9405 25.7453 39.1285 27.1505 40.7194 27.915C40.982 28.0415 41.1759 28.2835 41.2034 28.5173C41.4014 30.2264 42.2663 31.7306 43.6385 32.7509C44.9915 33.756 46.6594 34.1548 48.3328 33.8715C48.5913 33.8303 48.9062 33.9554 49.155 34.2029C50.3183 35.3675 51.861 36.0069 53.4973 36.0069C55.1335 36.0069 56.6763 35.3661 57.8395 34.2029C58.0884 33.9526 58.406 33.8179 58.6604 33.8701C60.3324 34.1506 62.0017 33.756 63.3574 32.7495C64.731 31.7293 65.5959 30.225 65.7939 28.5145C65.8214 28.2821 66.0153 28.0401 66.2779 27.9136C67.8674 27.1491 69.0568 25.7439 69.5394 24.0568C69.9258 22.7093 69.8419 21.3068 69.2988 20.0046C69.1613 19.676 69.1613 19.3281 69.2988 18.9995L69.3002 19.0009ZM45.9375 22.25C44.799 22.25 43.875 21.326 43.875 20.1875C43.875 19.049 44.799 18.125 45.9375 18.125C47.076 18.125 48 19.049 48 20.1875C48 21.326 47.076 22.25 45.9375 22.25ZM51.4375 9.875C52.576 9.875 53.5 10.799 53.5 11.9375C53.5 13.076 52.576 14 51.4375 14C50.299 14 49.375 13.076 49.375 11.9375C49.375 10.799 50.299 9.875 51.4375 9.875ZM51.4375 29.125C50.299 29.125 49.375 28.201 49.375 27.0625C49.375 25.924 50.299 25 51.4375 25C52.576 25 53.5 25.924 53.5 27.0625C53.5 28.201 52.576 29.125 51.4375 29.125ZM54.1875 20.875C53.049 20.875 52.125 19.951 52.125 18.8125C52.125 17.674 53.049 16.75 54.1875 16.75C55.326 16.75 56.25 17.674 56.25 18.8125C56.25 19.951 55.326 20.875 54.1875 20.875ZM61.0625 23.625C59.924 23.625 59 22.701 59 21.5625C59 20.424 59.924 19.5 61.0625 19.5C62.201 19.5 63.125 20.424 63.125 21.5625C63.125 22.701 62.201 23.625 61.0625 23.625Z" fill="#A06F4C"/>
</g>
</g>
</g>
</g>
</g>
<g id="Nav bar">
<mask id="path-2-inside-1_0_1" fill="white">
<path d="M-42 -80H1156V143.4H-42V-80Z"/>
</mask>
<path d="M-42 -80H1156V143.4H-42V-80Z" fill="#EFD8B1"/>
<path d="M1156 138.4H-42V148.4H1156V138.4Z" fill="#A06F4C" mask="url(#path-2-inside-1_0_1)"/>
<g id="Frame 15">
<g id="Logo">
<g id="Group">
<g id="Group_2">
<path id="Vector_2" fill-rule="evenodd" clip-rule="evenodd" d="M33.5217 57.66C33.9617 58.03 34.1817 58.6 34.1817 59.37C34.1817 60.14 33.9517 60.7 33.5117 61.06C33.0617 61.41 32.3717 61.59 31.4517 61.59H30.6217V63.33H29.2317V57.1H31.4317C32.3917 57.1 33.0917 57.29 33.5217 57.66ZM32.5017 60.11C32.6717 59.92 32.7517 59.65 32.7517 59.29C32.7517 58.93 32.6417 58.67 32.4317 58.52C32.2117 58.37 31.8817 58.3 31.4217 58.3H30.6217V60.39H31.5617C32.0217 60.39 32.3417 60.3 32.5017 60.11Z" fill="#A06F4C"/>
<path id="Vector_3" fill-rule="evenodd" clip-rule="evenodd" d="M37.0616 61.72C37.2916 62.01 37.6016 62.15 37.9916 62.15C38.3816 62.15 38.6916 62.01 38.9216 61.72C39.1516 61.44 39.2716 61.04 39.2716 60.54V57.1H40.6617V60.59C40.6617 61.49 40.4117 62.18 39.9117 62.67C39.4117 63.15 38.7716 63.39 37.9916 63.39C37.2116 63.39 36.5717 63.15 36.0717 62.66C35.5717 62.18 35.3217 61.48 35.3217 60.59V57.1H36.7116V60.54C36.7116 61.04 36.8216 61.43 37.0616 61.72Z" fill="#A06F4C"/>
<path id="Vector_4" fill-rule="evenodd" clip-rule="evenodd" d="M47.3017 59.17C47.3017 60.17 46.9017 60.81 46.1117 61.1L47.6917 63.33H45.9817L44.6017 61.34H43.6317V63.33H42.2417V57.1H44.6017C45.5717 57.1 46.2617 57.27 46.6817 57.59C47.0917 57.92 47.3017 58.45 47.3017 59.17ZM45.6217 59.91C45.7917 59.75 45.8817 59.51 45.8817 59.17C45.8817 58.83 45.7917 58.61 45.6117 58.48C45.4317 58.36 45.1217 58.3 44.6817 58.3H43.6317V60.14H44.6517C45.1217 60.14 45.4517 60.06 45.6217 59.91Z" fill="#A06F4C"/>
<path id="Vector_5" fill-rule="evenodd" clip-rule="evenodd" d="M53.3016 63.33L52.7216 61.99H50.1116L49.5316 63.33H48.0516L50.7416 57.1H52.0917L54.7816 63.33H53.3016ZM51.4216 58.96L50.6417 60.76H52.2017L51.4216 58.96Z" fill="#A06F4C"/>
<path id="Vector_6" fill-rule="evenodd" clip-rule="evenodd" d="M61.0017 62.1C61.6817 62.1 62.2417 61.83 62.6817 61.29L63.5717 62.21C62.8617 63 62.0317 63.4 61.0717 63.4C60.1117 63.4 59.3217 63.1 58.7017 62.49C58.0817 61.89 57.7717 61.12 57.7717 60.2C57.7717 59.28 58.0817 58.5 58.7117 57.89C59.3517 57.27 60.1217 56.96 61.0417 56.96C62.0617 56.96 62.9117 57.35 63.6017 58.13L62.7417 59.11C62.3017 58.56 61.7517 58.29 61.1017 58.29C60.5817 58.29 60.1317 58.46 59.7617 58.8C59.3917 59.14 59.2017 59.6 59.2017 60.18C59.2017 60.76 59.3817 61.23 59.7317 61.58C60.0817 61.93 60.5017 62.1 61.0017 62.1Z" fill="#A06F4C"/>
<path id="Vector_7" fill-rule="evenodd" clip-rule="evenodd" d="M68.6716 57.1H70.0616V63.33H68.6716V60.88H66.2017V63.33H64.8116V57.1H66.2017V59.7H68.6716V57.1Z" fill="#A06F4C"/>
<path id="Vector_8" d="M73.1317 57.1H71.7417V63.33H73.1317V57.1Z" fill="#A06F4C"/>
<path id="Vector_9" fill-rule="evenodd" clip-rule="evenodd" d="M76.2617 58.35C76.1317 58.45 76.0617 58.6 76.0617 58.78C76.0617 58.96 76.1417 59.11 76.3017 59.21C76.4717 59.32 76.8417 59.45 77.4417 59.59C78.0317 59.74 78.4917 59.96 78.8117 60.25C79.1417 60.54 79.3017 60.96 79.3017 61.52C79.3017 62.08 79.0917 62.53 78.6717 62.88C78.2617 63.23 77.7017 63.4 77.0217 63.4C76.0417 63.4 75.1517 63.04 74.3617 62.31L75.1917 61.29C75.8617 61.88 76.4817 62.17 77.0517 62.17C77.3017 62.17 77.5017 62.12 77.6517 62.01C77.8017 61.9 77.8717 61.75 77.8717 61.56C77.8717 61.38 77.7917 61.23 77.6417 61.12C77.4817 61.01 77.1817 60.9 76.7217 60.79C75.9917 60.61 75.4617 60.39 75.1317 60.11C74.7917 59.83 74.6217 59.4 74.6217 58.81C74.6217 58.22 74.8417 57.76 75.2617 57.44C75.6917 57.12 76.2217 56.96 76.8517 56.96C77.2717 56.96 77.6817 57.03 78.1017 57.17C78.5117 57.32 78.8817 57.52 79.1917 57.78L78.4817 58.8C77.9417 58.39 77.3817 58.18 76.8117 58.18C76.5817 58.18 76.3917 58.24 76.2617 58.35Z" fill="#A06F4C"/>
<path id="Vector_10" fill-rule="evenodd" clip-rule="evenodd" d="M84.9217 57.66C85.3617 58.03 85.5817 58.6 85.5817 59.37C85.5817 60.14 85.3517 60.7 84.9017 61.06C84.4517 61.41 83.7717 61.59 82.8517 61.59H82.0217V63.33H80.6317V57.1H82.8317C83.7917 57.1 84.4917 57.29 84.9217 57.66ZM83.9017 60.11C84.0717 59.92 84.1517 59.65 84.1517 59.29C84.1517 58.93 84.0417 58.67 83.8217 58.52C83.6117 58.37 83.2717 58.3 82.8117 58.3H82.0217V60.39H82.9617C83.4217 60.39 83.7417 60.3 83.9017 60.11Z" fill="#A06F4C"/>
<path id="Vector_11" fill-rule="evenodd" clip-rule="evenodd" d="M90.8817 63.33L90.3017 61.99H87.6917L87.1117 63.33H85.6317L88.3217 57.1H89.6717L92.3617 63.33H90.8817ZM89.0017 58.96L88.2117 60.76H89.7717L89.0017 58.96Z" fill="#A06F4C"/>
<path id="Vector_12" fill-rule="evenodd" clip-rule="evenodd" d="M100.482 57.92C101.072 58.46 101.372 59.22 101.372 60.18C101.372 61.14 101.082 61.92 100.502 62.48C99.9217 63.05 99.0317 63.33 97.8517 63.33H95.7217V57.1H97.9217C99.0317 57.1 99.8817 57.37 100.482 57.92ZM99.4517 61.62C99.8017 61.3 99.9717 60.83 99.9717 60.22C99.9717 59.61 99.8017 59.14 99.4617 58.81C99.1117 58.48 98.5917 58.31 97.8817 58.31H97.1117V62.1H97.9917C98.6317 62.1 99.1117 61.94 99.4517 61.62Z" fill="#A06F4C"/>
<path id="Vector_13" fill-rule="evenodd" clip-rule="evenodd" d="M107.202 57.1V58.34H104.102V59.62H106.892V60.81H104.102V62.1H107.302V63.33H102.712V57.1H107.202Z" fill="#A06F4C"/>
<path id="Vector_14" fill-rule="evenodd" clip-rule="evenodd" d="M112.632 58.35C112.502 58.46 112.432 58.6 112.432 58.78C112.432 58.96 112.512 59.11 112.682 59.21C112.842 59.32 113.222 59.45 113.812 59.59C114.402 59.74 114.862 59.96 115.192 60.25C115.512 60.54 115.682 60.96 115.682 61.52C115.682 62.08 115.472 62.53 115.052 62.88C114.632 63.23 114.082 63.4 113.402 63.4C112.412 63.4 111.522 63.04 110.732 62.31L111.562 61.29C112.232 61.88 112.852 62.17 113.422 62.17C113.682 62.17 113.882 62.12 114.022 62.01C114.172 61.9 114.242 61.75 114.242 61.56C114.242 61.38 114.162 61.23 114.012 61.12C113.862 61.01 113.552 60.9 113.092 60.79C112.372 60.61 111.842 60.39 111.502 60.11C111.172 59.83 111.002 59.4 111.002 58.81C111.002 58.22 111.212 57.76 111.642 57.44C112.062 57.12 112.592 56.96 113.232 56.96C113.642 56.96 114.062 57.03 114.472 57.17C114.892 57.32 115.252 57.52 115.562 57.78L114.862 58.8C114.322 58.39 113.762 58.18 113.182 58.18C112.952 58.18 112.772 58.24 112.632 58.35Z" fill="#A06F4C"/>
<path id="Vector_15" fill-rule="evenodd" clip-rule="evenodd" d="M121.372 63.33L120.792 61.99H118.182L117.602 63.33H116.122L118.812 57.1H120.162L122.852 63.33H121.372ZM119.492 58.96L118.712 60.76H120.272L119.492 58.96Z" fill="#A06F4C"/>
<path id="Vector_16" fill-rule="evenodd" clip-rule="evenodd" d="M123.722 63.33V57.1H126.142C126.562 57.1 126.922 57.15 127.232 57.25C127.542 57.35 127.772 57.49 127.922 57.66C128.202 57.98 128.342 58.35 128.342 58.75C128.342 59.24 128.182 59.6 127.872 59.84C127.762 59.92 127.692 59.97 127.642 59.99C127.602 60.01 127.532 60.05 127.422 60.1C127.812 60.18 128.122 60.35 128.342 60.62C128.572 60.88 128.692 61.21 128.692 61.6C128.692 62.04 128.542 62.42 128.242 62.75C127.902 63.14 127.302 63.33 126.442 63.33H123.722ZM125.112 59.62H125.762C126.152 59.62 126.442 59.58 126.622 59.5C126.812 59.42 126.912 59.24 126.912 58.96C126.912 58.68 126.822 58.5 126.652 58.41C126.472 58.32 126.182 58.28 125.772 58.28H125.112V59.62ZM125.112 62.15H126.062C126.462 62.15 126.762 62.11 126.952 62.01C127.152 61.91 127.252 61.72 127.252 61.43C127.252 61.14 127.152 60.95 126.942 60.86C126.722 60.77 126.392 60.72 125.922 60.72H125.112V62.15Z" fill="#A06F4C"/>
<path id="Vector_17" fill-rule="evenodd" clip-rule="evenodd" d="M135.242 62.47C134.612 63.09 133.832 63.39 132.912 63.39C131.992 63.39 131.212 63.09 130.582 62.47C129.962 61.86 129.642 61.09 129.642 60.18C129.642 59.27 129.962 58.5 130.582 57.88C131.212 57.27 131.992 56.96 132.912 56.96C133.832 56.96 134.612 57.27 135.242 57.88C135.872 58.5 136.182 59.26 136.182 60.18C136.182 61.1 135.872 61.86 135.242 62.47ZM134.762 60.18C134.762 59.63 134.592 59.15 134.232 58.76C133.872 58.37 133.432 58.17 132.922 58.17C132.412 58.17 131.962 58.37 131.602 58.76C131.242 59.15 131.072 59.63 131.072 60.18C131.072 60.73 131.242 61.21 131.602 61.6C131.962 61.99 132.402 62.18 132.922 62.18C133.442 62.18 133.872 61.99 134.232 61.6C134.592 61.21 134.762 60.74 134.762 60.18Z" fill="#A06F4C"/>
<path id="Vector_18" fill-rule="evenodd" clip-rule="evenodd" d="M142.552 59.17C142.552 60.17 142.162 60.81 141.372 61.1L142.942 63.33H141.232L139.852 61.34H138.892V63.33H137.502V57.1H139.862C140.832 57.1 141.522 57.27 141.932 57.59C142.352 57.92 142.552 58.45 142.552 59.17ZM140.882 59.91C141.052 59.75 141.142 59.51 141.142 59.17C141.142 58.83 141.052 58.61 140.872 58.48C140.692 58.36 140.382 58.3 139.932 58.3H138.892V60.14H139.912C140.382 60.14 140.702 60.06 140.882 59.91Z" fill="#A06F4C"/>
</g>
<g id="Group_3">
<path id="Vector_19" fill-rule="evenodd" clip-rule="evenodd" d="M5.11168 33.42C5.61168 33.16 6.17168 33.08 6.80168 33.18C7.43168 33.29 7.99169 33.48 8.49169 33.76C8.99169 34.04 9.50169 34.29 10.0317 34.52C10.5617 34.75 10.9717 34.84 11.2817 34.79C12.0017 34.6 12.3917 34.28 12.4517 33.82C12.5117 33.36 12.2817 32.88 11.7617 32.37C11.2617 31.92 10.5917 31.58 9.73171 31.36C8.87171 31.14 7.8717 30.91 6.7517 30.67C5.6317 30.44 4.6717 30.17 3.8817 29.87C2.2317 29.2 1.08168 27.93 0.421679 26.06C-0.228321 24.19 -0.128293 22.44 0.731707 20.8C1.41171 19.59 2.37168 18.43 3.61168 17.32C4.86168 16.21 6.25168 15.3 7.77168 14.58C9.30168 13.87 10.8317 13.38 12.3817 13.14C13.9217 12.89 15.4117 13.09 16.8317 13.72C18.2617 14.36 19.4117 15.42 20.2717 16.91C21.1817 18.48 21.5617 20.03 21.4017 21.56C21.2517 23.09 20.4817 24.09 19.0817 24.55C18.6417 24.71 18.1417 24.72 17.6017 24.6C17.0517 24.47 16.6317 24.33 16.3417 24.16C16.0517 24 15.5917 23.71 14.9617 23.29C13.9517 22.62 13.1217 22.49 12.4817 22.9C11.9817 23.23 11.9317 23.67 12.3217 24.21C12.5317 24.47 12.8317 24.73 13.2217 24.97C14.2017 25.5 15.2617 25.95 16.3917 26.31C17.5317 26.67 18.5217 26.91 19.3617 27.03C20.2017 27.15 21.1317 27.35 22.1317 27.63C23.1317 27.91 24.0117 28.26 24.7917 28.67C26.3817 29.59 27.9617 31.31 29.5217 33.81C31.0717 36.31 32.0817 38.8 32.5317 41.27C32.9017 43.32 32.5317 45.23 31.4617 47.02C30.3817 48.81 28.9417 50.21 27.1217 51.23C25.3017 52.24 23.3517 52.97 21.2517 53.41C19.1517 53.84 17.3317 53.85 15.7717 53.43C14.3617 53.08 12.9817 52.42 11.6317 51.42C10.2817 50.43 9.13168 49.32 8.17168 48.09C7.22168 46.85 6.33171 45.54 5.51171 44.14C4.69171 42.75 4.11168 41.47 3.77168 40.3C3.26168 38.82 3.13168 37.43 3.39168 36.12C3.64168 34.82 4.21168 33.92 5.11168 33.42Z" fill="#A06F4C"/>
<path id="Vector_20" fill-rule="evenodd" clip-rule="evenodd" d="M99.4717 8.17C98.8917 7.98 98.6417 7.92 98.3517 7.88C97.5617 7.78 97.0517 7.58 96.6117 7.2L96.6817 7.17C96.6817 7.17 96.7517 7.14 96.7717 7.14C97.3217 7.14 97.7717 6.96 98.5117 6.42C98.6917 6.28 98.8817 6.18 99.3217 6L99.6017 5.88C99.6717 5.85 99.7317 5.84 99.8817 5.81L100.012 5.79V5.68L99.8117 5.63C99.5717 5.57 99.4717 5.55 99.3517 5.56C98.9517 5.61 98.5117 5.69 97.9717 5.82C97.3517 5.97 96.8517 5.93 96.2917 5.69C96.6917 5.58 97.0217 5.38 97.3017 5.08C97.4917 4.86 97.6317 4.65 97.9117 4.15C98.0117 3.99 98.1317 3.86 98.4317 3.59L98.6017 3.44C98.6617 3.38 98.7217 3.34 98.8717 3.25L99.0017 3.18C98.6017 3.09 98.2217 3.18 97.8317 3.43C97.6917 3.52 97.5717 3.61 97.3117 3.81L97.0917 3.98C96.6717 4.29 96.1917 4.48 95.5517 4.58L95.6017 4.48C95.6217 4.42 95.6317 4.4 95.6517 4.39C96.0417 3.98 96.2417 3.48 96.3617 2.69C96.3917 2.43 96.4717 2.22 96.6917 1.74C96.7917 1.54 96.8317 1.45 96.8717 1.35C96.8817 1.31 96.9017 1.28 96.9517 1.2L97.0317 1.05L96.8217 1.15C96.6617 1.22 96.6117 1.25 96.5717 1.3L96.3717 1.52C95.9617 1.98 95.8017 2.19 95.6517 2.45C95.4117 2.88 95.1317 3.17 94.4617 3.72L94.3617 3.79C94.3717 3.67 94.3917 3.56 94.4217 3.31C94.5117 2.73 94.5217 2.48 94.4717 2.21C94.4517 2.09 94.4217 1.99 94.3717 1.76C94.1717 0.9 94.1617 0.52 94.3217 0.0500002C94.0817 0.21 94.0017 0.29 93.9617 0.4L93.9117 0.54C93.7117 1.16 93.6417 1.44 93.6017 1.75C93.5317 2.36 93.3017 2.87 92.8917 3.37C92.9017 2.99 92.8217 2.63 92.6217 2.26C92.4917 2 92.3517 1.8 91.9817 1.33L91.9117 1.25C91.8017 1.1 91.7317 0.96 91.6217 0.59C91.5717 0.44 91.5417 0.37 91.5217 0.3C91.5017 0.25 91.4817 0.21 91.4617 0.0999999L91.4417 0C91.4417 0 91.3417 0.0100002 91.2917 0.0100002L91.2617 0.37C91.2317 0.78 91.2217 0.96 91.2517 1.16C91.2617 1.31 91.2917 1.44 91.3817 1.72C91.4717 2.01 91.5117 2.13 91.5217 2.28C91.5417 2.41 91.5517 2.56 91.5517 2.74L91.5317 3.6C91.5317 3.6 91.4517 3.6 91.4217 3.61L91.3817 3.56C91.3817 3.56 91.3217 3.48 91.3117 3.46C91.0917 2.94 90.7017 2.56 90.0517 2.22C89.7617 2.06 89.4817 1.87 89.2317 1.65C89.1317 1.56 89.0517 1.47 88.8917 1.24L88.7517 1.03C88.6817 1.21 88.6717 1.35 88.7217 1.44L88.8417 1.7C89.0917 2.21 89.2117 2.42 89.3917 2.63C89.7717 3.07 90.0117 3.57 90.2717 4.43H90.2117L90.1617 4.41C90.1217 4.39 90.0917 4.36 90.0617 4.34C89.6617 3.92 89.1617 3.7 88.3517 3.59C88.0817 3.55 87.8517 3.49 87.3317 3.29L87.0117 3.17C86.9417 3.15 86.8917 3.12 86.7817 3.03L86.6817 2.95C86.6817 2.95 86.6217 3 86.5917 3.03L86.7117 3.22C86.8317 3.44 86.8917 3.53 86.9917 3.61C87.2817 3.84 87.6217 4.07 88.0117 4.28C88.5817 4.59 89.0017 5 89.3117 5.55H89.2517C89.2517 5.55 89.1917 5.57 89.1717 5.56C88.6417 5.28 88.1117 5.28 87.2017 5.53C86.9617 5.59 86.7417 5.61 86.2317 5.6C86.0217 5.59 85.9317 5.59 85.8317 5.59C85.7817 5.59 85.7317 5.59 85.6217 5.57L85.5317 5.55C85.6217 5.74 85.7217 5.84 85.8217 5.87C86.0417 5.94 86.2317 6 86.6817 6.11L87.2517 6.27L89.2717 6.85L89.2417 6.98L89.1517 7C89.0717 7.01 89.0317 7.01 88.9917 7.01C88.3117 6.94 87.7117 7.16 87.0217 7.71C86.8417 7.86 86.6617 7.95 86.2117 8.13L85.9317 8.24C85.8617 8.27 85.7917 8.29 85.6317 8.32L85.4917 8.34V8.44L85.6917 8.49C85.9217 8.56 86.0217 8.57 86.1417 8.56C86.6817 8.5 87.1517 8.42 87.5617 8.3C88.1317 8.15 88.7017 8.19 89.5417 8.46C89.4317 8.53 89.3217 8.58 89.1517 8.63C88.5217 8.8 88.0717 9.15 87.8017 9.68C87.5317 10.19 87.1817 10.57 86.7117 10.83C86.6817 10.85 86.6517 10.87 86.5817 10.93L86.5017 11.01C87.1217 11.01 87.6417 10.82 88.1617 10.37L88.2817 10.27C88.5717 10.02 88.7017 9.92 88.8517 9.82C89.2817 9.55 89.7317 9.47 90.2117 9.58C89.6417 9.84 89.3117 10.33 89.2417 11.07C89.1717 11.86 88.9617 12.45 88.5817 12.95C88.5817 12.95 88.5884 12.9633 88.6017 12.99L88.6217 13.02C89.0617 12.85 89.4117 12.54 89.6917 12.07L89.8717 11.78C90.1117 11.37 90.2217 11.19 90.3617 11C90.5817 10.67 90.9117 10.46 91.3917 10.33L91.3217 10.51C91.2717 10.63 91.2517 10.68 91.2217 10.73C90.9717 11.24 90.9417 11.75 91.1317 12.26C91.3517 12.83 91.3817 13.39 91.2117 13.95C91.2017 13.98 91.2017 14 91.2117 14.06V14.11C91.2117 14.11 91.2917 14.13 91.3317 14.15L91.4817 13.86C91.6717 13.51 91.7517 13.36 91.8117 13.17C91.8717 13.01 91.9017 12.85 91.9317 12.48V12.38C91.9817 11.76 92.2417 11.19 92.7617 10.55C92.8017 10.66 92.8017 10.74 92.7817 10.82C92.6417 11.31 92.7617 11.79 93.1417 12.25C93.8017 13.04 94.0517 13.52 94.1117 14.14C94.2617 13.91 94.2917 13.82 94.2917 13.72L94.2717 13.48C94.2317 12.85 94.1917 12.59 94.1017 12.29C93.9517 11.77 93.9317 11.23 94.0417 10.48L94.1117 10.56C94.1717 10.61 94.1817 10.63 94.1917 10.65C94.4417 11.17 94.8417 11.55 95.6017 11.97C95.8017 12.08 95.9617 12.21 96.3017 12.56C96.4417 12.69 96.5017 12.75 96.5717 12.81C96.6117 12.85 96.6417 12.89 96.7117 12.98L96.7617 13.07C96.8417 12.57 96.7017 12.15 96.2517 11.57C95.9617 11.21 95.6917 10.8 95.4017 10.34C95.3517 10.26 95.3317 10.18 95.2917 9.95C95.2717 9.82 95.2517 9.75 95.2417 9.67C95.3217 9.73 95.3917 9.78 95.5317 9.89C95.7817 10.08 95.8817 10.14 96.0017 10.19C96.1817 10.26 96.3517 10.3 96.7317 10.39C96.9617 10.45 97.0617 10.48 97.1717 10.51C97.8417 10.71 97.6817 10.66 98.3517 10.86L98.8817 11.03C98.7417 10.64 98.4117 10.3 97.8617 10L97.6017 9.86C97.2817 9.69 97.1417 9.61 97.0017 9.49C96.8517 9.37 96.7417 9.24 96.4917 8.94L96.2817 8.68C96.2817 8.68 96.3317 8.61 96.3617 8.58C96.9517 8.83 97.5617 8.82 98.4217 8.56C98.6217 8.5 98.8017 8.48 99.2317 8.49H99.4517C99.5517 8.49 99.6317 8.5 99.8317 8.54L99.9917 8.57C99.9117 8.39 99.8117 8.28 99.7117 8.25L99.4717 8.17ZM92.7517 9.87C91.2217 9.87 89.9817 8.63 89.9817 7.1C89.9817 6.94 89.9917 6.78 90.0217 6.63C90.0317 6.55 90.0517 6.47 90.0617 6.42C90.0917 6.29 90.1317 6.18 90.1717 6.07C90.1717 6.07 90.1817 6.07 90.1817 6.06C90.2817 5.82 90.4117 5.6 90.5717 5.4C90.5617 5.4 90.5517 5.4 90.5417 5.41C91.0717 4.71 91.8817 4.31 92.7517 4.31C93.6217 4.31 94.3817 4.69 94.9117 5.35C94.9517 5.41 95.0017 5.47 95.0417 5.53C95.2817 5.88 95.4317 6.28 95.4917 6.71C95.5017 6.76 95.5017 6.81 95.5117 6.86C95.5217 6.95 95.5217 7.02 95.5217 7.1C95.5217 8.63 94.2817 9.87 92.7517 9.87Z" fill="#A06F4C"/>
<path id="Vector_21" fill-rule="evenodd" clip-rule="evenodd" d="M43.3116 40.05C43.2816 39.51 43.0616 38.8 42.6216 37.9C42.1916 37.01 41.7816 36.14 41.4016 35.31C41.0216 34.47 40.7516 33.34 40.6116 31.91C40.5416 31.16 40.6116 30.11 40.8416 28.78C41.0716 27.45 41.0717 26.29 40.8217 25.31C40.6017 24.41 40.2416 23.69 39.7416 23.15C39.2416 22.61 38.6917 22.28 38.1017 22.16C37.5217 22.04 36.9116 22.06 36.2816 22.21C35.6516 22.35 35.0816 22.62 34.5616 22.99C34.0516 23.37 33.6316 23.83 33.3116 24.39C32.9816 24.94 32.8316 25.51 32.8416 26.09C32.8916 27 33.0416 27.72 33.3016 28.26C33.5616 28.79 33.8316 29.35 34.1216 29.94C34.4216 30.53 34.5716 31 34.5916 31.35C34.5916 31.96 34.4116 32.44 34.0516 32.78C33.6816 33.12 33.2517 33.26 32.7317 33.2C32.2217 33.13 31.7816 32.88 31.4016 32.44C31.0716 31.99 30.7817 31.22 30.5417 30.11C30.3017 29 30.1916 28.09 30.2216 27.37C30.2116 26.59 30.0616 25.96 29.7716 25.45C29.4816 24.94 29.0616 24.6 28.5016 24.41C27.9416 24.22 27.3716 24.15 26.7716 24.19C26.1716 24.23 25.5617 24.42 24.9417 24.74C24.3217 25.06 23.7916 25.5 23.3616 26.04C23.3016 26.11 23.2517 26.18 23.2017 26.25C24.0717 26.53 24.8716 26.86 25.5616 27.24L25.6017 27.26C27.4517 28.33 29.1816 30.19 30.9016 32.94C32.5516 35.6 33.6417 38.3 34.1317 40.97C34.5417 43.23 34.2017 45.37 33.1317 47.37C34.2317 47.46 35.3716 47.37 36.5316 47.1C37.8116 46.8 38.9617 46.32 39.9817 45.67C41.0017 45.01 41.8217 44.19 42.4517 43.19C43.0817 42.19 43.3716 41.15 43.3116 40.05Z" fill="#A06F4C"/>
<path id="Vector_22" fill-rule="evenodd" clip-rule="evenodd" d="M64.7817 41.32C64.5817 40.65 64.0717 39.51 63.2317 37.92C62.3917 36.33 61.8417 35.11 61.5717 34.28C61.2517 33.12 61.0417 32.11 60.9517 31.23C60.8617 30.35 60.8717 29.42 60.9717 28.43C61.0717 27.43 61.2117 26.58 61.3617 25.87C61.5217 25.16 61.6817 24.38 61.8317 23.53C61.9817 22.68 62.0517 21.97 62.0417 21.39C62.0617 20.86 62.0217 20.38 61.9017 19.95C61.5217 18.35 60.4717 17.47 58.7717 17.32C57.1717 17.18 55.6717 17.67 54.2717 18.8C52.7117 20.04 52.0917 21.5 52.3917 23.19C52.5017 23.8 52.7317 24.6 53.0817 25.6C53.4217 26.61 53.6217 27.18 53.6717 27.32C53.8417 28.02 53.7417 28.48 53.3417 28.68C53.1817 28.76 53.0217 28.81 52.8817 28.85C52.7317 28.88 52.5917 28.88 52.4417 28.84C52.3017 28.79 52.1717 28.75 52.0517 28.69C51.9217 28.63 51.7917 28.53 51.6417 28.39C51.5017 28.25 51.3717 28.12 51.2717 28.01C51.1717 27.9 51.0417 27.73 50.8917 27.5C50.7517 27.28 50.6317 27.09 50.5517 26.93C50.4617 26.78 50.3517 26.57 50.2117 26.29C50.0717 26.01 49.9517 25.79 49.8717 25.64C49.7817 25.49 49.6717 25.27 49.5317 24.96C49.3817 24.68 49.2817 24.47 49.2017 24.33C48.5417 23.08 47.7517 22.12 46.8317 21.47C45.9117 20.82 45.0017 20.51 44.1017 20.56C43.2117 20.6 42.3617 20.82 41.5717 21.23C41.2617 21.39 40.9717 21.59 40.7217 21.82C40.7917 21.89 40.8617 21.97 40.9317 22.04C41.6217 22.78 42.1117 23.74 42.4117 24.9C42.7117 26.12 42.7217 27.51 42.4517 29.06C42.2517 30.23 42.1717 31.17 42.2317 31.77C42.3617 32.99 42.5817 33.96 42.8817 34.63C43.2317 35.39 43.6217 36.22 44.1017 37.2C44.6317 38.3 44.9117 39.21 44.9517 39.98C45.0217 41.4 44.6517 42.78 43.8317 44.06C43.0817 45.25 42.0817 46.26 40.8617 47.04C40.7917 47.09 40.7117 47.13 40.6317 47.17C40.7017 47.44 40.7917 47.69 40.9117 47.91C41.6417 49.31 43.0417 50.1 45.1017 50.28C47.1517 50.47 48.9017 50.04 50.3517 49C52.0517 47.78 52.5517 46.19 51.8317 44.24C51.6717 43.79 51.4217 43.13 51.0917 42.26C50.7617 41.39 50.5117 40.71 50.3217 40.21C50.1317 39.71 49.9317 39.15 49.6917 38.52C49.4617 37.89 49.2917 37.34 49.1717 36.87C49.0517 36.4 48.9717 35.99 48.9217 35.65C48.8917 35.5 48.8717 35.36 48.8617 35.24C48.8017 34.5 48.9717 34.17 49.3917 34.26C49.9917 34.43 50.6917 35.24 51.4817 36.7C51.8917 37.44 52.2417 38.2 52.5317 38.99C52.8217 39.77 53.1317 40.73 53.4617 41.86C53.7817 42.99 54.0417 43.84 54.2317 44.41C54.6617 45.68 55.4517 46.63 56.5817 47.26C57.7117 47.9 59.1717 48.04 60.9417 47.68C62.4317 47.38 63.5817 46.66 64.3817 45.51C65.1917 44.36 65.3317 42.97 64.7817 41.32Z" fill="#A06F4C"/>
<path id="Vector_23" fill-rule="evenodd" clip-rule="evenodd" d="M172.062 33.61C171.832 31.45 171.342 29.55 170.592 27.91C169.782 26.15 168.442 24.7 166.552 23.55C164.672 22.4 162.702 21.69 160.662 21.43C158.612 21.16 156.832 21.33 155.322 21.92C154.432 22.27 153.762 22.89 153.312 23.79C152.952 24.48 152.652 25.36 152.402 26.44C152.822 26.97 153.152 27.54 153.402 28.16C153.972 29.59 153.942 31.06 153.302 32.55C152.632 34.13 151.492 35.24 150.022 35.75C149.752 35.84 149.482 35.91 149.202 35.95C149.162 36.02 149.122 36.1 149.082 36.18C149.102 36.22 149.122 36.26 149.142 36.3C149.442 37.12 149.512 38 149.322 38.92C149.142 39.85 148.732 40.65 148.112 41.3C148.072 41.35 148.022 41.4 147.972 41.44C148.742 42.04 149.242 42.96 149.462 44.16C149.712 45.5 149.592 46.95 149.112 48.47C148.772 49.47 148.252 50.34 147.552 51.07C147.982 51.48 148.442 51.87 148.962 52.22C150.622 53.37 152.582 54.19 154.832 54.69C157.072 55.18 159.132 55.19 161.002 54.72C162.982 54.22 164.752 53.23 166.302 51.74C167.852 50.25 169.052 48.51 169.922 46.52C170.782 44.52 171.412 42.41 171.802 40.19C172.202 37.94 172.292 35.75 172.062 33.61ZM163.512 34.98C163.202 35.7 162.682 36.25 161.952 36.63C161.222 37.01 160.392 37.04 159.472 36.74C158.912 36.55 158.602 36.08 158.532 35.3C158.462 34.53 158.572 33.74 158.852 32.92C159.142 32.1 159.452 31.35 159.792 30.67C160.252 29.82 160.822 29.41 161.502 29.43C162.192 29.45 162.852 29.9 163.502 30.79C163.842 31.28 164.002 31.93 163.992 32.72C163.982 33.51 163.822 34.26 163.512 34.98Z" fill="#A06F4C"/>
<path id="Vector_24" fill-rule="evenodd" clip-rule="evenodd" d="M151.892 28.77C151.482 27.76 150.782 26.91 149.782 26.24C148.782 25.57 147.642 25.02 146.382 24.59C145.112 24.17 143.792 23.96 142.402 23.96C141.012 23.96 139.792 24.2 138.732 24.67C137.892 25.03 137.192 25.58 136.632 26.34C136.422 27.55 135.952 28.6 135.252 29.48C135.092 30.3 134.912 31.31 134.722 32.52C134.552 33.59 134.372 34.47 134.182 35.15C134.442 36.38 134.472 37.8 134.272 39.47C134.002 41.75 133.362 43.79 132.362 45.55C131.972 46.23 131.492 46.84 130.912 47.37C131.652 48.72 132.982 49.83 134.902 50.7C137.412 51.85 139.932 52.21 142.462 51.8C145.142 51.36 146.832 50.09 147.552 47.98C147.952 46.71 148.062 45.53 147.862 44.45C147.662 43.37 147.182 42.69 146.402 42.42C145.782 42.2 145.032 42.21 144.152 42.45C143.262 42.68 142.642 42.79 142.282 42.78C141.482 42.74 140.712 42.5 139.972 42.04C139.562 41.77 139.312 41.35 139.202 40.79C139.102 40.23 139.182 39.72 139.452 39.26C139.712 38.81 140.112 38.6 140.642 38.65C140.852 38.66 141.072 38.74 141.302 38.87C141.532 39.01 141.812 39.22 142.132 39.51C142.462 39.79 142.752 40.01 142.992 40.17C143.872 40.74 144.642 40.99 145.312 40.92C145.982 40.85 146.522 40.6 146.932 40.18C147.332 39.75 147.602 39.23 147.722 38.61C147.852 37.98 147.812 37.41 147.612 36.88C147.372 36.24 147.042 35.8 146.642 35.57C146.232 35.35 145.672 35.19 144.942 35.11C144.222 35.03 143.682 34.93 143.322 34.82C142.382 34.47 141.842 33.98 141.712 33.33C141.592 32.69 141.942 32.26 142.772 32.03C142.952 31.99 143.132 31.97 143.302 31.98C143.472 31.98 143.622 31.99 143.742 31.99C143.862 31.99 144.012 32.02 144.192 32.09C144.362 32.16 144.492 32.21 144.582 32.25C144.662 32.29 144.792 32.37 144.972 32.49C145.142 32.6 145.252 32.69 145.312 32.74C145.362 32.8 145.492 32.9 145.692 33.05C145.892 33.2 146.022 33.29 146.082 33.34C147.302 34.29 148.432 34.58 149.482 34.21C150.532 33.84 151.302 33.08 151.802 31.91C152.262 30.83 152.292 29.78 151.892 28.77Z" fill="#A06F4C"/>
<path id="Vector_25" fill-rule="evenodd" clip-rule="evenodd" d="M134.522 22.55C133.962 21.58 133.162 20.82 132.112 20.28C131.072 19.74 129.912 19.33 128.662 19.07C127.402 18.8 126.132 18.7 124.862 18.77C123.582 18.85 122.452 19.07 121.482 19.45C120.182 19.98 119.292 20.91 118.802 22.24C118.312 23.57 118.402 24.78 119.082 25.88C119.412 26.39 119.862 26.95 120.432 27.57C120.992 28.2 121.482 28.76 121.892 29.26C122.312 29.76 122.552 30.24 122.642 30.71C122.712 31.22 122.622 31.59 122.372 31.82C122.122 32.05 121.732 32.06 121.212 31.85C121.002 31.74 120.792 31.51 120.582 31.15C120.372 30.79 120.182 30.43 120.012 30.05C119.842 29.68 119.602 29.32 119.262 28.99C118.932 28.66 118.562 28.46 118.142 28.38C117.752 28.33 117.362 28.37 116.982 28.5C117.492 29.94 117.722 31.69 117.682 33.84C117.632 36.41 117.172 38.77 116.312 40.83C115.892 41.86 115.312 42.74 114.572 43.48C114.732 43.73 114.902 43.97 115.082 44.19C115.822 45.1 116.932 45.89 118.402 46.57C119.872 47.24 121.392 47.69 122.962 47.92C124.542 48.15 126.082 48 127.572 47.48C129.072 46.96 130.192 46.05 130.932 44.75C131.832 43.17 132.412 41.35 132.652 39.28C132.902 37.2 132.762 35.56 132.242 34.35C131.972 33.78 131.602 33.2 131.132 32.61C130.662 32.01 130.202 31.5 129.742 31.06C129.292 30.63 128.812 30.06 128.302 29.36C127.782 28.67 127.362 27.96 127.022 27.23C126.902 26.93 126.842 26.65 126.842 26.41C126.862 25.94 127.102 25.72 127.552 25.76C128.132 25.81 128.572 26.24 128.862 27.06C129.052 27.56 129.192 27.93 129.282 28.15C129.382 28.36 129.562 28.63 129.832 28.94C130.102 29.25 130.412 29.46 130.752 29.57C131.812 29.92 132.752 29.7 133.562 28.91C134.382 28.13 134.892 27.1 135.082 25.83C135.272 24.62 135.082 23.53 134.522 22.55Z" fill="#A06F4C"/>
<path id="Vector_26" fill-rule="evenodd" clip-rule="evenodd" d="M109.272 18.88C109.892 18.88 110.392 19.33 110.782 20.23C111.032 20.79 111.212 21.19 111.342 21.44C111.462 21.68 111.682 21.96 112.002 22.29C112.322 22.61 112.662 22.82 113.032 22.92C114.182 23.21 115.152 22.87 115.932 21.9C116.712 20.93 117.142 19.7 117.212 18.23C117.282 16.84 116.972 15.62 116.282 14.55C115.592 13.49 114.662 12.7 113.502 12.19C112.352 11.67 111.092 11.32 109.742 11.14C108.382 10.95 107.042 10.96 105.702 11.17C104.362 11.38 103.202 11.74 102.212 12.26C100.902 13 100.052 14.14 99.6716 15.71C99.2916 17.27 99.5217 18.64 100.342 19.82C100.752 20.38 101.282 20.98 101.942 21.63C102.602 22.29 103.182 22.88 103.672 23.41C104.152 23.94 104.462 24.47 104.602 25C104.732 25.57 104.682 26.01 104.442 26.29C104.192 26.58 103.782 26.63 103.212 26.43C102.982 26.33 102.732 26.09 102.482 25.7C102.222 25.31 101.982 24.91 101.772 24.5C101.552 24.09 101.252 23.71 100.872 23.37C100.562 23.09 100.242 22.91 99.8917 22.83C99.8317 23.11 99.7616 23.4 99.6716 23.69C99.4016 24.61 99.0416 25.58 98.6016 26.58C98.2616 27.38 98.0217 27.99 97.9517 28.3C97.8117 28.88 97.7716 29.4 97.8216 29.79C97.8916 30.34 98.0316 30.94 98.2316 31.58C98.4516 32.28 98.6717 32.92 98.9017 33.48C99.2117 34.26 99.4516 35.12 99.6116 36.04C99.7816 37.08 99.7716 38.1 99.5716 39.07C99.4216 39.95 99.0016 40.75 98.3516 41.42C99.2016 42.24 100.342 42.94 101.782 43.49C103.402 44.12 105.052 44.49 106.732 44.6C108.422 44.71 110.022 44.39 111.542 43.65C113.072 42.92 114.152 41.77 114.802 40.21C115.592 38.33 116.002 36.2 116.052 33.81C116.092 31.42 115.772 29.56 115.102 28.23C114.752 27.61 114.302 26.98 113.752 26.35C113.192 25.71 112.652 25.17 112.132 24.72C111.612 24.26 111.042 23.66 110.432 22.92C109.812 22.18 109.292 21.4 108.862 20.61C108.702 20.27 108.612 19.97 108.582 19.7C108.562 19.15 108.782 18.88 109.272 18.88Z" fill="#A06F4C"/>
<path id="Vector_27" fill-rule="evenodd" clip-rule="evenodd" d="M97.1117 25.93C97.5117 25 97.8517 24.08 98.1117 23.22C98.3817 22.32 98.4817 21.47 98.4217 20.72C98.3617 19.71 98.0617 18.81 97.5317 18.04C97.0017 17.28 96.3417 16.71 95.5817 16.33C94.8417 15.98 94.0317 15.76 93.1717 15.7C93.0117 15.69 92.8517 15.69 92.6917 15.69C92.0017 15.69 91.3317 15.79 90.7017 16L90.5817 16.05L90.5117 16.07C90.7917 17.05 90.9017 18.09 90.8417 19.19C90.7917 20.77 90.2617 22.27 89.2617 23.64C88.9517 24.06 88.6217 24.45 88.2617 24.82C88.3217 24.98 88.3917 25.15 88.4617 25.32C88.6717 25.86 88.7817 26.3 88.8117 26.62C88.8317 27.08 88.7717 27.65 88.6217 28.31H88.6317C89.0417 28.42 89.4917 28.6 90.0217 28.87C90.6017 29.16 91.1717 29.58 91.7117 30.11C92.5617 30.94 93.2317 32.06 93.6817 33.41C94.1017 34.67 94.3317 36.01 94.3717 37.41C94.4217 38.81 94.2417 40.23 93.8417 41.63C93.8417 41.65 93.8317 41.68 93.8217 41.7C93.8517 41.7 93.8817 41.69 93.9117 41.69C94.8917 41.6 95.7717 41.31 96.5117 40.83C97.3217 40.31 97.8217 39.6 97.9717 38.75C98.1317 37.97 98.1417 37.15 98.0017 36.31C97.8617 35.5 97.6617 34.76 97.3917 34.09C97.1517 33.49 96.9017 32.81 96.6717 32.06C96.4417 31.33 96.2817 30.64 96.2017 30.01C96.1217 29.41 96.1817 28.7 96.3717 27.89C96.4717 27.48 96.7217 26.83 97.1117 25.93Z" fill="#A06F4C"/>
<path id="Vector_28" fill-rule="evenodd" clip-rule="evenodd" d="M92.1317 33.93C91.7617 32.81 91.2416 31.93 90.5616 31.27C90.1416 30.86 89.7116 30.54 89.2916 30.33C88.8616 30.11 88.5017 29.97 88.2017 29.89C87.9017 29.81 87.5317 29.84 87.0917 30C86.6517 30.16 86.3416 30.29 86.1816 30.39C86.0116 30.49 85.6716 30.7 85.1616 31.03C84.6416 31.37 84.3116 31.57 84.1616 31.64C83.1316 32.24 82.1716 32.49 81.2916 32.41C80.4016 32.32 79.8517 32 79.6417 31.45C78.9817 29.75 80.7617 27.7 84.9617 25.33C86.1417 24.66 87.1417 23.77 87.9417 22.67C88.7516 21.57 89.1816 20.38 89.2316 19.11C89.3016 17.37 88.9216 15.89 88.1016 14.67C87.2716 13.45 86.2617 12.64 85.0717 12.25C83.8817 11.85 82.6317 11.78 81.3217 12.05C80.0217 12.32 78.9516 12.93 78.1216 13.86C77.5016 14.63 77.1017 15.66 76.9017 16.95C76.7117 18.25 76.5316 19.67 76.3616 21.23C76.1916 22.78 75.8216 24.11 75.2416 25.22C74.7616 26.14 74.2117 26.54 73.5817 26.43C72.9617 26.32 72.5916 25.75 72.4916 24.73C72.4216 23.84 72.5317 22.32 72.8317 20.19C73.1317 18.06 73.2917 16.91 73.3217 16.76C73.4217 14.83 72.8017 13.38 71.4617 12.42C70.8317 11.98 70.0517 11.68 69.1517 11.52C68.2417 11.35 67.3116 11.34 66.3616 11.49C65.4116 11.64 64.4716 11.93 63.5616 12.35C62.6516 12.78 61.8817 13.35 61.2617 14.07C60.8017 14.62 60.4417 15.24 60.1917 15.94C61.9017 16.47 63.0516 17.72 63.4916 19.56C63.6316 20.12 63.7016 20.75 63.6716 21.41C63.6816 22.09 63.6016 22.87 63.4316 23.81C63.2816 24.66 63.0817 25.69 62.9617 26.22C62.3617 28.81 62.4317 31.6 63.1317 33.8C63.3417 34.46 63.9216 35.71 64.6816 37.16C65.5716 38.87 66.1017 40.04 66.3417 40.83C67.0317 42.95 66.8216 44.89 65.7216 46.45C65.3016 47.04 64.8217 47.54 64.2717 47.96C64.7217 48.3 65.2017 48.58 65.7117 48.78C66.9817 49.3 68.2317 49.5 69.4517 49.37C70.6717 49.24 71.7717 48.75 72.7617 47.91C73.7417 47.06 74.3316 45.97 74.5316 44.63C74.6916 44.06 74.7217 43.44 74.6317 42.77C74.5417 42.09 74.4617 41.59 74.3917 41.29C74.3117 40.98 74.1816 40.56 73.9916 40.03C73.7916 39.49 73.6617 39.07 73.5917 38.77C73.4017 38.12 73.3516 37.56 73.4216 37.08C73.4916 36.59 73.6716 36.28 73.9417 36.15C74.1217 36.08 74.3216 36.08 74.5416 36.15C74.7616 36.22 75.0017 36.42 75.2717 36.77C75.5317 37.11 75.7516 37.62 75.9216 38.3C76.2316 39.46 76.5016 40.41 76.7516 41.14C77.0016 41.88 77.3316 42.66 77.7516 43.5C78.1816 44.33 78.6417 44.98 79.1417 45.46C79.6417 45.93 80.2817 46.35 81.0717 46.7C81.8617 47.06 82.7716 47.29 83.8016 47.4C85.3216 47.52 86.6817 47.31 87.8817 46.77C89.0817 46.22 90.0317 45.47 90.7117 44.51C91.4017 43.55 91.9217 42.45 92.2717 41.19C92.6217 39.94 92.7816 38.69 92.7416 37.46C92.7116 36.22 92.5017 35.04 92.1317 33.93Z" fill="#A06F4C"/>
</g>
</g>
</g>
</g>
</g>
</g>
<defs>
<clipPath id="clip0_0_1">
<rect width="1200" height="2580" fill="white" transform="translate(-43 -80)"/>
</clipPath>
<clipPath id="clip1_0_1">
<rect width="33" height="33" fill="white" transform="translate(37 3)"/>
</clipPath>
</defs>
</svg>
