<svg width="278" height="103" viewBox="0 0 278 103" fill="none" xmlns="http://www.w3.org/2000/svg">
<path fill-rule="evenodd" clip-rule="evenodd" d="M53.9968 93.7217C54.7055 94.3177 55.0599 95.2359 55.0599 96.4763C55.0599 97.7167 54.6895 98.6188 53.9807 99.1987C53.2558 99.7625 52.1443 100.052 50.6623 100.052H49.3253V102.855H47.0862V92.8196H50.6301C52.1765 92.8196 53.3041 93.1257 53.9968 93.7217ZM52.3537 97.6684C52.6275 97.3623 52.7564 96.9274 52.7564 96.3474C52.7564 95.7675 52.5792 95.3487 52.2409 95.1071C51.8865 94.8654 51.3549 94.7527 50.6139 94.7527H49.3253V98.1194H50.8395C51.5805 98.1194 52.096 97.9744 52.3537 97.6684Z" fill="#A06F4C"/>
<path fill-rule="evenodd" clip-rule="evenodd" d="M59.6993 100.262C60.0698 100.729 60.5691 100.955 61.1973 100.955C61.8256 100.955 62.3249 100.729 62.6954 100.262C63.0659 99.8108 63.2593 99.1665 63.2593 98.361V92.8196H65.4984V98.4416C65.4984 99.8913 65.0957 101.003 64.2902 101.792C63.4848 102.565 62.4538 102.952 61.1973 102.952C59.9409 102.952 58.9099 102.565 58.1045 101.776C57.2991 101.003 56.8964 99.8752 56.8964 98.4416V92.8196H59.1354V98.361C59.1354 99.1665 59.3126 99.7947 59.6993 100.262Z" fill="#A06F4C"/>
<path fill-rule="evenodd" clip-rule="evenodd" d="M76.1944 96.1541C76.1944 97.765 75.5501 98.796 74.2775 99.2631L76.8227 102.855H74.0681L71.8451 99.6497H70.2826V102.855H68.0435V92.8196H71.8451C73.4076 92.8196 74.5191 93.0935 75.1957 93.609C75.8562 94.1405 76.1944 94.9943 76.1944 96.1541ZM73.4882 97.3462C73.762 97.0884 73.907 96.7018 73.907 96.1541C73.907 95.6064 73.762 95.252 73.4721 95.0426C73.1821 94.8493 72.6828 94.7527 71.974 94.7527H70.2826V97.7167H71.9257C72.6828 97.7167 73.2143 97.5878 73.4882 97.3462Z" fill="#A06F4C"/>
<path fill-rule="evenodd" clip-rule="evenodd" d="M85.8598 102.855L84.9254 100.697H80.7211L79.7868 102.855H77.4027L81.7359 92.8196H83.9107L88.2438 102.855H85.8598ZM82.8313 95.8159L81.5749 98.7154H84.0878L82.8313 95.8159Z" fill="#A06F4C"/>
<path fill-rule="evenodd" clip-rule="evenodd" d="M98.2634 100.874C99.3588 100.874 100.261 100.439 100.97 99.5692L102.403 101.051C101.26 102.324 99.9226 102.968 98.3761 102.968C96.8297 102.968 95.5571 102.485 94.5584 101.502C93.5597 100.536 93.0603 99.2953 93.0603 97.8133C93.0603 96.3313 93.5597 95.0749 94.5745 94.0922C95.6055 93.0935 96.8458 92.5941 98.3278 92.5941C99.9709 92.5941 101.34 93.2224 102.452 94.4788L101.066 96.0575C100.357 95.1715 99.4715 94.7366 98.4244 94.7366C97.5868 94.7366 96.8619 95.0104 96.2659 95.5581C95.6699 96.1058 95.3638 96.8468 95.3638 97.7811C95.3638 98.7154 95.6537 99.4725 96.2175 100.036C96.7813 100.6 97.4579 100.874 98.2634 100.874Z" fill="#A06F4C"/>
<path fill-rule="evenodd" clip-rule="evenodd" d="M110.619 92.8196H112.858V102.855H110.619V98.9087H106.64V102.855H104.401V92.8196H106.64V97.0079H110.619V92.8196Z" fill="#A06F4C"/>
<path d="M117.803 92.8196H115.564V102.855H117.803V92.8196Z" fill="#A06F4C"/>
<path fill-rule="evenodd" clip-rule="evenodd" d="M122.845 94.8332C122.636 94.9943 122.523 95.2359 122.523 95.5259C122.523 95.8158 122.652 96.0575 122.91 96.2186C123.183 96.3958 123.78 96.6052 124.746 96.8307C125.696 97.0723 126.437 97.4267 126.953 97.8939C127.485 98.361 127.742 99.0376 127.742 99.9397C127.742 100.842 127.404 101.567 126.727 102.13C126.067 102.694 125.165 102.968 124.07 102.968C122.491 102.968 121.057 102.388 119.785 101.212L121.122 99.5692C122.201 100.52 123.2 100.987 124.118 100.987C124.52 100.987 124.843 100.906 125.084 100.729C125.326 100.552 125.439 100.31 125.439 100.004C125.439 99.7141 125.31 99.4725 125.068 99.2953C124.81 99.1181 124.327 98.9409 123.586 98.7637C122.41 98.4738 121.557 98.1194 121.025 97.6683C120.477 97.2173 120.203 96.5246 120.203 95.5742C120.203 94.6238 120.558 93.8828 121.234 93.3673C121.927 92.8519 122.781 92.5941 123.796 92.5941C124.472 92.5941 125.133 92.7069 125.809 92.9324C126.47 93.174 127.066 93.4962 127.565 93.915L126.421 95.5581C125.551 94.8976 124.649 94.5594 123.731 94.5594C123.361 94.5594 123.055 94.656 122.845 94.8332Z" fill="#A06F4C"/>
<path fill-rule="evenodd" clip-rule="evenodd" d="M136.795 93.7217C137.504 94.3177 137.859 95.2359 137.859 96.4763C137.859 97.7167 137.488 98.6188 136.763 99.1987C136.038 99.7625 134.943 100.052 133.461 100.052H132.124V102.855H129.885V92.8196H133.429C134.975 92.8196 136.103 93.1257 136.795 93.7217ZM135.152 97.6684C135.426 97.3623 135.555 96.9274 135.555 96.3474C135.555 95.7675 135.378 95.3487 135.023 95.1071C134.685 94.8654 134.137 94.7527 133.396 94.7527H132.124V98.1194H133.638C134.379 98.1194 134.895 97.9744 135.152 97.6684Z" fill="#A06F4C"/>
<path fill-rule="evenodd" clip-rule="evenodd" d="M146.396 102.855L145.462 100.697H141.257L140.323 102.855H137.939L142.272 92.8196H144.447L148.78 102.855H146.396ZM143.368 95.8159L142.095 98.7154H144.608L143.368 95.8159Z" fill="#A06F4C"/>
<path fill-rule="evenodd" clip-rule="evenodd" d="M161.86 94.1406C162.811 95.0104 163.294 96.2347 163.294 97.7811C163.294 99.3275 162.827 100.584 161.893 101.486C160.958 102.404 159.525 102.855 157.624 102.855H154.193V92.8196H157.737C159.525 92.8196 160.894 93.2546 161.86 94.1406ZM160.201 100.101C160.765 99.5853 161.039 98.8282 161.039 97.8456C161.039 96.8629 160.765 96.1058 160.217 95.5742C159.654 95.0426 158.816 94.7688 157.672 94.7688H156.432V100.874H157.849C158.88 100.874 159.654 100.616 160.201 100.101Z" fill="#A06F4C"/>
<path fill-rule="evenodd" clip-rule="evenodd" d="M172.685 92.8196V94.8171H167.692V96.879H172.186V98.796H167.692V100.874H172.846V102.855H165.453V92.8196H172.685Z" fill="#A06F4C"/>
<path fill-rule="evenodd" clip-rule="evenodd" d="M181.433 94.8332C181.223 95.0104 181.11 95.2359 181.11 95.5259C181.11 95.8158 181.239 96.0575 181.513 96.2186C181.771 96.3958 182.383 96.6052 183.333 96.8307C184.284 97.0723 185.025 97.4267 185.556 97.8939C186.072 98.361 186.346 99.0376 186.346 99.9397C186.346 100.842 186.007 101.567 185.331 102.13C184.654 102.694 183.768 102.968 182.673 102.968C181.078 102.968 179.644 102.388 178.372 101.212L179.709 99.5692C180.788 100.52 181.787 100.987 182.705 100.987C183.124 100.987 183.446 100.906 183.672 100.729C183.913 100.552 184.026 100.31 184.026 100.004C184.026 99.7141 183.897 99.4725 183.656 99.2953C183.414 99.1181 182.915 98.9409 182.174 98.7637C181.014 98.4738 180.16 98.1194 179.612 97.6683C179.081 97.2173 178.807 96.5246 178.807 95.5742C178.807 94.6238 179.145 93.8828 179.838 93.3673C180.514 92.8519 181.368 92.5941 182.399 92.5941C183.059 92.5941 183.736 92.7069 184.396 92.9324C185.073 93.174 185.653 93.4962 186.152 93.915L185.025 95.5581C184.155 94.8976 183.253 94.5594 182.318 94.5594C181.948 94.5594 181.658 94.656 181.433 94.8332Z" fill="#A06F4C"/>
<path fill-rule="evenodd" clip-rule="evenodd" d="M195.511 102.855L194.577 100.697H190.373L189.438 102.855H187.054L191.388 92.8196H193.562L197.895 102.855H195.511ZM192.483 95.8159L191.227 98.7154H193.739L192.483 95.8159Z" fill="#A06F4C"/>
<path fill-rule="evenodd" clip-rule="evenodd" d="M199.297 102.855V92.8196H203.195C203.872 92.8196 204.452 92.9002 204.951 93.0613C205.45 93.2224 205.821 93.4479 206.063 93.7217C206.514 94.2372 206.739 94.8332 206.739 95.4776C206.739 96.2669 206.481 96.8468 205.982 97.2334C205.805 97.3623 205.692 97.4428 205.612 97.475C205.547 97.5073 205.434 97.5717 205.257 97.6522C205.885 97.7811 206.385 98.055 206.739 98.4899C207.11 98.9087 207.303 99.4403 207.303 100.069C207.303 100.777 207.061 101.389 206.578 101.921C206.03 102.549 205.064 102.855 203.678 102.855H199.297ZM201.536 96.879H202.583C203.211 96.879 203.678 96.8146 203.968 96.6857C204.274 96.5569 204.436 96.2669 204.436 95.8159C204.436 95.3648 204.291 95.0749 204.017 94.9299C203.727 94.7849 203.26 94.7205 202.599 94.7205H201.536V96.879ZM201.536 100.955H203.066C203.711 100.955 204.194 100.89 204.5 100.729C204.822 100.568 204.983 100.262 204.983 99.7947C204.983 99.3275 204.822 99.0215 204.484 98.8765C204.13 98.7315 203.598 98.651 202.841 98.651H201.536V100.955Z" fill="#A06F4C"/>
<path fill-rule="evenodd" clip-rule="evenodd" d="M217.854 101.47C216.839 102.469 215.583 102.952 214.101 102.952C212.619 102.952 211.362 102.469 210.347 101.47C209.349 100.487 208.833 99.247 208.833 97.7811C208.833 96.3152 209.349 95.0748 210.347 94.0761C211.362 93.0935 212.619 92.5941 214.101 92.5941C215.583 92.5941 216.839 93.0935 217.854 94.0761C218.869 95.0748 219.368 96.2991 219.368 97.7811C219.368 99.2631 218.869 100.487 217.854 101.47ZM217.081 97.7811C217.081 96.8951 216.807 96.1219 216.227 95.4937C215.647 94.8654 214.938 94.5433 214.117 94.5433C213.295 94.5433 212.57 94.8654 211.99 95.4937C211.411 96.1219 211.137 96.8951 211.137 97.7811C211.137 98.6671 211.411 99.4403 211.99 100.069C212.57 100.697 213.279 101.003 214.117 101.003C214.954 101.003 215.647 100.697 216.227 100.069C216.807 99.4403 217.081 98.6832 217.081 97.7811Z" fill="#A06F4C"/>
<path fill-rule="evenodd" clip-rule="evenodd" d="M229.63 96.1541C229.63 97.765 229.001 98.796 227.729 99.2631L230.258 102.855H227.503L225.28 99.6497H223.734V102.855H221.495V92.8196H225.296C226.859 92.8196 227.97 93.0935 228.631 93.609C229.307 94.1405 229.63 94.9943 229.63 96.1541ZM226.939 97.3462C227.213 97.0884 227.358 96.7018 227.358 96.1541C227.358 95.6064 227.213 95.252 226.923 95.0426C226.633 94.8493 226.134 94.7527 225.409 94.7527H223.734V97.7167H225.377C226.134 97.7167 226.65 97.5878 226.939 97.3462Z" fill="#A06F4C"/>
<path fill-rule="evenodd" clip-rule="evenodd" d="M8.23204 54.6743C9.03747 54.2554 9.93956 54.1266 10.9544 54.2877C11.9693 54.4649 12.8713 54.7709 13.6768 55.222C14.4822 55.673 15.3038 56.0757 16.1575 56.4462C17.0113 56.8167 17.6717 56.9617 18.1711 56.8812C19.3309 56.5751 19.9592 56.0596 20.0558 55.3186C20.1525 54.5776 19.782 53.8044 18.9443 52.9829C18.1389 52.258 17.0596 51.7103 15.6743 51.3559C14.2889 51.0015 12.6781 50.631 10.8739 50.2444C9.06971 49.8739 7.52329 49.439 6.25071 48.9557C3.59278 47.8764 1.74024 45.8306 0.677071 42.8183C-0.369993 39.806 -0.208861 36.987 1.17648 34.3451C2.27187 32.396 3.81827 30.5274 5.81574 28.7393C7.82932 26.9513 10.0684 25.4854 12.517 24.3255C14.9816 23.1818 17.4462 22.3925 19.9431 22.0059C22.4238 21.6032 24.824 21.9254 27.1114 22.9402C29.4149 23.9712 31.2674 25.6787 32.6528 28.0789C34.1187 30.6079 34.7308 33.1048 34.4731 35.5694C34.2314 38.034 32.9911 39.6449 30.7359 40.3859C30.0271 40.6436 29.2217 40.6597 28.3518 40.4664C27.4658 40.257 26.7892 40.0315 26.3221 39.7577C25.8549 39.4999 25.1139 39.0328 24.0991 38.3562C22.4721 37.2769 21.1351 37.0675 20.1042 37.728C19.2987 38.2595 19.2182 38.9683 19.8464 39.8382C20.1847 40.257 20.668 40.6758 21.2962 41.0625C22.8748 41.9162 24.5823 42.6411 26.4026 43.221C28.239 43.8009 29.8338 44.1875 31.1869 44.3808C32.54 44.5741 34.0382 44.8963 35.649 45.3474C37.2599 45.7984 38.6775 46.3622 39.9339 47.0227C42.4952 48.5047 45.0404 51.2753 47.5533 55.3025C50.0502 59.3297 51.6771 63.3407 52.402 67.3196C52.9981 70.6219 52.402 73.6986 50.6784 76.5821C48.9387 79.4655 46.619 81.7207 43.6872 83.3638C40.7555 84.9908 37.6143 86.1667 34.2315 86.8755C30.8486 87.5682 27.9168 87.5843 25.4039 86.9077C23.1326 86.3439 20.9096 85.2807 18.7349 83.6699C16.5603 82.0751 14.7077 80.2871 13.1613 78.3057C11.631 76.3082 10.1973 74.198 8.87643 71.9428C7.55552 69.7037 6.62118 67.6418 6.07348 65.757C5.25194 63.373 5.04252 61.1339 5.46135 59.0236C5.86406 56.9295 6.78226 55.4797 8.23204 54.6743Z" fill="#A06F4C"/>
<path fill-rule="evenodd" clip-rule="evenodd" d="M160.233 13.9999C159.299 13.6938 158.896 13.5972 158.429 13.5327C157.157 13.3717 156.335 13.0495 155.626 12.4374L155.739 12.389C155.739 12.389 155.852 12.3407 155.884 12.3407C156.77 12.3407 157.495 12.0507 158.687 11.1809C158.977 10.9554 159.283 10.7943 159.992 10.5043L160.443 10.311C160.556 10.2627 160.652 10.2466 160.894 10.1982L161.103 10.166V9.98884L160.781 9.90829C160.395 9.81164 160.233 9.77942 160.04 9.79553C159.396 9.87607 158.687 10.0049 157.817 10.2144C156.818 10.456 156.013 10.3916 155.111 10.0049C155.755 9.82775 156.287 9.50557 156.738 9.02231C157.044 8.66792 157.269 8.32964 157.72 7.52421C157.882 7.26647 158.075 7.05706 158.558 6.62212L158.832 6.38049C158.929 6.28384 159.025 6.21941 159.267 6.07443L159.476 5.96167C158.832 5.81669 158.22 5.96167 157.592 6.36439C157.366 6.50936 157.173 6.65434 156.754 6.97651L156.4 7.25036C155.723 7.74973 154.95 8.05579 153.919 8.21688L153.999 8.0558C154.032 7.95914 154.048 7.92693 154.08 7.91082C154.708 7.25036 155.03 6.44493 155.224 5.17234C155.272 4.75352 155.401 4.41524 155.755 3.64202C155.916 3.31985 155.981 3.17487 156.045 3.01378C156.061 2.94935 156.094 2.90102 156.174 2.77215L156.303 2.53052L155.965 2.69161C155.707 2.80437 155.626 2.8527 155.562 2.93324L155.24 3.28763C154.579 4.02863 154.322 4.36691 154.08 4.78573C153.693 5.47841 153.242 5.94556 152.163 6.83154L152.002 6.9443C152.018 6.75099 152.05 6.5738 152.099 6.17108C152.244 5.23678 152.26 4.83406 152.179 4.39913C152.147 4.20582 152.099 4.04474 152.018 3.67424C151.696 2.28889 151.68 1.67676 151.937 0.919655C151.551 1.17739 151.422 1.30626 151.358 1.48346L151.277 1.70898C150.955 2.70772 150.842 3.15876 150.778 3.65813C150.665 4.64076 150.294 5.4623 149.634 6.26773C149.65 5.6556 149.521 5.07569 149.199 4.47967C148.99 4.06085 148.764 3.73867 148.168 2.98156L148.055 2.85269C147.878 2.61106 147.765 2.38554 147.588 1.78952C147.508 1.54789 147.459 1.43513 147.427 1.32237C147.395 1.24183 147.363 1.17739 147.33 1.0002L147.298 0.839111C147.298 0.839111 147.137 0.85522 147.057 0.85522L147.008 1.43513C146.96 2.09559 146.944 2.38554 146.992 2.70772C147.008 2.94935 147.057 3.15876 147.202 3.6098C147.347 4.07695 147.411 4.27026 147.427 4.51189C147.459 4.7213 147.475 4.96293 147.475 5.25289L147.443 6.63823C147.443 6.63823 147.314 6.63823 147.266 6.65434L147.202 6.5738C147.202 6.5738 147.105 6.44493 147.089 6.41271C146.734 5.57506 146.106 4.96293 145.059 4.41524C144.592 4.1575 144.141 3.85143 143.738 3.49704C143.577 3.35206 143.448 3.20709 143.19 2.83659L142.965 2.4983C142.852 2.78826 142.836 3.01378 142.917 3.15876L143.11 3.57758C143.513 4.39913 143.706 4.73741 143.996 5.07569C144.608 5.78447 144.995 6.58991 145.413 7.97525H145.317L145.236 7.94303C145.172 7.91082 145.124 7.86249 145.075 7.83027C144.431 7.15371 143.625 6.79932 142.321 6.62212C141.886 6.55769 141.515 6.46104 140.678 6.13886L140.162 5.94556C140.049 5.91334 139.969 5.86502 139.791 5.72004L139.63 5.59117C139.63 5.59117 139.534 5.67171 139.486 5.72004L139.679 6.0261C139.872 6.38049 139.969 6.52547 140.13 6.65434C140.597 7.02484 141.145 7.39534 141.773 7.73362C142.691 8.23299 143.368 8.89345 143.867 9.77942H143.77C143.77 9.77942 143.674 9.81164 143.641 9.79553C142.788 9.34449 141.934 9.34449 140.468 9.7472C140.082 9.84386 139.727 9.87607 138.906 9.85997C138.567 9.84386 138.422 9.84386 138.261 9.84386C138.181 9.84386 138.1 9.84386 137.923 9.81164L137.778 9.77942C137.923 10.0855 138.084 10.2466 138.245 10.2949C138.6 10.4077 138.906 10.5043 139.63 10.6815L140.549 10.9392L143.803 11.8735L143.754 12.083L143.609 12.1152C143.48 12.1313 143.416 12.1313 143.352 12.1313C142.256 12.0185 141.29 12.3729 140.178 13.2589C139.888 13.5005 139.598 13.6455 138.873 13.9355L138.422 14.1127C138.31 14.161 138.197 14.1932 137.939 14.2415L137.714 14.2737V14.4348L138.036 14.5154C138.406 14.6281 138.567 14.6442 138.761 14.6281C139.63 14.5315 140.388 14.4026 141.048 14.2093C141.966 13.9677 142.884 14.0321 144.237 14.467C144.06 14.5798 143.883 14.6603 143.609 14.7409C142.594 15.0147 141.87 15.5785 141.435 16.4323C141 17.2538 140.436 17.866 139.679 18.2848C139.63 18.317 139.582 18.3492 139.469 18.4459L139.34 18.5748C140.339 18.5748 141.177 18.2687 142.014 17.5438L142.208 17.3827C142.675 16.98 142.884 16.8189 143.126 16.6578C143.819 16.2229 144.544 16.094 145.317 16.2712C144.399 16.69 143.867 17.4794 143.754 18.6714C143.641 19.944 143.303 20.8944 142.691 21.6998C142.691 21.6998 142.702 21.7213 142.723 21.7643L142.756 21.8126C143.464 21.5387 144.028 21.0394 144.479 20.2823L144.769 19.8151C145.156 19.1547 145.333 18.8647 145.558 18.5586C145.913 18.0271 146.444 17.6888 147.218 17.4794L147.105 17.7693C147.024 17.9626 146.992 18.0432 146.944 18.1237C146.541 18.9453 146.493 19.7668 146.799 20.5883C147.153 21.5065 147.202 22.4086 146.928 23.3107C146.912 23.359 146.912 23.3912 146.928 23.4879V23.5684C146.928 23.5684 147.057 23.6007 147.121 23.6329L147.363 23.1657C147.669 22.6019 147.798 22.3603 147.894 22.0542C147.991 21.7965 148.039 21.5387 148.087 20.9427V20.7816C148.168 19.7829 148.587 18.8647 149.425 17.8338C149.489 18.011 149.489 18.1398 149.457 18.2687C149.231 19.058 149.425 19.8312 150.037 20.5722C151.1 21.8448 151.503 22.618 151.599 23.6168C151.841 23.2463 151.889 23.1013 151.889 22.9402L151.857 22.5536C151.793 21.5387 151.728 21.1199 151.583 20.6367C151.341 19.799 151.309 18.9291 151.486 17.721L151.599 17.8499C151.696 17.9304 151.712 17.9626 151.728 17.9948C152.131 18.8325 152.775 19.4446 153.999 20.1212C154.322 20.2984 154.579 20.5078 155.127 21.0716C155.352 21.281 155.449 21.3777 155.562 21.4743C155.626 21.5387 155.675 21.6032 155.787 21.7482L155.868 21.8931C155.997 21.0877 155.771 20.4111 155.046 19.4768C154.579 18.8969 154.144 18.2365 153.677 17.4955C153.597 17.3666 153.564 17.2377 153.5 16.8672C153.468 16.6578 153.436 16.5451 153.419 16.4162C153.548 16.5128 153.661 16.5934 153.887 16.7706C154.289 17.0766 154.45 17.1733 154.644 17.2538C154.934 17.3666 155.208 17.431 155.82 17.576C156.19 17.6727 156.351 17.721 156.528 17.7693C157.608 18.0915 157.35 18.011 158.429 18.3331L159.283 18.607C159.058 17.9787 158.526 17.431 157.64 16.9478L157.221 16.7223C156.706 16.4484 156.48 16.3195 156.255 16.1262C156.013 15.9329 155.836 15.7235 155.433 15.2403L155.095 14.8214C155.095 14.8214 155.175 14.7087 155.224 14.6603C156.174 15.0631 157.157 15.047 158.542 14.6281C158.864 14.5315 159.154 14.4993 159.847 14.5154H160.201C160.362 14.5154 160.491 14.5315 160.813 14.5959L161.071 14.6442C160.942 14.3543 160.781 14.1771 160.62 14.1288L160.233 13.9999ZM149.408 16.7384C146.944 16.7384 144.946 14.7409 144.946 12.2763C144.946 12.0185 144.962 11.7608 145.011 11.5192C145.027 11.3903 145.059 11.2614 145.075 11.1809C145.124 10.9715 145.188 10.7943 145.252 10.6171C145.252 10.6171 145.268 10.6171 145.268 10.601C145.43 10.2144 145.639 9.85996 145.897 9.53779C145.881 9.53779 145.864 9.53779 145.848 9.5539C146.702 8.42629 148.007 7.78195 149.408 7.78195C150.81 7.78195 152.034 8.39408 152.888 9.45725C152.952 9.5539 153.033 9.65055 153.097 9.7472C153.484 10.311 153.726 10.9554 153.822 11.648C153.838 11.7286 153.838 11.8091 153.854 11.8897C153.871 12.0346 153.871 12.1474 153.871 12.2763C153.871 14.7409 151.873 16.7384 149.408 16.7384Z" fill="#A06F4C"/>
<path fill-rule="evenodd" clip-rule="evenodd" d="M69.7672 65.3543C69.7189 64.4844 69.3645 63.3407 68.6557 61.8909C67.963 60.4573 67.3026 59.0558 66.6904 57.7188C66.0783 56.3657 65.6433 54.5454 65.4178 52.2419C65.3051 51.0337 65.4178 49.3423 65.7883 47.1998C66.1588 45.0574 66.1589 43.1888 65.7561 41.6101C65.4018 40.1604 64.8218 39.0005 64.0164 38.1307C63.2109 37.2608 62.325 36.7292 61.3746 36.5359C60.4403 36.3426 59.4576 36.3748 58.4428 36.6164C57.4279 36.842 56.5098 37.2769 55.6721 37.8729C54.8506 38.4851 54.174 39.2261 53.6585 40.1281C53.1269 41.0141 52.8853 41.9323 52.9014 42.8666C52.982 44.3325 53.2236 45.4923 53.6424 46.3622C54.0612 47.216 54.4962 48.118 54.9633 49.0684C55.4466 50.0189 55.6882 50.776 55.7204 51.3398C55.7204 52.3224 55.4305 53.0956 54.8505 53.6433C54.2545 54.191 53.5619 54.4165 52.7242 54.3199C51.9027 54.2071 51.1939 53.8044 50.5818 53.0956C50.0502 52.3707 49.583 51.1304 49.1964 49.3423C48.8098 47.5542 48.6326 46.0883 48.6809 44.9285C48.6648 43.672 48.4232 42.6572 47.956 41.8357C47.4889 41.0141 46.8123 40.4664 45.9103 40.1604C45.0082 39.8543 44.09 39.7415 43.1234 39.806C42.1569 39.8704 41.1743 40.1765 40.1756 40.6919C39.1768 41.2074 38.323 41.9162 37.6304 42.7861C37.5337 42.8988 37.4532 43.0116 37.3727 43.1244C38.7741 43.5754 40.0628 44.107 41.1743 44.7191L41.2388 44.7513C44.2189 46.475 47.0056 49.4712 49.7763 53.901C52.4343 58.186 54.1901 62.5353 54.9794 66.8363C55.6399 70.4769 55.0922 73.9241 53.3686 77.1459C55.1405 77.2908 56.9769 77.1459 58.8455 76.7109C60.9074 76.2277 62.7599 75.4544 64.403 74.4074C66.0461 73.3442 67.367 72.0233 68.3819 70.4124C69.3967 68.8016 69.8638 67.1263 69.7672 65.3543Z" fill="#A06F4C"/>
<path fill-rule="evenodd" clip-rule="evenodd" d="M104.352 67.4002C104.03 66.3209 103.209 64.4845 101.856 61.9232C100.502 59.3619 99.6166 57.3967 99.1816 56.0596C98.6662 54.191 98.3279 52.5641 98.1829 51.1465C98.0379 49.7289 98.054 48.2308 98.215 46.6361C98.3761 45.0252 98.6017 43.656 98.8433 42.5123C99.1011 41.3685 99.3588 40.1121 99.6005 38.7428C99.8421 37.3736 99.9548 36.2299 99.9387 35.2956C99.9709 34.4418 99.9065 33.6686 99.7132 32.9759C99.1011 30.3985 97.4097 28.981 94.6712 28.7393C92.0938 28.5138 89.6775 29.3031 87.4223 31.1234C84.9094 33.1209 83.9106 35.4728 84.3939 38.1951C84.5711 39.1778 84.9416 40.4665 85.5054 42.0773C86.0531 43.7043 86.3752 44.6225 86.4557 44.848C86.7296 45.9756 86.5686 46.7166 85.9242 47.0388C85.6665 47.1677 85.4087 47.2482 85.1832 47.3126C84.9416 47.361 84.716 47.361 84.4744 47.2965C84.2489 47.216 84.0394 47.1516 83.8461 47.0549C83.6367 46.9583 83.4274 46.7972 83.1857 46.5716C82.9602 46.3461 82.7508 46.1367 82.5897 45.9595C82.4286 45.7823 82.2192 45.5085 81.9776 45.138C81.7521 44.7836 81.5587 44.4775 81.4298 44.2198C81.2849 43.9781 81.1077 43.6399 80.8822 43.1888C80.6567 42.7378 80.4633 42.3834 80.3345 42.1418C80.1895 41.9001 80.0123 41.5457 79.7867 41.0464C79.5451 40.5953 79.3841 40.257 79.2552 40.0315C78.192 38.0179 76.9195 36.4715 75.4375 35.4244C73.9555 34.3774 72.4895 33.878 71.0397 33.9586C69.6061 34.023 68.2369 34.3774 66.9643 35.0378C66.4649 35.2956 65.9978 35.6177 65.595 35.9882C65.7078 36.101 65.8206 36.2299 65.9333 36.3426C67.0448 37.5347 67.8342 39.0811 68.3174 40.9497C68.8007 42.915 68.8168 45.1541 68.3819 47.6509C68.0597 49.5356 67.9308 51.0499 68.0275 52.0164C68.2369 53.9816 68.5913 55.5442 69.0745 56.6234C69.6383 57.8477 70.2665 59.1847 71.0397 60.7634C71.8935 62.5353 72.3446 64.0012 72.409 65.2416C72.5218 67.529 71.9258 69.752 70.6049 71.8139C69.3967 73.7309 67.7858 75.3578 65.8205 76.6143C65.7078 76.6949 65.5789 76.7593 65.4501 76.8237C65.5628 77.2587 65.7078 77.6614 65.9011 78.0158C67.077 80.271 69.3322 81.5436 72.6506 81.8335C75.9529 82.1396 78.7719 81.4469 81.1077 79.7716C83.8461 77.8064 84.6516 75.2451 83.4918 72.1039C83.2341 71.379 82.8314 70.3158 82.2998 68.9144C81.7682 67.5129 81.3654 66.4175 81.0594 65.6121C80.7533 64.8067 80.4311 63.9046 80.0445 62.8897C79.674 61.8749 79.4001 60.9889 79.2068 60.2318C79.0135 59.4747 78.8847 58.8142 78.8041 58.2665C78.7558 58.0249 78.7236 57.7994 78.7075 57.6061C78.6108 56.414 78.8847 55.8825 79.5613 56.0274C80.5278 56.3013 81.6554 57.6061 82.9279 59.9579C83.5884 61.15 84.1522 62.3742 84.6193 63.6468C85.0865 64.9033 85.5859 66.4497 86.1175 68.27C86.633 70.0903 87.0518 71.4595 87.3578 72.3777C88.0505 74.4235 89.3231 75.9539 91.1434 76.9687C92.9637 77.9997 95.3155 78.2252 98.1668 77.6453C100.567 77.162 102.419 76.0022 103.708 74.1497C105.013 72.2972 105.238 70.0581 104.352 67.4002Z" fill="#A06F4C"/>
<path fill-rule="evenodd" clip-rule="evenodd" d="M277.166 54.9803C276.796 51.5009 276.007 48.4402 274.798 45.7984C273.494 42.9633 271.335 40.6275 268.29 38.775C265.262 36.9225 262.089 35.7788 258.802 35.36C255.5 34.925 252.633 35.1989 250.2 36.1493C248.767 36.7131 247.687 37.7119 246.963 39.1616C246.383 40.2731 245.899 41.6907 245.497 43.4304C246.173 44.2842 246.705 45.2024 247.108 46.2011C248.026 48.5047 247.977 50.8726 246.946 53.2728C245.867 55.818 244.031 57.6061 241.663 58.4276C241.228 58.5726 240.793 58.6853 240.342 58.7498C240.277 58.8625 240.213 58.9914 240.149 59.1203C240.181 59.1847 240.213 59.2491 240.245 59.3136C240.729 60.6345 240.841 62.052 240.535 63.534C240.245 65.0322 239.585 66.3208 238.586 67.3679C238.522 67.4485 238.441 67.529 238.36 67.5934C239.601 68.5599 240.406 70.0419 240.761 71.975C241.163 74.1335 240.97 76.4693 240.197 78.9178C239.649 80.5287 238.812 81.9301 237.684 83.1061C238.377 83.7665 239.118 84.3948 239.955 84.9586C242.629 86.8111 245.787 88.132 249.411 88.9374C253.019 89.7267 256.338 89.7428 259.35 88.9857C262.54 88.1803 265.391 86.5855 267.888 84.1854C270.385 81.7852 272.318 78.9823 273.719 75.7766C275.104 72.5549 276.119 69.156 276.747 65.5798C277.392 61.9554 277.537 58.4276 277.166 54.9803ZM263.393 57.1872C262.894 58.3471 262.056 59.233 260.88 59.8452C259.705 60.4573 258.367 60.5056 256.885 60.0224C255.983 59.7163 255.484 58.9592 255.371 57.7027C255.258 56.4623 255.436 55.1898 255.887 53.8688C256.354 52.5479 256.853 51.3398 257.401 50.2444C258.142 48.8752 259.06 48.2147 260.156 48.2469C261.267 48.2791 262.33 49.004 263.377 50.4377C263.925 51.227 264.183 52.2741 264.167 53.5467C264.151 54.8193 263.893 56.0274 263.393 57.1872Z" fill="#A06F4C"/>
<path fill-rule="evenodd" clip-rule="evenodd" d="M244.675 47.1838C244.015 45.5568 242.887 44.1875 241.276 43.1083C239.665 42.029 237.829 41.143 235.799 40.4503C233.754 39.7738 231.627 39.4355 229.388 39.4355C227.149 39.4355 225.184 39.8221 223.476 40.5792C222.123 41.1591 220.995 42.0451 220.093 43.2694C219.755 45.2185 218.998 46.9099 217.87 48.3275C217.613 49.6484 217.323 51.2754 217.017 53.2245C216.743 54.9481 216.453 56.3657 216.147 57.4611C216.566 59.4424 216.614 61.7299 216.292 64.42C215.857 68.0928 214.826 71.379 213.215 74.2141C212.587 75.3095 211.813 76.2921 210.879 77.1459C212.071 79.3205 214.214 81.1086 217.307 82.5101C221.35 84.3626 225.409 84.9425 229.485 84.282C233.802 83.5732 236.524 81.5274 237.684 78.1285C238.328 76.0827 238.506 74.1819 238.183 72.4422C237.861 70.7024 237.088 69.607 235.832 69.1721C234.833 68.8177 233.625 68.8338 232.207 69.2204C230.773 69.5909 229.775 69.7681 229.195 69.752C227.906 69.6876 226.666 69.301 225.474 68.56C224.813 68.125 224.41 67.4485 224.233 66.5464C224.072 65.6443 224.201 64.8227 224.636 64.0817C225.055 63.3569 225.699 63.0186 226.553 63.0991C226.891 63.1152 227.246 63.2441 227.616 63.4535C227.987 63.679 228.438 64.0173 228.953 64.4845C229.485 64.9355 229.952 65.2899 230.338 65.5476C231.756 66.4658 232.996 66.8685 234.076 66.7558C235.155 66.643 236.025 66.2403 236.685 65.5637C237.33 64.8711 237.765 64.0334 237.958 63.0347C238.167 62.0198 238.103 61.1016 237.781 60.2479C237.394 59.2169 236.862 58.5082 236.218 58.1376C235.558 57.7833 234.656 57.5255 233.48 57.3967C232.32 57.2678 231.45 57.1067 230.87 56.9295C229.356 56.3657 228.486 55.5764 228.277 54.5293C228.083 53.4984 228.647 52.8057 229.984 52.4352C230.274 52.3707 230.564 52.3385 230.838 52.3546C231.112 52.3546 231.353 52.3707 231.547 52.3707C231.74 52.3707 231.982 52.4191 232.272 52.5318C232.545 52.6446 232.755 52.7251 232.9 52.7896C233.029 52.854 233.238 52.9829 233.528 53.1762C233.802 53.3534 233.979 53.4984 234.076 53.5789C234.156 53.6755 234.366 53.8366 234.688 54.0783C235.01 54.3199 235.219 54.4649 235.316 54.5454C237.281 56.0757 239.102 56.5429 240.793 55.9469C242.484 55.3509 243.725 54.1266 244.53 52.2419C245.271 50.5021 245.32 48.8107 244.675 47.1838Z" fill="#A06F4C"/>
<path fill-rule="evenodd" clip-rule="evenodd" d="M216.694 37.1642C215.792 35.6016 214.504 34.3774 212.812 33.5075C211.137 32.6376 209.268 31.9772 207.255 31.5584C205.225 31.1234 203.179 30.9623 201.133 31.0751C199.071 31.204 197.251 31.5584 195.689 32.1705C193.595 33.0243 192.161 34.5224 191.372 36.6648C190.582 38.8073 190.727 40.7564 191.823 42.5284C192.354 43.3499 193.079 44.252 193.997 45.2507C194.899 46.2656 195.689 47.1677 196.349 47.9731C197.026 48.7785 197.412 49.5518 197.557 50.3089C197.67 51.1304 197.525 51.7264 197.122 52.0969C196.72 52.4674 196.091 52.4835 195.254 52.1452C194.916 51.9681 194.577 51.5975 194.239 51.0176C193.901 50.4377 193.595 49.8578 193.321 49.2457C193.047 48.6497 192.66 48.0698 192.113 47.5382C191.581 47.0066 190.985 46.6844 190.308 46.5555C189.68 46.475 189.052 46.5394 188.44 46.7488C189.261 49.0685 189.632 51.8875 189.567 55.3509C189.487 59.4908 188.746 63.2924 187.361 66.6108C186.684 68.27 185.75 69.6876 184.558 70.8796C184.815 71.2823 185.089 71.669 185.379 72.0233C186.571 73.4892 188.359 74.7618 190.727 75.8572C193.095 76.9365 195.544 77.6614 198.073 78.0319C200.618 78.4024 203.099 78.1607 205.499 77.3231C207.915 76.4854 209.719 75.0196 210.911 72.9254C212.361 70.3803 213.296 67.4485 213.682 64.114C214.085 60.7634 213.859 58.1216 213.022 56.1724C212.587 55.2542 211.991 54.3199 211.234 53.3695C210.476 52.403 209.735 51.5814 208.994 50.8727C208.27 50.18 207.496 49.2618 206.675 48.1342C205.837 47.0227 205.161 45.879 204.613 44.703C204.42 44.2198 204.323 43.7687 204.323 43.3821C204.355 42.625 204.742 42.2706 205.467 42.3351C206.401 42.4156 207.11 43.1083 207.577 44.4292C207.883 45.2346 208.108 45.8306 208.253 46.185C208.414 46.5233 208.705 46.9583 209.139 47.4576C209.574 47.957 210.074 48.2953 210.621 48.4725C212.329 49.0363 213.843 48.6819 215.148 47.4093C216.469 46.1528 217.29 44.4936 217.597 42.4478C217.903 40.4987 217.597 38.7428 216.694 37.1642Z" fill="#A06F4C"/>
<path fill-rule="evenodd" clip-rule="evenodd" d="M176.02 31.2523C177.019 31.2523 177.824 31.9772 178.452 33.427C178.855 34.329 179.145 34.9734 179.355 35.3761C179.548 35.7627 179.902 36.2138 180.418 36.7453C180.933 37.2608 181.481 37.5991 182.077 37.7602C183.929 38.2273 185.492 37.6796 186.748 36.1171C188.005 34.5546 188.698 32.5732 188.81 30.2052C188.923 27.9661 188.424 26.0009 187.312 24.2772C186.201 22.5697 184.703 21.2971 182.834 20.4756C180.981 19.6379 178.952 19.0741 176.777 18.7842C174.586 18.4781 172.428 18.4942 170.269 18.8325C168.111 19.1708 166.242 19.7507 164.647 20.5883C162.537 21.7804 161.168 23.6168 160.556 26.1458C159.944 28.6588 160.314 30.8657 161.635 32.7665C162.295 33.6686 163.149 34.6351 164.212 35.6822C165.276 36.7453 166.21 37.6958 166.999 38.5495C167.772 39.4033 168.272 40.257 168.497 41.1108C168.707 42.029 168.626 42.7378 168.24 43.1888C167.837 43.656 167.176 43.7365 166.258 43.4143C165.888 43.2532 165.485 42.8666 165.082 42.2384C164.663 41.6102 164.277 40.9658 163.939 40.3054C163.584 39.6449 163.101 39.0328 162.489 38.4851C161.989 38.034 161.474 37.7441 160.91 37.6152C160.813 38.0663 160.701 38.5334 160.556 39.0006C160.121 40.4825 159.541 42.0451 158.832 43.656C158.284 44.9447 157.898 45.9273 157.785 46.4266C157.559 47.361 157.495 48.1986 157.576 48.8268C157.688 49.7128 157.914 50.6793 158.236 51.7103C158.59 52.8379 158.945 53.8689 159.315 54.7709C159.815 56.0274 160.201 57.4128 160.459 58.8948C160.733 60.5701 160.717 62.2131 160.395 63.7757C160.153 65.1932 159.476 66.4819 158.429 67.5612C159.799 68.8821 161.635 70.0097 163.955 70.8957C166.564 71.9106 169.222 72.5066 171.928 72.6838C174.651 72.861 177.228 72.3455 179.677 71.1535C182.141 69.9775 183.881 68.125 184.928 65.6121C186.201 62.5836 186.861 59.1525 186.942 55.3025C187.006 51.4526 186.491 48.4563 185.411 46.3139C184.848 45.3152 184.123 44.3003 183.237 43.2855C182.335 42.2545 181.465 41.3846 180.627 40.6597C179.789 39.9187 178.871 38.9522 177.889 37.7602C176.89 36.5681 176.052 35.3117 175.36 34.0391C175.102 33.4914 174.957 33.0081 174.909 32.5732C174.876 31.6872 175.231 31.2523 176.02 31.2523Z" fill="#A06F4C"/>
<path fill-rule="evenodd" clip-rule="evenodd" d="M156.432 42.6089C157.076 41.1108 157.624 39.6288 158.043 38.2434C158.478 36.7936 158.639 35.4244 158.542 34.2162C158.445 32.5893 157.962 31.1395 157.108 29.8991C156.255 28.6749 155.191 27.7567 153.967 27.1445C152.775 26.5807 151.47 26.2263 150.085 26.1297C149.827 26.1136 149.57 26.1136 149.312 26.1136C148.2 26.1136 147.121 26.2747 146.106 26.613L145.913 26.6935L145.8 26.7257C146.251 28.3044 146.428 29.9797 146.332 31.7516C146.251 34.2968 145.397 36.7131 143.787 38.92C143.287 39.5965 142.756 40.2248 142.176 40.8208C142.272 41.0785 142.385 41.3524 142.498 41.6262C142.836 42.4961 143.013 43.2049 143.062 43.7204C143.094 44.4614 142.997 45.3796 142.756 46.4427H142.772C143.432 46.6199 144.157 46.9099 145.011 47.3448C145.945 47.812 146.863 48.4885 147.733 49.3423C149.102 50.6793 150.182 52.4835 150.907 54.6581C151.583 56.6878 151.954 58.8464 152.018 61.1016C152.099 63.3568 151.809 65.6443 151.164 67.8995C151.164 67.9317 151.148 67.98 151.132 68.0122C151.18 68.0122 151.229 67.9961 151.277 67.9961C152.856 67.8511 154.273 67.384 155.465 66.6108C156.77 65.7731 157.575 64.6294 157.817 63.2602C158.075 62.0037 158.091 60.6828 157.865 59.3297C157.64 58.0249 157.318 56.8328 156.883 55.7535C156.496 54.787 156.094 53.6916 155.723 52.4835C155.353 51.3075 155.095 50.196 154.966 49.1812C154.837 48.2147 154.934 47.071 155.24 45.7662C155.401 45.1057 155.804 44.0586 156.432 42.6089Z" fill="#A06F4C"/>
<path fill-rule="evenodd" clip-rule="evenodd" d="M148.41 55.4958C147.814 53.6917 146.976 52.2741 145.881 51.2109C145.204 50.5505 144.511 50.035 143.835 49.6967C143.142 49.3423 142.562 49.1168 142.079 48.9879C141.596 48.8591 141 48.9074 140.291 49.1651C139.582 49.4229 139.083 49.6323 138.825 49.7934C138.551 49.9545 138.003 50.2927 137.182 50.8243C136.344 51.372 135.813 51.6942 135.571 51.807C133.912 52.7735 132.365 53.1762 130.948 53.0473C129.514 52.9024 128.628 52.3869 128.29 51.5009C127.227 48.7624 130.094 45.4601 136.86 41.6424C138.761 40.5631 140.371 39.1294 141.66 37.3575C142.965 35.5855 143.658 33.6686 143.738 31.6228C143.851 28.8199 143.239 26.4358 141.918 24.4706C140.581 22.5053 138.954 21.2005 137.037 20.5723C135.12 19.9279 133.106 19.8151 130.996 20.2501C128.902 20.685 127.178 21.6676 125.841 23.1658C124.843 24.4061 124.198 26.0653 123.876 28.1433C123.57 30.2375 123.28 32.5249 123.006 35.0378C122.732 37.5347 122.136 39.6771 121.202 41.4652C120.429 42.9472 119.543 43.5915 118.528 43.4143C117.529 43.2372 116.933 42.319 116.772 40.6759C116.66 39.2422 116.837 36.7937 117.32 33.3625C117.803 29.9314 118.061 28.0789 118.109 27.8373C118.27 24.7283 117.272 22.3925 115.113 20.8461C114.098 20.1373 112.842 19.6541 111.392 19.3963C109.926 19.1225 108.428 19.1064 106.898 19.348C105.367 19.5896 103.853 20.0568 102.387 20.7333C100.921 21.426 99.681 22.3442 98.6823 23.504C97.9413 24.39 97.3613 25.3887 96.9586 26.5164C99.7132 27.3701 101.566 29.3837 102.274 32.3477C102.5 33.2498 102.613 34.2646 102.564 35.3278C102.581 36.4232 102.452 37.6797 102.178 39.1939C101.936 40.5631 101.614 42.2223 101.421 43.0761C100.454 47.2482 100.567 51.7425 101.695 55.2864C102.033 56.3496 102.967 58.3632 104.191 60.6989C105.625 63.4535 106.479 65.3382 106.865 66.6108C107.977 70.0259 107.639 73.151 105.867 75.6639C105.19 76.6143 104.417 77.4197 103.531 78.0963C104.256 78.644 105.029 79.095 105.851 79.4172C107.896 80.2549 109.91 80.577 111.875 80.3676C113.841 80.1582 115.612 79.3689 117.207 78.0158C118.786 76.6465 119.736 74.8907 120.058 72.7321C120.316 71.8139 120.365 70.8152 120.22 69.7359C120.075 68.6405 119.946 67.8351 119.833 67.3518C119.704 66.8525 119.495 66.1759 119.189 65.3221C118.866 64.4523 118.657 63.7757 118.544 63.2924C118.238 62.2454 118.158 61.3433 118.27 60.5701C118.383 59.7808 118.673 59.2814 119.108 59.072C119.398 58.9592 119.72 58.9592 120.075 59.072C120.429 59.1847 120.816 59.5069 121.251 60.0707C121.669 60.6184 122.024 61.4399 122.298 62.5353C122.797 64.4039 123.232 65.9343 123.635 67.1102C124.037 68.3022 124.569 69.5587 125.245 70.9118C125.938 72.2489 126.679 73.2959 127.485 74.0691C128.29 74.8263 129.321 75.5028 130.594 76.0666C131.866 76.6465 133.332 77.017 134.991 77.1942C137.44 77.3875 139.63 77.0492 141.564 76.1794C143.497 75.2934 145.027 74.0853 146.122 72.5388C147.234 70.9924 148.071 69.2204 148.635 67.1907C149.199 65.1772 149.457 63.1636 149.392 61.1822C149.344 59.1847 149.006 57.2839 148.41 55.4958Z" fill="#A06F4C"/>
</svg>
