<svg width="65" height="65" viewBox="0 0 65 65" fill="none" xmlns="http://www.w3.org/2000/svg">
<g clip-path="url(#clip0_269_7281)">
<path d="M52.9876 33.3023C52.9876 31.5406 52.8446 30.255 52.5352 28.9219H32.4185V36.8733H44.2266C43.9886 38.8493 42.703 41.8252 39.8461 43.8248L39.8061 44.091L46.1666 49.0185L46.6073 49.0625C50.6544 45.3247 52.9876 39.8253 52.9876 33.3023Z" fill="#4285F4"/>
<path d="M32.4186 54.2524C38.2036 54.2524 43.0601 52.3477 46.6074 49.0625L39.8463 43.8249C38.037 45.0866 35.6086 45.9675 32.4186 45.9675C26.7526 45.9675 21.9436 42.2299 20.2294 37.0638L19.9781 37.0852L13.3643 42.2037L13.2778 42.4441C16.8012 49.4432 24.0385 54.2524 32.4186 54.2524Z" fill="#34A853"/>
<path d="M20.2291 37.0638C19.7768 35.7306 19.515 34.3021 19.515 32.8261C19.515 31.35 19.7768 29.9217 20.2053 28.5885L20.1934 28.3046L13.4967 23.1039L13.2776 23.2081C11.8254 26.1126 10.9922 29.3742 10.9922 32.8261C10.9922 36.2781 11.8254 39.5396 13.2776 42.444L20.2291 37.0638Z" fill="#FBBC05"/>
<path d="M32.4186 19.6847C36.4419 19.6847 39.1558 21.4226 40.7033 22.875L46.7502 16.9708C43.0365 13.5188 38.2036 11.4 32.4186 11.4C24.0385 11.4 16.8012 16.209 13.2778 23.2081L20.2056 28.5885C21.9436 23.4225 26.7526 19.6847 32.4186 19.6847Z" fill="#EB4335"/>
</g>
<defs>
<clipPath id="clip0_269_7281">
<rect width="43" height="43" fill="white" transform="translate(10.5 11.4)"/>
</clipPath>
</defs>
</svg>
