<svg width="1210" height="591" viewBox="0 0 1210 591" fill="none" xmlns="http://www.w3.org/2000/svg">
<g clip-path="url(#clip0_186_5294)">
<rect x="5" y="5" width="1200" height="581" fill="#A06F4C"/>
<circle cx="1122.43" cy="-227.792" r="200" transform="rotate(15.9342 1122.43 -227.792)" fill="url(#paint0_radial_186_5294)" stroke="#EFD8B1" stroke-width="5"/>
<circle cx="1122.43" cy="-227.792" r="232.5" transform="rotate(15.9342 1122.43 -227.792)" stroke="#EFD8B1" stroke-width="5"/>
<circle cx="1122.43" cy="-227.792" r="252.5" transform="rotate(15.9342 1122.43 -227.792)" fill="url(#paint1_radial_186_5294)" stroke="#EFD8B1" stroke-width="5"/>
<circle cx="22.5" cy="22.5" r="21.5" transform="matrix(-0.961578 -0.274533 -0.274533 0.961578 1242.13 92.3722)" fill="#EFD8B1" stroke="#EFD8B1" stroke-width="2"/>
<circle cx="28.5" cy="28.5" r="27.5" transform="matrix(-0.961578 -0.274533 -0.274533 0.961578 1249.55 88.2499)" stroke="#EFD8B1" stroke-width="2"/>
<circle cx="39.5" cy="39.5" r="38.5" transform="matrix(-0.961578 -0.274533 -0.274533 0.961578 1263.15 80.6924)" stroke="#EFD8B1" stroke-width="2"/>
<circle cx="46.5" cy="46.5" r="45.5" transform="matrix(-0.961578 -0.274533 -0.274533 0.961578 1271.8 75.8831)" stroke="#EFD8B1" stroke-width="2"/>
<circle cx="57.5" cy="57.5" r="56.5" transform="matrix(-0.961578 -0.274533 -0.274533 0.961578 1285.4 68.3256)" fill="url(#paint2_radial_186_5294)" stroke="#EFD8B1" stroke-width="2"/>
<circle cx="63.5" cy="63.5" r="62.5" transform="matrix(-0.961578 -0.274533 -0.274533 0.961578 1292.82 64.2033)" stroke="#EFD8B1" stroke-width="2"/>
<circle cx="75.5" cy="75.5" r="74.5" transform="matrix(-0.961578 -0.274533 -0.274533 0.961578 1307.65 55.9588)" fill="url(#paint3_radial_186_5294)" stroke="#EFD8B1" stroke-width="2"/>
<circle cx="81.5" cy="81.5" r="80.5" transform="matrix(-0.961578 -0.274533 -0.274533 0.961578 1315.07 51.8365)" stroke="#EFD8B1" stroke-width="2"/>
<circle cx="973.952" cy="162.959" r="43" transform="rotate(15.9342 973.952 162.959)" stroke="#EFD8B1" stroke-width="3"/>
<circle cx="973.952" cy="162.959" r="53" transform="rotate(15.9342 973.952 162.959)" fill="url(#paint4_radial_186_5294)" stroke="#EFD8B1" stroke-width="3"/>
<circle cx="973.952" cy="162.959" r="76" transform="rotate(15.9342 973.952 162.959)" fill="url(#paint5_radial_186_5294)" stroke="#EFD8B1" stroke-width="3"/>
<circle cx="973.952" cy="162.959" r="89" transform="rotate(15.9342 973.952 162.959)" stroke="#EFD8B1" stroke-width="3"/>
<circle cx="973.952" cy="162.959" r="111" transform="rotate(15.9342 973.952 162.959)" stroke="#EFD8B1" stroke-width="3"/>
<circle cx="973.952" cy="162.959" r="123" transform="rotate(15.9342 973.952 162.959)" fill="url(#paint6_radial_186_5294)" stroke="#EFD8B1" stroke-width="3"/>
<circle cx="973.952" cy="162.959" r="145" transform="rotate(15.9342 973.952 162.959)" stroke="#EFD8B1" stroke-width="3"/>
<circle cx="973.952" cy="162.959" r="157" transform="rotate(15.9342 973.952 162.959)" stroke="#EFD8B1" stroke-width="3"/>
<circle cx="1216.56" cy="311.261" r="28.6569" transform="rotate(15.9342 1216.56 311.261)" stroke="#EFD8B1" stroke-width="5"/>
<circle cx="1216.56" cy="311.261" r="37.5588" transform="rotate(15.9342 1216.56 311.261)" stroke="#EFD8B1" stroke-width="5"/>
<circle cx="1216.56" cy="311.261" r="55.6373" transform="rotate(15.9342 1216.56 311.261)" fill="url(#paint7_radial_186_5294)" stroke="#EFD8B1" stroke-width="5"/>
<circle cx="1216.56" cy="311.261" r="62.0392" transform="rotate(15.9342 1216.56 311.261)" stroke="#EFD8B1" stroke-width="5"/>
<circle cx="1216.56" cy="311.261" r="77.6177" transform="rotate(15.9342 1216.56 311.261)" stroke="#EFD8B1" stroke-width="5"/>
<circle cx="1216.56" cy="311.261" r="89.0196" transform="rotate(15.9342 1216.56 311.261)" fill="url(#paint8_radial_186_5294)" stroke="#EFD8B1" stroke-width="5"/>
<circle cx="1216.56" cy="311.261" r="102.098" transform="rotate(15.9342 1216.56 311.261)" stroke="#EFD8B1" stroke-width="5"/>
<circle cx="1216.56" cy="311.261" r="111" transform="rotate(15.9342 1216.56 311.261)" fill="url(#paint9_radial_186_5294)" stroke="#EFD8B1" stroke-width="5"/>
<circle cx="65.2178" cy="65.2178" r="64.2178" transform="matrix(-0.961578 -0.274533 -0.274533 0.961578 780.903 -103.494)" stroke="#EFD8B1" stroke-width="2"/>
<circle cx="90.3896" cy="90.3896" r="89.3896" transform="matrix(-0.961578 -0.274533 -0.274533 0.961578 812.018 -120.789)" stroke="#EFD8B1" stroke-width="2"/>
<circle cx="106.408" cy="106.408" r="105.408" transform="matrix(-0.961578 -0.274533 -0.274533 0.961578 831.818 -131.794)" stroke="#EFD8B1" stroke-width="2"/>
<circle cx="131.58" cy="131.58" r="130.58" transform="matrix(-0.961578 -0.274533 -0.274533 0.961578 862.934 -149.088)" fill="url(#paint10_radial_186_5294)" stroke="#EFD8B1" stroke-width="2"/>
<circle cx="145.31" cy="145.31" r="144.31" transform="matrix(-0.961578 -0.274533 -0.274533 0.961578 879.906 -158.521)" stroke="#EFD8B1" stroke-width="2"/>
<circle cx="172.77" cy="172.77" r="171.77" transform="matrix(-0.961578 -0.274533 -0.274533 0.961578 913.849 -177.388)" fill="url(#paint11_radial_186_5294)" stroke="#EFD8B1" stroke-width="2"/>
<circle cx="186.5" cy="186.5" r="185.5" transform="matrix(-0.961578 -0.274533 -0.274533 0.961578 930.821 -186.821)" stroke="#EFD8B1" stroke-width="2"/>
<circle cx="113.017" cy="366.633" r="67.5" transform="rotate(23.7886 113.017 366.633)" stroke="#EFD8B1" stroke-width="5"/>
<circle cx="113.017" cy="366.633" r="87.5" transform="rotate(23.7886 113.017 366.633)" stroke="#EFD8B1" stroke-width="5"/>
<circle cx="113.017" cy="366.633" r="125" transform="rotate(23.7886 113.017 366.633)" fill="url(#paint12_radial_186_5294)" stroke="#EFD8B1" stroke-width="5"/>
<circle cx="113.017" cy="366.633" r="142.5" transform="rotate(23.7886 113.017 366.633)" stroke="#EFD8B1" stroke-width="5"/>
<circle cx="113.017" cy="366.633" r="177.5" transform="rotate(23.7886 113.017 366.633)" stroke="#EFD8B1" stroke-width="5"/>
<circle cx="113.017" cy="366.633" r="200" transform="rotate(23.7886 113.017 366.633)" fill="url(#paint13_radial_186_5294)" stroke="#EFD8B1" stroke-width="5"/>
<circle cx="113.017" cy="366.633" r="232.5" transform="rotate(23.7886 113.017 366.633)" stroke="#EFD8B1" stroke-width="5"/>
<circle cx="113.017" cy="366.633" r="252.5" transform="rotate(23.7886 113.017 366.633)" fill="url(#paint14_radial_186_5294)" stroke="#EFD8B1" stroke-width="5"/>
<circle cx="-87.4682" cy="733.427" r="111" transform="rotate(23.7886 -87.4682 733.427)" stroke="#EFD8B1" stroke-width="3"/>
<circle cx="-87.4683" cy="733.427" r="123" transform="rotate(23.7886 -87.4683 733.427)" fill="url(#paint15_radial_186_5294)" stroke="#EFD8B1" stroke-width="3"/>
<circle cx="-87.4682" cy="733.427" r="145" transform="rotate(23.7886 -87.4682 733.427)" stroke="#EFD8B1" stroke-width="3"/>
<circle cx="-87.4683" cy="733.427" r="157" transform="rotate(23.7886 -87.4683 733.427)" stroke="#EFD8B1" stroke-width="3"/>
<circle cx="450.801" cy="693.668" r="97.7587" transform="rotate(23.7886 450.801 693.668)" fill="url(#paint16_radial_186_5294)" stroke="#EFD8B1" stroke-width="3"/>
<circle cx="450.801" cy="693.668" r="114.409" transform="rotate(23.7886 450.801 693.668)" stroke="#EFD8B1" stroke-width="3"/>
<circle cx="450.801" cy="693.668" r="142.585" transform="rotate(23.7886 450.801 693.668)" stroke="#EFD8B1" stroke-width="3"/>
<circle cx="450.801" cy="693.668" r="157.954" transform="rotate(23.7886 450.801 693.668)" fill="url(#paint17_radial_186_5294)" stroke="#EFD8B1" stroke-width="3"/>
<circle cx="450.801" cy="693.668" r="186.131" transform="rotate(23.7886 450.801 693.668)" stroke="#EFD8B1" stroke-width="3"/>
<circle cx="450.801" cy="693.668" r="201.5" transform="rotate(23.7886 450.801 693.668)" stroke="#EFD8B1" stroke-width="3"/>
<g clip-path="url(#clip1_186_5294)">
<path d="M746.667 413C747.771 413 748.667 412.105 748.667 411C748.667 409.895 747.771 409 746.667 409C745.562 409 744.667 409.895 744.667 411C744.667 412.105 745.562 413 746.667 413Z" fill="#EFD8B1"/>
<path d="M750.667 419.667C751.771 419.667 752.667 418.771 752.667 417.667C752.667 416.562 751.771 415.667 750.667 415.667C749.562 415.667 748.667 416.562 748.667 417.667C748.667 418.771 749.562 419.667 750.667 419.667Z" fill="#EFD8B1"/>
<path d="M753.924 423.472C753.863 422.836 753.36 422.333 752.724 422.272C746.37 421.66 741.342 416.631 740.731 410.277C740.67 409.641 740.166 409.138 739.531 409.077C739.025 409.028 738.516 409 738 409C729.163 409 722 416.163 722 425C722 433.837 729.163 441 738 441C746.836 441 754 433.837 754 425C754 424.484 753.972 423.975 753.924 423.472ZM741.333 430.333C740.229 430.333 739.333 429.438 739.333 428.333C739.333 427.229 740.229 426.333 741.333 426.333C742.438 426.333 743.333 427.229 743.333 428.333C743.333 429.438 742.438 430.333 741.333 430.333ZM734.667 423.667C733.562 423.667 732.667 422.771 732.667 421.667C732.667 420.562 733.562 419.667 734.667 419.667C735.771 419.667 736.667 420.562 736.667 421.667C736.667 422.771 735.771 423.667 734.667 423.667ZM736.667 428.333C736.667 429.438 735.771 430.333 734.667 430.333C733.562 430.333 732.667 429.438 732.667 428.333C732.667 427.229 733.562 426.333 734.667 426.333C735.771 426.333 736.667 427.229 736.667 428.333Z" fill="#EFD8B1"/>
</g>
<g clip-path="url(#clip2_186_5294)">
<path d="M804.838 567.694C805.34 566.491 805.417 565.199 805.063 563.954C804.617 562.395 803.518 561.097 802.05 560.393C801.537 560.147 801.182 559.679 801.123 559.173C800.94 557.595 800.143 556.206 798.876 555.266C797.627 554.337 796.085 553.968 794.54 554.23C794.024 554.318 793.462 554.109 793.026 553.673C791.949 552.599 790.525 552.008 789.015 552.008C787.505 552.008 786.082 552.599 785.005 553.673C784.571 554.108 784 554.318 783.492 554.23C781.942 553.972 780.405 554.337 779.156 555.266C777.89 556.207 777.091 557.595 776.909 559.175C776.852 559.679 776.496 560.147 775.983 560.393C774.514 561.097 773.416 562.396 772.97 563.954C772.614 565.199 772.691 566.492 773.194 567.694C773.417 568.226 773.417 568.79 773.194 569.322C772.692 570.524 772.615 571.816 772.971 573.064C773.417 574.621 774.516 575.919 775.984 576.625C776.497 576.871 776.852 577.338 776.911 577.843C777.092 579.422 777.891 580.81 779.158 581.752C780.406 582.68 781.947 583.047 783.494 582.788C784.003 582.698 784.571 582.909 785.007 583.343C786.083 584.417 787.507 585.01 789.016 585.01C790.526 585.01 791.949 584.417 793.026 583.343C793.46 582.909 794.024 582.697 794.54 582.788C796.089 583.049 797.627 582.68 798.876 581.752C800.143 580.812 800.94 579.424 801.123 577.843C801.181 577.338 801.537 576.871 802.05 576.625C803.518 575.919 804.617 574.621 805.063 573.064C805.417 571.818 805.34 570.524 804.838 569.322C804.616 568.79 804.616 568.228 804.838 567.694ZM803.74 572.684C803.402 573.864 802.568 574.848 801.453 575.383C800.518 575.833 799.868 576.714 799.756 577.684C799.618 578.883 799.013 579.936 798.054 580.647C797.108 581.351 795.942 581.628 794.767 581.429C793.815 581.267 792.8 581.619 792.051 582.37C790.419 584 787.61 584 785.978 582.37C785.348 581.74 784.53 581.392 783.723 581.392C783.569 581.392 783.416 581.404 783.265 581.429C782.085 581.627 780.923 581.348 779.977 580.647C779.019 579.934 778.414 578.883 778.276 577.684C778.163 576.714 777.513 575.831 776.579 575.383C775.464 574.848 774.631 573.865 774.294 572.684C774.025 571.741 774.084 570.762 774.465 569.85C774.826 568.984 774.826 568.03 774.465 567.163C774.084 566.252 774.025 565.273 774.294 564.331C774.632 563.15 775.466 562.165 776.581 561.63C777.516 561.181 778.166 560.299 778.278 559.33C778.416 558.132 779.02 557.081 779.98 556.368C780.926 555.666 782.092 555.391 783.266 555.586C784.223 555.748 785.232 555.393 785.98 554.645C787.611 553.016 790.423 553.017 792.054 554.645C792.803 555.395 793.818 555.745 794.769 555.586C795.942 555.387 797.11 555.664 798.057 556.368C799.015 557.081 799.62 558.132 799.759 559.33C799.872 560.301 800.521 561.182 801.456 561.63C802.571 562.165 803.404 563.15 803.743 564.331C804.011 565.271 803.952 566.25 803.572 567.163C803.21 568.03 803.21 568.984 803.572 569.85C803.953 570.762 804.011 571.742 803.743 572.684H803.74ZM782.129 569.878C782.129 570.635 781.514 571.25 780.757 571.25C779.999 571.25 779.386 570.635 779.386 569.878C779.386 569.12 780 568.505 780.757 568.505C781.513 568.505 782.129 569.12 782.129 569.878ZM789.011 576.753C789.011 577.51 788.396 578.124 787.64 578.124C786.884 578.124 786.269 577.509 786.269 576.753C786.269 575.996 786.884 575.382 787.64 575.382C788.396 575.382 789.011 575.996 789.011 576.753ZM786.265 561.63C785.506 561.63 784.89 561.014 784.89 560.255C784.89 559.496 785.506 558.88 786.265 558.88C787.024 558.88 787.64 559.496 787.64 560.255C787.64 561.014 787.024 561.63 786.265 561.63ZM791.761 567.122C791.761 567.88 791.146 568.494 790.389 568.494C789.631 568.494 789.016 567.88 789.016 567.122C789.016 566.365 789.631 565.75 790.389 565.75C791.146 565.75 791.761 566.365 791.761 567.122ZM798.636 571.253C798.636 572.01 798.021 572.625 797.264 572.625C796.506 572.625 795.893 572.01 795.893 571.253C795.893 570.495 796.507 569.882 797.264 569.882C798.02 569.882 798.636 570.496 798.636 571.253Z" fill="#EFD8B1"/>
</g>
<g clip-path="url(#clip3_186_5294)">
<path d="M926.3 429.501C926.845 428.199 926.927 426.798 926.541 425.449C926.058 423.762 924.87 422.356 923.281 421.593C923.014 421.465 922.823 421.229 922.795 420.991C922.597 419.281 921.732 417.778 920.36 416.757C919.006 415.751 917.342 415.352 915.663 415.637C915.402 415.675 915.09 415.553 914.842 415.304C913.678 414.141 912.136 413.5 910.5 413.5C908.864 413.5 907.321 414.141 906.158 415.304C905.909 415.554 905.593 415.678 905.335 415.637C903.658 415.354 901.993 415.752 900.64 416.757C899.266 417.778 898.401 419.281 898.203 420.991C898.176 421.228 897.986 421.464 897.719 421.593C896.13 422.356 894.94 423.763 894.458 425.449C894.071 426.798 894.155 428.199 894.698 429.501C894.836 429.83 894.836 430.177 894.698 430.506C894.154 431.808 894.071 433.211 894.458 434.558C894.94 436.245 896.128 437.651 897.719 438.415C897.982 438.542 898.176 438.784 898.203 439.017C898.401 440.726 899.266 442.231 900.638 443.251C901.991 444.256 903.659 444.655 905.333 444.372C905.591 444.33 905.906 444.455 906.155 444.703C907.318 445.868 908.861 446.507 910.497 446.507C912.133 446.507 913.676 445.866 914.839 444.703C915.088 444.453 915.406 444.318 915.66 444.37C917.332 444.651 919.002 444.256 920.357 443.25C921.731 442.229 922.596 440.725 922.794 439.015C922.821 438.782 923.015 438.54 923.278 438.414C924.867 437.649 926.057 436.244 926.539 434.557C926.926 433.209 926.842 431.807 926.299 430.505C926.161 430.176 926.161 429.828 926.299 429.5L926.3 429.501ZM902.937 432.75C901.799 432.75 900.875 431.826 900.875 430.688C900.875 429.549 901.799 428.625 902.937 428.625C904.076 428.625 905 429.549 905 430.688C905 431.826 904.076 432.75 902.937 432.75ZM908.437 420.375C909.576 420.375 910.5 421.299 910.5 422.438C910.5 423.576 909.576 424.5 908.437 424.5C907.299 424.5 906.375 423.576 906.375 422.438C906.375 421.299 907.299 420.375 908.437 420.375ZM908.437 439.625C907.299 439.625 906.375 438.701 906.375 437.563C906.375 436.424 907.299 435.5 908.437 435.5C909.576 435.5 910.5 436.424 910.5 437.563C910.5 438.701 909.576 439.625 908.437 439.625ZM911.187 431.375C910.049 431.375 909.125 430.451 909.125 429.313C909.125 428.174 910.049 427.25 911.187 427.25C912.326 427.25 913.25 428.174 913.25 429.313C913.25 430.451 912.326 431.375 911.187 431.375ZM918.062 434.125C916.924 434.125 916 433.201 916 432.063C916 430.924 916.924 430 918.062 430C919.201 430 920.125 430.924 920.125 432.063C920.125 433.201 919.201 434.125 918.062 434.125Z" fill="#EFD8B1"/>
</g>
<g clip-path="url(#clip4_186_5294)">
<path d="M958.325 568.023C958.853 566.76 958.933 565.401 958.559 564.093C958.091 562.457 956.939 561.095 955.397 560.355C955.139 560.231 954.953 560.001 954.927 559.771C954.735 558.112 953.896 556.655 952.565 555.665C951.253 554.689 949.637 554.303 948.009 554.579C947.768 554.621 947.456 554.497 947.213 554.256C946.085 553.127 944.591 552.505 943.004 552.505C941.417 552.505 939.923 553.127 938.793 554.255C938.552 554.495 938.249 554.615 937.997 554.577C936.372 554.303 934.756 554.689 933.444 555.664C932.112 556.653 931.273 558.111 931.081 559.769C931.055 559.999 930.871 560.228 930.612 560.353C929.071 561.093 927.917 562.457 927.449 564.092C927.075 565.4 927.156 566.759 927.683 568.023C927.816 568.341 927.816 568.679 927.683 568.996C927.155 570.26 927.075 571.619 927.449 572.924C927.917 574.561 929.069 575.924 930.612 576.665C930.867 576.788 931.055 577.023 931.081 577.249C931.273 578.907 932.112 580.365 933.443 581.355C934.755 582.329 936.372 582.716 937.995 582.441C938.245 582.4 938.551 582.524 938.792 582.765C939.921 583.892 941.416 584.513 943.003 584.513C944.589 584.513 946.084 583.892 947.213 582.765C947.457 582.523 947.763 582.389 948.009 582.441C949.632 582.713 951.249 582.331 952.564 581.355C953.896 580.365 954.735 578.907 954.927 577.248C954.953 577.023 955.141 576.788 955.396 576.665C956.939 575.924 958.091 574.561 958.559 572.925C958.933 571.619 958.852 570.26 958.325 568.996C958.192 568.677 958.192 568.34 958.325 568.021V568.023ZM955.864 570.024C956.156 570.723 956.201 571.473 955.995 572.193C955.732 573.111 955.109 573.845 954.243 574.263C953.161 574.781 952.409 575.808 952.279 576.943C952.172 577.863 951.709 578.669 950.975 579.215C950.249 579.753 949.356 579.967 948.455 579.812C947.352 579.628 946.184 580.025 945.329 580.879C944.079 582.129 941.928 582.128 940.677 580.879C939.961 580.163 939.025 579.767 938.091 579.767C937.911 579.767 937.729 579.781 937.552 579.811C936.653 579.965 935.759 579.752 935.033 579.213C934.3 578.668 933.837 577.861 933.731 576.943C933.599 575.807 932.847 574.78 931.767 574.261C930.899 573.845 930.276 573.109 930.013 572.191C929.807 571.472 929.852 570.721 930.144 570.023C930.552 569.047 930.552 567.971 930.144 566.995C929.852 566.295 929.807 565.545 930.013 564.825C930.276 563.908 930.899 563.173 931.767 562.756C932.848 562.236 933.6 561.209 933.731 560.075C933.837 559.156 934.3 558.349 935.035 557.804C935.757 557.265 936.652 557.055 937.552 557.205C938.66 557.395 939.825 556.993 940.677 556.14C941.928 554.891 944.079 554.891 945.329 556.14C946.185 556.995 947.355 557.391 948.455 557.205C949.356 557.053 950.249 557.265 950.975 557.804C951.708 558.349 952.171 559.156 952.277 560.075C952.408 561.209 953.161 562.236 954.241 562.756C955.109 563.172 955.732 563.908 955.995 564.825C956.201 565.545 956.156 566.296 955.864 566.995C955.456 567.971 955.456 569.048 955.864 570.024ZM937.669 569.172C937.669 570.276 936.773 571.172 935.669 571.172C934.565 571.172 933.669 570.276 933.669 569.172C933.669 568.068 934.565 567.172 935.669 567.172C936.773 567.172 937.669 568.068 937.669 569.172ZM943.003 575.839C943.003 576.943 942.107 577.839 941.003 577.839C939.899 577.839 939.003 576.943 939.003 575.839C939.003 574.735 939.899 573.839 941.003 573.839C942.107 573.839 943.003 574.735 943.003 575.839ZM939.003 561.172C939.003 560.068 939.899 559.172 941.003 559.172C942.107 559.172 943.003 560.068 943.003 561.172C943.003 562.276 942.107 563.172 941.003 563.172C939.899 563.172 939.003 562.276 939.003 561.172ZM945.669 567.839C945.669 568.943 944.773 569.839 943.669 569.839C942.565 569.839 941.669 568.943 941.669 567.839C941.669 566.735 942.565 565.839 943.669 565.839C944.773 565.839 945.669 566.735 945.669 567.839ZM952.336 570.505C952.336 571.609 951.44 572.505 950.336 572.505C949.232 572.505 948.336 571.609 948.336 570.505C948.336 569.401 949.232 568.505 950.336 568.505C951.44 568.505 952.336 569.401 952.336 570.505Z" fill="#EFD8B1"/>
</g>
<g clip-path="url(#clip5_186_5294)">
<path d="M1119.34 462.194C1119.84 460.991 1119.92 459.699 1119.56 458.454C1119.12 456.895 1118.02 455.597 1116.55 454.893C1116.04 454.647 1115.68 454.179 1115.62 453.673C1115.44 452.095 1114.64 450.706 1113.38 449.766C1112.13 448.837 1110.59 448.468 1109.04 448.73C1108.52 448.818 1107.96 448.609 1107.53 448.173C1106.45 447.099 1105.02 446.508 1103.52 446.508C1102.01 446.508 1100.58 447.099 1099.51 448.173C1099.07 448.608 1098.5 448.818 1097.99 448.73C1096.44 448.472 1094.9 448.837 1093.66 449.766C1092.39 450.707 1091.59 452.095 1091.41 453.675C1091.35 454.179 1091 454.647 1090.48 454.893C1089.01 455.597 1087.92 456.896 1087.47 458.454C1087.11 459.699 1087.19 460.992 1087.69 462.194C1087.92 462.726 1087.92 463.29 1087.69 463.822C1087.19 465.024 1087.12 466.316 1087.47 467.564C1087.92 469.121 1089.02 470.419 1090.48 471.125C1091 471.371 1091.35 471.838 1091.41 472.343C1091.59 473.922 1092.39 475.31 1093.66 476.252C1094.91 477.18 1096.45 477.547 1097.99 477.288C1098.5 477.198 1099.07 477.409 1099.51 477.843C1100.58 478.917 1102.01 479.51 1103.52 479.51C1105.03 479.51 1106.45 478.917 1107.53 477.843C1107.96 477.409 1108.52 477.197 1109.04 477.288C1110.59 477.549 1112.13 477.18 1113.38 476.252C1114.64 475.312 1115.44 473.924 1115.62 472.343C1115.68 471.838 1116.04 471.371 1116.55 471.125C1118.02 470.419 1119.12 469.121 1119.56 467.564C1119.92 466.318 1119.84 465.024 1119.34 463.822C1119.12 463.29 1119.12 462.728 1119.34 462.194ZM1118.24 467.184C1117.9 468.364 1117.07 469.348 1115.95 469.883C1115.02 470.333 1114.37 471.214 1114.26 472.184C1114.12 473.383 1113.51 474.436 1112.55 475.147C1111.61 475.851 1110.44 476.128 1109.27 475.929C1108.32 475.767 1107.3 476.119 1106.55 476.87C1104.92 478.5 1102.11 478.5 1100.48 476.87C1099.85 476.24 1099.03 475.892 1098.22 475.892C1098.07 475.892 1097.92 475.904 1097.76 475.929C1096.59 476.127 1095.42 475.848 1094.48 475.147C1093.52 474.434 1092.91 473.383 1092.78 472.184C1092.66 471.214 1092.01 470.331 1091.08 469.883C1089.96 469.348 1089.13 468.365 1088.79 467.184C1088.52 466.241 1088.58 465.262 1088.96 464.35C1089.33 463.484 1089.33 462.53 1088.96 461.663C1088.58 460.752 1088.52 459.773 1088.79 458.831C1089.13 457.65 1089.97 456.665 1091.08 456.13C1092.02 455.681 1092.67 454.799 1092.78 453.83C1092.92 452.632 1093.52 451.581 1094.48 450.868C1095.43 450.166 1096.59 449.891 1097.77 450.086C1098.72 450.248 1099.73 449.893 1100.48 449.145C1102.11 447.516 1104.92 447.517 1106.55 449.145C1107.3 449.895 1108.32 450.245 1109.27 450.086C1110.44 449.887 1111.61 450.164 1112.56 450.868C1113.52 451.581 1114.12 452.632 1114.26 453.83C1114.37 454.801 1115.02 455.682 1115.96 456.13C1117.07 456.665 1117.9 457.65 1118.24 458.831C1118.51 459.771 1118.45 460.75 1118.07 461.663C1117.71 462.53 1117.71 463.484 1118.07 464.35C1118.45 465.262 1118.51 466.242 1118.24 467.184H1118.24ZM1096.63 464.378C1096.63 465.135 1096.01 465.75 1095.26 465.75C1094.5 465.75 1093.89 465.135 1093.89 464.378C1093.89 463.62 1094.5 463.005 1095.26 463.005C1096.01 463.005 1096.63 463.62 1096.63 464.378ZM1103.51 471.253C1103.51 472.01 1102.9 472.624 1102.14 472.624C1101.38 472.624 1100.77 472.009 1100.77 471.253C1100.77 470.496 1101.38 469.882 1102.14 469.882C1102.9 469.882 1103.51 470.496 1103.51 471.253ZM1100.77 456.13C1100.01 456.13 1099.39 455.514 1099.39 454.755C1099.39 453.996 1100.01 453.38 1100.77 453.38C1101.52 453.38 1102.14 453.996 1102.14 454.755C1102.14 455.514 1101.52 456.13 1100.77 456.13ZM1106.26 461.622C1106.26 462.38 1105.65 462.994 1104.89 462.994C1104.13 462.994 1103.52 462.38 1103.52 461.622C1103.52 460.865 1104.13 460.25 1104.89 460.25C1105.65 460.25 1106.26 460.865 1106.26 461.622ZM1113.14 465.753C1113.14 466.51 1112.52 467.125 1111.76 467.125C1111.01 467.125 1110.39 466.51 1110.39 465.753C1110.39 464.995 1111.01 464.382 1111.76 464.382C1112.52 464.382 1113.14 464.996 1113.14 465.753Z" fill="#EFD8B1"/>
</g>
<g clip-path="url(#clip6_186_5294)">
<path d="M326.836 -9.65713C327.726 -10.6975 328.218 -11.9664 328.262 -13.3263C328.317 -15.027 327.638 -16.677 326.397 -17.8534C326.189 -18.0506 326.083 -18.3257 326.128 -18.5534C326.453 -20.1912 326.101 -21.8354 325.137 -23.1846C324.187 -24.5155 322.767 -25.3784 321.133 -25.6142C320.89 -25.6475 320.631 -25.8611 320.474 -26.1651C319.746 -27.5856 318.513 -28.6348 317.003 -29.1206C315.492 -29.6065 313.879 -29.4727 312.459 -28.7447C312.155 -28.5901 311.83 -28.5685 311.602 -28.6812C310.139 -29.4404 308.482 -29.5671 306.935 -29.041C305.364 -28.5071 304.119 -27.3766 303.428 -25.8564C303.333 -25.6462 303.087 -25.4843 302.803 -25.4441C301.109 -25.2117 299.593 -24.2663 298.647 -22.8535C297.89 -21.7231 297.551 -20.4048 297.666 -19.0402C297.695 -18.696 297.592 -18.3749 297.368 -18.1136C296.478 -17.072 295.986 -15.8031 295.943 -14.4458C295.887 -12.7438 296.566 -11.0938 297.808 -9.91571C298.013 -9.72095 298.12 -9.43999 298.076 -9.21604C297.751 -7.57953 298.103 -5.93412 299.067 -4.58485C300.017 -3.25526 301.438 -2.39192 303.067 -2.15652C303.318 -2.11911 303.571 -1.90757 303.727 -1.60393C304.457 -0.185573 305.69 0.863596 307.2 1.34945C308.711 1.8353 310.324 1.70149 311.744 0.974761C312.05 0.818465 312.382 0.785032 312.601 0.910066C314.062 1.66588 315.719 1.79684 317.269 1.27028C318.84 0.736343 320.085 -0.395447 320.776 -1.91565C320.871 -2.12199 321.121 -2.28782 321.401 -2.32661C323.097 -2.55995 324.611 -3.50441 325.557 -4.91852C326.314 -6.04769 326.653 -7.366 326.538 -8.73055C326.509 -9.07474 326.612 -9.39587 326.837 -9.6584L326.836 -9.65713ZM323.88 -8.50562C323.945 -7.7511 323.758 -7.02261 323.341 -6.40048C322.81 -5.60764 321.992 -5.09893 321.039 -4.96703C319.851 -4.80439 318.821 -4.05731 318.349 -3.01716C317.966 -2.17401 317.278 -1.54777 316.412 -1.25359C315.556 -0.962904 314.641 -1.03337 313.83 -1.4566C312.837 -1.96941 311.603 -1.94881 310.528 -1.39818C308.955 -0.590553 306.908 -1.25038 306.1 -2.82266C305.637 -3.72352 304.867 -4.38711 303.978 -4.67331C303.806 -4.72843 303.629 -4.76999 303.451 -4.79637C302.548 -4.92431 301.762 -5.40135 301.237 -6.13625C300.705 -6.87994 300.512 -7.78953 300.692 -8.69673C300.914 -9.81858 300.512 -11.0262 299.643 -11.8507C298.944 -12.5125 298.577 -13.4038 298.608 -14.3587C298.631 -15.1062 298.904 -15.8069 299.396 -16.3826C300.084 -17.1868 300.413 -18.2111 300.324 -19.2651C300.26 -20.0209 300.446 -20.7481 300.863 -21.3703C301.394 -22.1631 302.212 -22.6718 303.166 -22.8033C304.355 -22.9672 305.385 -23.7143 305.857 -24.7545C306.24 -25.5963 306.927 -26.2226 307.794 -26.5168C308.646 -26.8083 309.563 -26.7349 310.373 -26.3158C311.37 -25.7963 312.602 -25.8215 313.675 -26.373C315.248 -27.1793 317.295 -26.5208 318.103 -24.9485C318.656 -23.8728 319.648 -23.1377 320.752 -22.9773C321.657 -22.846 322.442 -22.3707 322.968 -21.6358C323.499 -20.8921 323.692 -19.9825 323.513 -19.0753C323.29 -17.9551 323.692 -16.7471 324.561 -15.9214C325.26 -15.2596 325.628 -14.3683 325.597 -13.4146C325.573 -12.6659 325.3 -11.9651 324.808 -11.3894C324.121 -10.5853 323.791 -9.55967 323.88 -8.50562ZM306.821 -14.8881C306.483 -13.8371 305.355 -13.2585 304.304 -13.5966C303.253 -13.9346 302.675 -15.0619 303.013 -16.1129C303.351 -17.1639 304.478 -17.7425 305.529 -17.4044C306.58 -17.0664 307.159 -15.939 306.821 -14.8881ZM309.856 -6.90853C309.518 -5.85756 308.391 -5.27896 307.34 -5.61702C306.289 -5.95507 305.711 -7.08239 306.049 -8.13336C306.387 -9.18433 307.514 -9.76293 308.565 -9.42487C309.616 -9.08682 310.195 -7.95949 309.856 -6.90853ZM310.54 -22.0955C310.878 -23.1465 312.005 -23.7251 313.056 -23.387C314.107 -23.049 314.686 -21.9216 314.348 -20.8707C314.009 -19.8197 312.882 -19.2411 311.831 -19.5792C310.78 -19.9172 310.202 -21.0445 310.54 -22.0955ZM314.845 -13.7077C314.507 -12.6567 313.379 -12.0781 312.328 -12.4162C311.277 -12.7542 310.699 -13.8815 311.037 -14.9325C311.375 -15.9835 312.502 -16.5621 313.553 -16.224C314.604 -15.886 315.183 -14.7586 314.845 -13.7077ZM320.375 -9.12771C320.037 -8.07674 318.909 -7.49815 317.858 -7.8362C316.807 -8.17426 316.229 -9.30158 316.567 -10.3526C316.905 -11.4035 318.032 -11.9821 319.083 -11.6441C320.134 -11.306 320.713 -10.1787 320.375 -9.12771Z" fill="#EFD8B1"/>
</g>
<g clip-path="url(#clip7_186_5294)">
<path d="M155.297 51.2175C156.349 51.5557 157.475 50.9775 157.814 49.926C158.152 48.8745 157.574 47.7479 156.522 47.4096C155.471 47.0714 154.344 47.6496 154.006 48.7011C153.668 49.7526 154.246 50.8793 155.297 51.2175Z" fill="#EFD8B1"/>
<path d="M157.064 58.7888C158.115 59.127 159.242 58.5488 159.58 57.4973C159.918 56.4458 159.34 55.3191 158.289 54.9809C157.237 54.6427 156.111 55.2209 155.772 56.2724C155.434 57.3239 156.012 58.4505 157.064 58.7888Z" fill="#EFD8B1"/>
<path d="M158.999 63.4087C159.136 62.7848 158.811 62.1516 158.225 61.8989C152.364 59.3707 149.117 53.0435 150.48 46.8079C150.617 46.184 150.292 45.5508 149.705 45.2981C149.239 45.0964 148.763 44.9138 148.272 44.7558C139.86 42.05 130.847 46.6758 128.141 55.0879C125.435 63.5 130.061 72.5128 138.473 75.2187C146.885 77.9245 155.898 73.2987 158.604 64.8866C158.762 64.3954 158.891 63.902 158.999 63.4087ZM144.913 66.0851C143.861 65.7468 143.283 64.6202 143.621 63.5687C143.959 62.5172 145.086 61.939 146.137 62.2772C147.189 62.6154 147.767 63.742 147.429 64.7935C147.091 65.845 145.964 66.4233 144.913 66.0851ZM140.608 57.6973C139.556 57.3591 138.978 56.2324 139.316 55.1809C139.654 54.1294 140.781 53.5512 141.832 53.8894C142.884 54.2277 143.462 55.3543 143.124 56.4058C142.786 57.4573 141.659 58.0355 140.608 57.6973ZM141.083 62.7522C140.744 63.8037 139.618 64.3819 138.566 64.0437C137.515 63.7054 136.936 62.5788 137.275 61.5273C137.613 60.4758 138.74 59.8976 139.791 60.2358C140.843 60.574 141.421 61.7007 141.083 62.7522Z" fill="#EFD8B1"/>
</g>
<g clip-path="url(#clip8_186_5294)">
<path d="M452.419 70.1072C453.336 69.0344 453.844 67.7258 453.889 66.3234C453.946 64.5695 453.245 62.868 451.966 61.6548C451.751 61.4514 451.642 61.1678 451.688 60.9329C452.024 59.2439 451.66 57.5484 450.667 56.157C449.685 54.7841 448.224 53.895 446.538 53.6519C446.278 53.6086 446.018 53.3965 445.859 53.0838C445.106 51.6198 443.835 50.5378 442.278 50.0368C440.72 49.5358 439.055 49.6733 437.591 50.4245C437.278 50.5865 436.939 50.6075 436.707 50.4895C435.197 49.7062 433.489 49.5759 431.894 50.1184C430.274 50.6691 428.99 51.8349 428.278 53.4026C428.179 53.6193 427.926 53.7864 427.633 53.8277C425.886 54.0675 424.323 55.0423 423.347 56.4993C422.566 57.6651 422.217 59.0246 422.335 60.4305C422.366 60.7854 422.259 61.1166 422.028 61.3873C421.111 62.4602 420.603 63.77 420.558 65.1711C420.501 66.925 421.201 68.6265 422.482 69.8414C422.693 70.0423 422.803 70.332 422.758 70.563C422.423 72.2506 422.786 73.9474 423.78 75.3389C424.76 76.71 426.226 77.6003 427.905 77.8431C428.164 77.883 428.425 78.0985 428.587 78.4103C429.337 79.8752 430.61 80.9563 432.168 81.4573C433.726 81.9584 435.39 81.8208 436.854 81.0696C437.167 80.9076 437.511 80.8766 437.737 81.0042C439.243 81.7832 440.953 81.9187 442.552 81.3757C444.172 80.8251 445.456 79.6579 446.168 78.0902C446.265 77.8774 446.524 77.7064 446.813 77.6664C448.56 77.4253 450.123 76.4518 451.099 74.9935C451.879 73.829 452.229 72.4682 452.11 71.0623C452.08 70.7074 452.187 70.3762 452.418 70.1055L452.419 70.1072ZM429.184 66.0464C428.1 65.6978 427.503 64.5352 427.852 63.4514C428.2 62.3676 429.363 61.7709 430.447 62.1195C431.531 62.4682 432.127 63.6307 431.779 64.7145C431.43 65.7983 430.268 66.395 429.184 66.0464ZM438.209 55.95C439.293 56.2986 439.889 57.4612 439.541 58.545C439.192 59.6288 438.03 60.2255 436.946 59.8768C435.862 59.5282 435.265 58.3657 435.614 57.2819C435.963 56.1981 437.125 55.6014 438.209 55.95ZM432.314 74.2753C431.231 73.9267 430.634 72.7641 430.982 71.6803C431.331 70.5965 432.494 69.9998 433.577 70.3485C434.661 70.6971 435.258 71.8596 434.909 72.9434C434.561 74.0272 433.398 74.6239 432.314 74.2753ZM437.458 67.2637C436.375 66.9151 435.778 65.7525 436.127 64.6687C436.475 63.5849 437.638 62.9882 438.722 63.3368C439.805 63.6854 440.402 64.848 440.053 65.9318C439.705 67.0156 438.542 67.6123 437.458 67.2637ZM443.161 71.9868C442.077 71.6381 441.481 70.4756 441.829 69.3918C442.178 68.308 443.34 67.7113 444.424 68.0599C445.508 68.4085 446.105 69.5711 445.756 70.6549C445.408 71.7387 444.245 72.3354 443.161 71.9868Z" fill="#EFD8B1"/>
</g>
<g clip-path="url(#clip9_186_5294)">
<path d="M315.042 131.513C315.932 130.472 316.424 129.203 316.468 127.843C316.523 126.143 315.844 124.493 314.603 123.316C314.395 123.119 314.289 122.844 314.334 122.616C314.659 120.979 314.307 119.334 313.343 117.985C312.393 116.654 310.973 115.791 309.339 115.556C309.096 115.522 308.837 115.309 308.68 115.005C307.952 113.584 306.719 112.535 305.209 112.049C303.698 111.563 302.085 111.697 300.664 112.425C300.361 112.58 300.036 112.601 299.808 112.489C298.345 111.729 296.688 111.603 295.141 112.129C293.57 112.663 292.325 113.793 291.634 115.313C291.539 115.524 291.293 115.685 291.009 115.726C289.315 115.958 287.799 116.903 286.853 118.316C286.096 119.447 285.757 120.765 285.872 122.13C285.901 122.474 285.798 122.795 285.574 123.056C284.684 124.098 284.192 125.367 284.149 126.724C284.093 128.426 284.772 130.076 286.014 131.254C286.219 131.449 286.326 131.73 286.282 131.954C285.957 133.59 286.309 135.236 287.273 136.585C288.223 137.914 289.644 138.778 291.273 139.013C291.524 139.051 291.777 139.262 291.933 139.566C292.663 140.984 293.896 142.033 295.406 142.519C296.917 143.005 298.53 142.871 299.95 142.145C300.256 141.988 300.588 141.955 300.807 142.08C302.268 142.836 303.925 142.967 305.475 142.44C307.046 141.906 308.291 140.774 308.982 139.254C309.076 139.048 309.327 138.882 309.607 138.843C311.303 138.61 312.817 137.665 313.763 136.251C314.52 135.122 314.859 133.804 314.744 132.439C314.715 132.095 314.818 131.774 315.043 131.511L315.042 131.513ZM312.086 132.664C312.15 133.419 311.964 134.147 311.547 134.769C311.016 135.562 310.198 136.071 309.245 136.203C308.057 136.365 307.027 137.112 306.555 138.153C306.171 138.996 305.484 139.622 304.618 139.916C303.762 140.207 302.846 140.136 302.036 139.713C301.042 139.2 299.809 139.221 298.734 139.772C297.16 140.579 295.113 139.919 294.305 138.347C293.843 137.446 293.073 136.783 292.184 136.496C292.012 136.441 291.835 136.4 291.657 136.373C290.754 136.245 289.968 135.768 289.443 135.034C288.911 134.29 288.718 133.38 288.898 132.473C289.12 131.351 288.718 130.144 287.849 129.319C287.15 128.657 286.783 127.766 286.814 126.811C286.837 126.064 287.11 125.363 287.602 124.787C288.29 123.983 288.619 122.959 288.53 121.905C288.466 121.149 288.652 120.422 289.069 119.799C289.6 119.007 290.418 118.498 291.372 118.366C292.561 118.203 293.591 117.455 294.063 116.415C294.446 115.573 295.133 114.947 296 114.653C296.852 114.361 297.769 114.435 298.579 114.854C299.576 115.373 300.808 115.348 301.881 114.797C303.454 113.99 305.501 114.649 306.309 116.221C306.862 117.297 307.854 118.032 308.958 118.192C309.863 118.324 310.648 118.799 311.174 119.534C311.705 120.278 311.898 121.187 311.719 122.094C311.496 123.215 311.898 124.423 312.767 125.248C313.466 125.91 313.834 126.802 313.803 127.755C313.779 128.504 313.506 129.205 313.014 129.78C312.327 130.585 311.997 131.61 312.086 132.664ZM295.027 126.282C294.689 127.333 293.561 127.911 292.51 127.573C291.459 127.235 290.881 126.108 291.219 125.057C291.557 124.006 292.684 123.427 293.735 123.765C294.786 124.103 295.365 125.231 295.027 126.282ZM298.062 134.261C297.724 135.312 296.597 135.891 295.546 135.553C294.495 135.215 293.916 134.087 294.255 133.036C294.593 131.985 295.72 131.407 296.771 131.745C297.822 132.083 298.4 133.21 298.062 134.261ZM298.746 119.074C299.084 118.023 300.211 117.445 301.262 117.783C302.313 118.121 302.892 119.248 302.553 120.299C302.215 121.35 301.088 121.929 300.037 121.591C298.986 121.253 298.408 120.125 298.746 119.074ZM303.051 127.462C302.713 128.513 301.585 129.092 300.534 128.754C299.483 128.416 298.905 127.288 299.243 126.237C299.581 125.186 300.708 124.608 301.759 124.946C302.81 125.284 303.389 126.411 303.051 127.462ZM308.581 132.042C308.242 133.093 307.115 133.672 306.064 133.334C305.013 132.995 304.435 131.868 304.773 130.817C305.111 129.766 306.238 129.188 307.289 129.526C308.34 129.864 308.919 130.991 308.581 132.042Z" fill="#EFD8B1"/>
</g>
<g clip-path="url(#clip10_186_5294)">
<path d="M673.28 270.495C666.727 273.534 659.587 275.113 652.24 275.114C643.518 275.115 634.895 272.798 627.302 268.415C613.129 260.232 603.992 245.605 602.525 229.622C586.457 228.154 571.873 218.94 563.733 204.842C555.552 190.672 554.95 173.442 561.667 158.868C551.384 151.644 544.215 140.83 541.585 128.532C506.586 129.655 474.452 142.296 448.835 162.769C455.548 169.275 459.521 178.315 459.521 188.066C459.521 200.545 452.998 211.522 443.186 217.789C437.716 221.283 431.227 223.318 424.268 223.318C419.366 223.318 414.584 222.302 410.184 220.382C410.162 220.405 410.141 220.427 410.119 220.449C408.472 225.014 407.036 229.68 405.808 234.429C402.538 247.08 400.787 260.338 400.787 274C400.787 361.24 471.761 432.214 559 432.214C593.507 432.214 625.459 421.098 651.489 402.274C652.038 401.782 652.742 401.264 653.559 400.728C663.308 393.436 672.207 385.068 680.04 375.766C670.965 369.271 665.217 358.642 665.217 347.066C665.217 339.386 667.693 332.278 671.879 326.481C678.039 317.949 687.915 312.282 699.115 311.855C699.554 311.831 700.002 311.814 700.471 311.814C700.81 311.814 701.148 311.826 701.486 311.836C702.665 304.89 703.393 297.793 703.625 290.572C691.324 287.944 680.508 280.777 673.28 270.495ZM495.159 380.073C484.169 380.073 474.34 375.016 467.87 367.109C462.653 360.961 459.497 353.012 459.497 344.337C459.497 324.898 475.311 309.084 494.749 309.084C505.739 309.084 515.568 314.141 522.038 322.048C527.255 328.196 530.411 336.145 530.411 344.82C530.411 364.259 514.598 380.073 495.159 380.073ZM518.458 253.178C507.469 253.178 497.64 248.121 491.169 240.214C485.953 234.066 482.796 226.117 482.796 217.442C482.796 198.003 498.61 182.189 518.049 182.189C529.038 182.189 538.867 187.246 545.337 195.153C550.554 201.301 553.711 209.25 553.711 217.925C553.711 237.363 537.897 253.178 518.458 253.178ZM591.287 363.256C577.175 363.256 564.55 356.77 556.23 346.624C549.575 338.733 545.553 328.553 545.553 317.447C545.553 292.454 565.886 272.122 590.878 272.122C604.991 272.122 617.615 278.608 625.935 288.754C632.59 296.644 636.612 306.825 636.612 317.931C636.612 342.923 616.279 363.256 591.287 363.256Z" fill="#EFD8B1"/>
<path d="M518.049 235.907C528.231 235.907 536.514 227.623 536.514 217.441C536.514 207.259 528.231 198.975 518.049 198.975C507.867 198.975 499.583 207.259 499.583 217.441C499.583 227.623 507.867 235.907 518.049 235.907Z" fill="#A06F4C"/>
<path d="M494.75 362.802C504.932 362.802 513.216 354.519 513.216 344.337C513.216 334.155 504.932 325.871 494.75 325.871C484.568 325.871 476.284 334.155 476.284 344.337C476.284 354.519 484.568 362.802 494.75 362.802Z" fill="#A06F4C"/>
<path d="M442.735 188.064C442.735 182.606 440.353 177.577 436.387 174.134C428.704 183.55 422.084 193.863 416.706 204.89C419.064 205.952 421.63 206.53 424.269 206.53C434.451 206.53 442.735 198.246 442.735 188.064Z" fill="#A06F4C"/>
<path d="M682.004 347.066C682.004 353.296 685.185 358.999 690.166 362.37C696.985 352.281 702.667 341.366 707.038 329.812C704.965 329.02 702.756 328.6 700.47 328.6C690.289 328.6 682.004 336.883 682.004 347.066Z" fill="#A06F4C"/>
<path d="M590.878 345.985C606.614 345.985 619.416 333.183 619.416 317.448C619.416 301.711 606.614 288.91 590.878 288.91C575.142 288.91 562.34 301.711 562.34 317.448C562.34 333.183 575.142 345.985 590.878 345.985Z" fill="#A06F4C"/>
<path d="M545.338 195.152C550.311 201.231 553.301 208.992 553.301 217.441C553.301 236.879 537.487 252.694 518.049 252.694C507.287 252.694 497.641 247.841 491.169 240.213C497.639 248.12 507.469 253.177 518.458 253.177C537.897 253.177 553.711 237.363 553.711 217.925C553.711 209.249 550.555 201.3 545.338 195.152Z" fill="#A06F4C"/>
<path d="M530.003 344.337C530.003 363.775 514.189 379.589 494.75 379.589C483.988 379.589 474.342 374.736 467.871 367.109C474.341 375.016 484.17 380.073 495.16 380.073C514.598 380.073 530.412 364.259 530.412 344.82C530.412 336.144 527.255 328.196 522.039 322.048C527.012 328.127 530.003 335.888 530.003 344.337Z" fill="#A06F4C"/>
<path d="M636.203 317.448C636.203 342.44 615.87 362.772 590.878 362.772C576.993 362.772 564.552 356.49 556.231 346.625C564.549 356.77 577.174 363.257 591.288 363.257C616.279 363.257 636.612 342.924 636.612 317.932C636.612 306.826 632.59 296.645 625.935 288.754C632.348 296.575 636.203 306.568 636.203 317.448Z" fill="#A06F4C"/>
<path d="M518.049 252.694C537.487 252.694 553.301 236.879 553.301 217.441C553.301 208.992 550.312 201.231 545.338 195.152C538.868 187.246 529.039 182.188 518.049 182.188C498.61 182.188 482.796 198.003 482.796 217.441C482.796 226.117 485.953 234.065 491.169 240.213C497.642 247.841 507.287 252.694 518.049 252.694ZM518.049 198.975C528.231 198.975 536.514 207.259 536.514 217.441C536.514 227.623 528.231 235.907 518.049 235.907C507.867 235.907 499.583 227.623 499.583 217.441C499.583 207.259 507.867 198.975 518.049 198.975Z" fill="black"/>
<path d="M494.75 379.589C514.189 379.589 530.003 363.775 530.003 344.337C530.003 335.888 527.013 328.127 522.039 322.048C515.569 314.141 505.74 309.084 494.75 309.084C475.312 309.084 459.498 324.898 459.498 344.337C459.498 353.013 462.654 360.961 467.871 367.109C474.342 374.736 483.987 379.589 494.75 379.589ZM494.75 325.871C504.932 325.871 513.216 334.155 513.216 344.337C513.216 354.519 504.932 362.802 494.75 362.802C484.568 362.802 476.284 354.519 476.284 344.337C476.284 334.155 484.568 325.871 494.75 325.871Z" fill="black"/>
<path d="M733.983 272.406L733.972 271.708C733.918 267.277 730.428 263.652 726.003 263.429C713.518 262.798 702.495 255.338 697.238 243.962C696.193 241.701 694.197 240.02 691.792 239.375C689.385 238.729 686.817 239.187 684.781 240.623C679.152 244.593 672.252 246.78 665.353 246.78C659.508 246.78 653.723 245.224 648.621 242.279C637.325 235.757 630.792 223.139 631.977 210.133C632.202 207.652 631.314 205.198 629.553 203.437C627.79 201.675 625.328 200.79 622.857 201.013C621.854 201.104 620.834 201.15 619.824 201.15C607.845 201.15 596.69 194.719 590.713 184.367C584.191 173.071 584.842 158.876 592.371 148.204C593.807 146.169 594.266 143.6 593.62 141.194C592.976 138.788 591.295 136.792 589.034 135.747C577.663 130.491 570.204 119.474 569.57 106.996C569.346 102.573 565.724 99.0856 561.296 99.0285L560.611 99.0176C560.076 99.0084 559.539 99 559.001 99C462.505 99 384.001 177.505 384.001 274C384.001 370.496 462.505 449.001 559.001 449.001C655.496 449.001 734 370.496 734 274C734 273.467 733.992 272.937 733.983 272.406ZM436.387 174.134C440.353 177.577 442.735 182.606 442.735 188.064C442.735 198.246 434.452 206.53 424.269 206.53C421.63 206.53 419.064 205.951 416.706 204.889C422.084 193.863 428.704 183.55 436.387 174.134ZM690.167 362.371C685.185 359 682.005 353.297 682.005 347.066C682.005 336.884 690.289 328.601 700.471 328.601C702.758 328.601 704.966 329.021 707.039 329.813C702.668 341.367 696.986 352.282 690.167 362.371ZM712.141 313.811C708.727 312.612 705.129 311.941 701.486 311.835C701.147 311.825 700.809 311.813 700.47 311.813C700.015 311.813 699.566 311.837 699.114 311.854C687.914 312.281 678.038 317.948 671.878 326.48C667.693 332.276 665.216 339.385 665.216 347.066C665.216 358.641 670.964 369.27 680.039 375.765C672.207 385.067 663.307 393.435 653.559 400.727C652.869 401.244 652.186 401.768 651.488 402.274C625.458 421.098 593.506 432.213 558.999 432.213C471.761 432.213 400.787 361.24 400.787 274C400.787 260.339 402.537 247.08 405.809 234.427C407.037 229.679 408.473 225.014 410.12 220.448C410.13 220.421 410.138 220.393 410.148 220.365C410.16 220.37 410.173 220.375 410.185 220.38C414.585 222.3 419.366 223.316 424.269 223.316C431.228 223.316 437.717 221.281 443.188 217.787C452.998 211.52 459.522 200.543 459.522 188.064C459.522 178.313 455.549 169.273 448.836 162.767C448.458 162.4 448.076 162.037 447.681 161.687C475.154 134.454 512.528 117.195 553.86 115.868C556.509 128.26 563.734 139.157 574.094 146.436C567.325 161.12 567.932 178.481 576.175 192.759C584.377 206.965 599.071 216.248 615.261 217.728C616.739 233.833 625.945 248.572 640.227 256.816C647.876 261.233 656.565 263.567 665.353 263.566C672.756 263.566 679.951 261.974 686.554 258.913C693.836 269.273 704.735 276.495 717.128 279.143C716.747 291.076 715.037 302.68 712.141 313.811Z" fill="black"/>
<path d="M590.878 362.772C615.869 362.772 636.203 342.44 636.203 317.448C636.203 306.569 632.348 296.575 625.935 288.754C617.616 278.609 604.992 272.123 590.878 272.123C565.886 272.123 545.553 292.455 545.553 317.448C545.553 328.554 549.575 338.734 556.231 346.625C564.552 356.49 576.993 362.772 590.878 362.772ZM590.878 288.91C606.614 288.91 619.416 301.711 619.416 317.448C619.416 333.183 606.614 345.985 590.878 345.985C575.142 345.985 562.34 333.183 562.34 317.448C562.34 301.711 575.142 288.91 590.878 288.91Z" fill="black"/>
</g>
<g clip-path="url(#clip11_186_5294)">
<path d="M719.28 313.495C712.727 316.534 705.587 318.113 698.24 318.114C689.518 318.115 680.895 315.798 673.302 311.415C659.129 303.232 649.992 288.605 648.525 272.622C632.457 271.154 617.873 261.94 609.733 247.842C601.552 233.672 600.95 216.442 607.667 201.868C597.384 194.644 590.215 183.83 587.585 171.532C552.586 172.655 520.452 185.296 494.835 205.769C501.548 212.275 505.521 221.315 505.521 231.066C505.521 243.545 498.998 254.522 489.186 260.789C483.716 264.283 477.227 266.318 470.268 266.318C465.366 266.318 460.584 265.302 456.184 263.382C456.162 263.405 456.141 263.427 456.119 263.449C454.472 268.014 453.036 272.68 451.808 277.429C448.538 290.08 446.787 303.338 446.787 317C446.787 404.24 517.761 475.214 605 475.214C639.507 475.214 671.459 464.098 697.489 445.274C698.038 444.782 698.742 444.264 699.559 443.728C709.308 436.436 718.207 428.068 726.04 418.766C716.965 412.271 711.217 401.642 711.217 390.066C711.217 382.386 713.693 375.278 717.879 369.481C724.039 360.949 733.915 355.282 745.115 354.855C745.554 354.831 746.002 354.814 746.471 354.814C746.81 354.814 747.148 354.826 747.486 354.836C748.665 347.89 749.393 340.793 749.625 333.572C737.324 330.944 726.508 323.777 719.28 313.495ZM541.159 423.073C530.169 423.073 520.34 418.016 513.87 410.109C508.653 403.961 505.497 396.012 505.497 387.337C505.497 367.898 521.311 352.084 540.749 352.084C551.739 352.084 561.568 357.141 568.038 365.048C573.255 371.196 576.411 379.145 576.411 387.82C576.411 407.259 560.598 423.073 541.159 423.073ZM564.458 296.178C553.469 296.178 543.64 291.121 537.169 283.214C531.953 277.066 528.796 269.117 528.796 260.442C528.796 241.003 544.61 225.189 564.049 225.189C575.038 225.189 584.867 230.246 591.337 238.153C596.554 244.301 599.711 252.25 599.711 260.925C599.711 280.363 583.897 296.178 564.458 296.178ZM637.287 406.256C623.175 406.256 610.55 399.77 602.23 389.624C595.575 381.733 591.553 371.553 591.553 360.447C591.553 335.454 611.886 315.122 636.878 315.122C650.991 315.122 663.615 321.608 671.935 331.754C678.59 339.644 682.612 349.825 682.612 360.931C682.612 385.923 662.279 406.256 637.287 406.256Z" fill="#EFD8B1"/>
<path d="M564.049 278.907C574.231 278.907 582.514 270.623 582.514 260.441C582.514 250.259 574.231 241.975 564.049 241.975C553.867 241.975 545.583 250.259 545.583 260.441C545.583 270.623 553.867 278.907 564.049 278.907Z" fill="#A06F4C"/>
<path d="M540.75 405.802C550.932 405.802 559.216 397.519 559.216 387.337C559.216 377.155 550.932 368.871 540.75 368.871C530.568 368.871 522.284 377.155 522.284 387.337C522.284 397.519 530.568 405.802 540.75 405.802Z" fill="#A06F4C"/>
<path d="M488.735 231.064C488.735 225.606 486.353 220.577 482.387 217.134C474.704 226.55 468.084 236.863 462.706 247.89C465.064 248.952 467.63 249.53 470.269 249.53C480.451 249.53 488.735 241.246 488.735 231.064Z" fill="#A06F4C"/>
<path d="M728.004 390.066C728.004 396.296 731.185 401.999 736.166 405.37C742.985 395.281 748.667 384.366 753.038 372.812C750.965 372.02 748.756 371.6 746.47 371.6C736.289 371.6 728.004 379.883 728.004 390.066Z" fill="#A06F4C"/>
<path d="M636.878 388.985C652.614 388.985 665.416 376.183 665.416 360.448C665.416 344.711 652.614 331.91 636.878 331.91C621.142 331.91 608.34 344.711 608.34 360.448C608.34 376.183 621.142 388.985 636.878 388.985Z" fill="#A06F4C"/>
<path d="M591.338 238.152C596.311 244.231 599.301 251.992 599.301 260.441C599.301 279.879 583.487 295.694 564.049 295.694C553.287 295.694 543.641 290.841 537.169 283.213C543.639 291.12 553.469 296.177 564.458 296.177C583.897 296.177 599.711 280.363 599.711 260.925C599.711 252.249 596.555 244.3 591.338 238.152Z" fill="#A06F4C"/>
<path d="M576.003 387.337C576.003 406.775 560.189 422.589 540.75 422.589C529.988 422.589 520.342 417.736 513.871 410.109C520.341 418.016 530.17 423.073 541.16 423.073C560.598 423.073 576.412 407.259 576.412 387.82C576.412 379.144 573.255 371.196 568.039 365.048C573.012 371.127 576.003 378.888 576.003 387.337Z" fill="#A06F4C"/>
<path d="M682.203 360.448C682.203 385.44 661.87 405.772 636.878 405.772C622.993 405.772 610.552 399.49 602.231 389.625C610.549 399.77 623.174 406.257 637.288 406.257C662.279 406.257 682.612 385.924 682.612 360.932C682.612 349.826 678.59 339.645 671.935 331.754C678.348 339.575 682.203 349.568 682.203 360.448Z" fill="#A06F4C"/>
<path d="M564.049 295.694C583.487 295.694 599.301 279.879 599.301 260.441C599.301 251.992 596.312 244.231 591.338 238.152C584.868 230.246 575.039 225.188 564.049 225.188C544.61 225.188 528.796 241.003 528.796 260.441C528.796 269.117 531.953 277.065 537.169 283.213C543.642 290.841 553.287 295.694 564.049 295.694ZM564.049 241.975C574.231 241.975 582.514 250.259 582.514 260.441C582.514 270.623 574.231 278.907 564.049 278.907C553.867 278.907 545.583 270.623 545.583 260.441C545.583 250.259 553.867 241.975 564.049 241.975Z" fill="black"/>
<path d="M540.75 422.589C560.189 422.589 576.003 406.775 576.003 387.337C576.003 378.888 573.013 371.127 568.039 365.048C561.569 357.141 551.74 352.084 540.75 352.084C521.312 352.084 505.498 367.898 505.498 387.337C505.498 396.013 508.654 403.961 513.871 410.109C520.342 417.736 529.987 422.589 540.75 422.589ZM540.75 368.871C550.932 368.871 559.216 377.155 559.216 387.337C559.216 397.519 550.932 405.802 540.75 405.802C530.568 405.802 522.284 397.519 522.284 387.337C522.284 377.155 530.568 368.871 540.75 368.871Z" fill="black"/>
<path d="M779.983 315.406L779.972 314.708C779.918 310.277 776.428 306.652 772.003 306.429C759.518 305.798 748.495 298.338 743.238 286.962C742.193 284.701 740.197 283.02 737.792 282.375C735.385 281.729 732.817 282.187 730.781 283.623C725.152 287.593 718.252 289.78 711.353 289.78C705.508 289.78 699.723 288.224 694.621 285.279C683.325 278.757 676.792 266.139 677.977 253.133C678.202 250.652 677.314 248.198 675.553 246.437C673.79 244.675 671.328 243.79 668.857 244.013C667.854 244.104 666.834 244.15 665.824 244.15C653.845 244.15 642.69 237.719 636.713 227.367C630.191 216.071 630.842 201.876 638.371 191.204C639.807 189.169 640.266 186.6 639.62 184.194C638.976 181.788 637.295 179.792 635.034 178.747C623.663 173.491 616.204 162.474 615.57 149.996C615.346 145.573 611.724 142.086 607.296 142.029L606.611 142.018C606.076 142.008 605.539 142 605.001 142C508.505 142 430.001 220.505 430.001 317C430.001 413.496 508.505 492.001 605.001 492.001C701.496 492.001 780 413.496 780 317C780 316.467 779.992 315.937 779.983 315.406ZM482.387 217.134C486.353 220.577 488.735 225.606 488.735 231.064C488.735 241.246 480.452 249.53 470.269 249.53C467.63 249.53 465.064 248.951 462.706 247.889C468.084 236.863 474.704 226.55 482.387 217.134ZM736.167 405.371C731.185 402 728.005 396.297 728.005 390.066C728.005 379.884 736.289 371.601 746.471 371.601C748.758 371.601 750.966 372.021 753.039 372.813C748.668 384.367 742.986 395.282 736.167 405.371ZM758.141 356.811C754.727 355.612 751.129 354.941 747.486 354.835C747.147 354.825 746.809 354.813 746.47 354.813C746.015 354.813 745.566 354.837 745.114 354.854C733.914 355.281 724.038 360.948 717.878 369.48C713.693 375.276 711.216 382.385 711.216 390.066C711.216 401.641 716.964 412.27 726.039 418.765C718.207 428.067 709.307 436.435 699.559 443.727C698.869 444.244 698.186 444.768 697.488 445.274C671.458 464.098 639.506 475.213 604.999 475.213C517.761 475.213 446.787 404.24 446.787 317C446.787 303.339 448.537 290.08 451.809 277.427C453.037 272.679 454.473 268.014 456.12 263.448C456.13 263.421 456.138 263.393 456.148 263.365C456.16 263.37 456.173 263.375 456.185 263.38C460.585 265.3 465.366 266.316 470.269 266.316C477.228 266.316 483.717 264.281 489.188 260.787C498.998 254.52 505.522 243.543 505.522 231.064C505.522 221.313 501.549 212.273 494.836 205.767C494.458 205.4 494.076 205.037 493.681 204.687C521.154 177.454 558.528 160.195 599.86 158.868C602.509 171.26 609.734 182.157 620.094 189.436C613.325 204.12 613.932 221.481 622.175 235.759C630.377 249.965 645.071 259.248 661.261 260.728C662.739 276.833 671.945 291.572 686.227 299.816C693.876 304.233 702.565 306.567 711.353 306.566C718.756 306.566 725.951 304.974 732.554 301.913C739.836 312.273 750.735 319.495 763.128 322.143C762.747 334.076 761.037 345.68 758.141 356.811Z" fill="black"/>
<path d="M636.878 405.772C661.869 405.772 682.203 385.44 682.203 360.448C682.203 349.569 678.348 339.575 671.935 331.754C663.616 321.609 650.992 315.123 636.878 315.123C611.886 315.123 591.553 335.455 591.553 360.448C591.553 371.554 595.575 381.734 602.231 389.625C610.552 399.49 622.993 405.772 636.878 405.772ZM636.878 331.91C652.614 331.91 665.416 344.711 665.416 360.448C665.416 376.183 652.614 388.985 636.878 388.985C621.142 388.985 608.34 376.183 608.34 360.448C608.34 344.711 621.142 331.91 636.878 331.91Z" fill="black"/>
</g>
<g filter="url(#filter0_d_186_5294)">
<mask id="path-94-outside-1_186_5294" maskUnits="userSpaceOnUse" x="367" y="238" width="484" height="118" fill="black">
<rect fill="white" x="367" y="238" width="484" height="118"/>
<path d="M414.038 352.491C405.444 352.491 397.809 351.018 391.133 348.07C384.492 345.087 379.272 340.986 375.472 335.766C371.673 330.545 369.755 324.544 369.719 317.761H399.549C399.585 319.857 400.224 321.739 401.467 323.408C402.745 325.041 404.485 326.32 406.687 327.243C408.888 328.166 411.41 328.628 414.251 328.628C416.985 328.628 419.4 328.148 421.495 327.19C423.59 326.195 425.224 324.828 426.396 323.088C427.567 321.348 428.136 319.359 428.1 317.122C428.136 314.92 427.461 312.967 426.076 311.263C424.727 309.558 422.827 308.227 420.376 307.268C417.926 306.309 415.103 305.83 411.907 305.83H400.827V285.375H411.907C414.854 285.375 417.447 284.896 419.684 283.937C421.957 282.978 423.714 281.646 424.957 279.942C426.236 278.237 426.857 276.284 426.822 274.082C426.857 271.952 426.342 270.07 425.277 268.436C424.212 266.803 422.72 265.524 420.803 264.601C418.92 263.678 416.737 263.216 414.251 263.216C411.552 263.216 409.137 263.695 407.006 264.654C404.911 265.613 403.26 266.945 402.053 268.649C400.845 270.354 400.224 272.307 400.188 274.509H371.85C371.886 267.832 373.714 261.937 377.337 256.824C380.994 251.71 386.001 247.697 392.358 244.786C398.714 241.874 406.012 240.418 414.251 240.418C422.312 240.418 429.432 241.785 435.611 244.519C441.825 247.254 446.673 251.018 450.153 255.812C453.668 260.57 455.408 266.021 455.373 272.165C455.444 278.273 453.349 283.28 449.087 287.186C444.862 291.092 439.499 293.401 433.001 294.111V294.963C441.808 295.922 448.43 298.621 452.869 303.06C457.308 307.463 459.492 313.003 459.421 319.679C459.457 326.071 457.539 331.735 453.668 336.671C449.833 341.607 444.489 345.478 437.635 348.283C430.817 351.089 422.951 352.491 414.038 352.491ZM541.466 338.855L475.415 273.017L493.312 254.906L559.363 320.957L541.466 338.855ZM493.312 338.855L475.415 320.957L541.466 254.906L559.363 273.017L493.312 338.855ZM630.129 241.909V351H600.512V269.182H599.873L576.009 283.457V258.315L602.856 241.909H630.129ZM700.042 353.983C690.134 353.947 681.576 351.657 674.367 347.112C667.158 342.566 661.601 336.014 657.694 327.456C653.788 318.898 651.853 308.635 651.888 296.668C651.924 284.665 653.877 274.473 657.748 266.092C661.654 257.712 667.194 251.337 674.367 246.969C681.576 242.602 690.134 240.418 700.042 240.418C709.949 240.418 718.508 242.619 725.716 247.023C732.925 251.391 738.483 257.765 742.389 266.146C746.295 274.526 748.231 284.7 748.195 296.668C748.195 308.706 746.242 319.004 742.336 327.562C738.43 336.121 732.872 342.673 725.663 347.218C718.49 351.728 709.949 353.983 700.042 353.983ZM700.042 329.906C705.155 329.906 709.346 327.243 712.613 321.916C715.915 316.554 717.549 308.138 717.513 296.668C717.513 289.175 716.768 283.049 715.276 278.29C713.785 273.532 711.725 270.016 709.097 267.744C706.469 265.435 703.451 264.281 700.042 264.281C694.928 264.281 690.756 266.874 687.524 272.058C684.292 277.243 682.641 285.446 682.57 296.668C682.535 304.303 683.263 310.588 684.754 315.524C686.246 320.425 688.305 324.047 690.933 326.391C693.596 328.734 696.633 329.906 700.042 329.906ZM788.731 331.611L788.944 296.668H792.78L812.595 269.182H845.621L812.382 312.009H804.072L788.731 331.611ZM762.311 351V241.909H791.714V351H762.311ZM812.808 351L794.058 318.614L813.234 297.733L846.473 351H812.808Z"/>
</mask>
<path d="M414.038 352.491C405.444 352.491 397.809 351.018 391.133 348.07C384.492 345.087 379.272 340.986 375.472 335.766C371.673 330.545 369.755 324.544 369.719 317.761H399.549C399.585 319.857 400.224 321.739 401.467 323.408C402.745 325.041 404.485 326.32 406.687 327.243C408.888 328.166 411.41 328.628 414.251 328.628C416.985 328.628 419.4 328.148 421.495 327.19C423.59 326.195 425.224 324.828 426.396 323.088C427.567 321.348 428.136 319.359 428.1 317.122C428.136 314.92 427.461 312.967 426.076 311.263C424.727 309.558 422.827 308.227 420.376 307.268C417.926 306.309 415.103 305.83 411.907 305.83H400.827V285.375H411.907C414.854 285.375 417.447 284.896 419.684 283.937C421.957 282.978 423.714 281.646 424.957 279.942C426.236 278.237 426.857 276.284 426.822 274.082C426.857 271.952 426.342 270.07 425.277 268.436C424.212 266.803 422.72 265.524 420.803 264.601C418.92 263.678 416.737 263.216 414.251 263.216C411.552 263.216 409.137 263.695 407.006 264.654C404.911 265.613 403.26 266.945 402.053 268.649C400.845 270.354 400.224 272.307 400.188 274.509H371.85C371.886 267.832 373.714 261.937 377.337 256.824C380.994 251.71 386.001 247.697 392.358 244.786C398.714 241.874 406.012 240.418 414.251 240.418C422.312 240.418 429.432 241.785 435.611 244.519C441.825 247.254 446.673 251.018 450.153 255.812C453.668 260.57 455.408 266.021 455.373 272.165C455.444 278.273 453.349 283.28 449.087 287.186C444.862 291.092 439.499 293.401 433.001 294.111V294.963C441.808 295.922 448.43 298.621 452.869 303.06C457.308 307.463 459.492 313.003 459.421 319.679C459.457 326.071 457.539 331.735 453.668 336.671C449.833 341.607 444.489 345.478 437.635 348.283C430.817 351.089 422.951 352.491 414.038 352.491ZM541.466 338.855L475.415 273.017L493.312 254.906L559.363 320.957L541.466 338.855ZM493.312 338.855L475.415 320.957L541.466 254.906L559.363 273.017L493.312 338.855ZM630.129 241.909V351H600.512V269.182H599.873L576.009 283.457V258.315L602.856 241.909H630.129ZM700.042 353.983C690.134 353.947 681.576 351.657 674.367 347.112C667.158 342.566 661.601 336.014 657.694 327.456C653.788 318.898 651.853 308.635 651.888 296.668C651.924 284.665 653.877 274.473 657.748 266.092C661.654 257.712 667.194 251.337 674.367 246.969C681.576 242.602 690.134 240.418 700.042 240.418C709.949 240.418 718.508 242.619 725.716 247.023C732.925 251.391 738.483 257.765 742.389 266.146C746.295 274.526 748.231 284.7 748.195 296.668C748.195 308.706 746.242 319.004 742.336 327.562C738.43 336.121 732.872 342.673 725.663 347.218C718.49 351.728 709.949 353.983 700.042 353.983ZM700.042 329.906C705.155 329.906 709.346 327.243 712.613 321.916C715.915 316.554 717.549 308.138 717.513 296.668C717.513 289.175 716.768 283.049 715.276 278.29C713.785 273.532 711.725 270.016 709.097 267.744C706.469 265.435 703.451 264.281 700.042 264.281C694.928 264.281 690.756 266.874 687.524 272.058C684.292 277.243 682.641 285.446 682.57 296.668C682.535 304.303 683.263 310.588 684.754 315.524C686.246 320.425 688.305 324.047 690.933 326.391C693.596 328.734 696.633 329.906 700.042 329.906ZM788.731 331.611L788.944 296.668H792.78L812.595 269.182H845.621L812.382 312.009H804.072L788.731 331.611ZM762.311 351V241.909H791.714V351H762.311ZM812.808 351L794.058 318.614L813.234 297.733L846.473 351H812.808Z" fill="white"/>
<path d="M391.133 348.07L390.313 349.895L390.325 349.9L391.133 348.07ZM375.472 335.766L377.089 334.589L377.089 334.589L375.472 335.766ZM369.719 317.761V315.761H367.709L367.719 317.772L369.719 317.761ZM399.549 317.761L401.549 317.727L401.515 315.761H399.549V317.761ZM401.467 323.408L399.863 324.602L399.877 324.621L399.892 324.64L401.467 323.408ZM406.687 327.243L405.913 329.087L405.913 329.087L406.687 327.243ZM421.495 327.19L422.327 329.008L422.34 329.002L422.353 328.996L421.495 327.19ZM426.396 323.088L428.054 324.205L428.054 324.205L426.396 323.088ZM428.1 317.122L426.1 317.09L426.1 317.122L426.1 317.154L428.1 317.122ZM426.076 311.263L424.508 312.504L424.516 312.514L424.524 312.524L426.076 311.263ZM400.827 305.83H398.827V307.83H400.827V305.83ZM400.827 285.375V283.375H398.827V285.375H400.827ZM419.684 283.937L418.907 282.094L418.896 282.098L419.684 283.937ZM424.957 279.942L423.357 278.742L423.349 278.753L423.341 278.763L424.957 279.942ZM426.822 274.082L424.822 274.049L424.821 274.082L424.822 274.115L426.822 274.082ZM425.277 268.436L423.602 269.529L423.602 269.529L425.277 268.436ZM420.803 264.601L419.922 266.396L419.928 266.4L419.935 266.403L420.803 264.601ZM407.006 264.654L406.186 262.83L406.174 262.835L407.006 264.654ZM402.053 268.649L403.685 269.805L403.685 269.805L402.053 268.649ZM400.188 274.509V276.509H402.156L402.188 274.541L400.188 274.509ZM371.85 274.509L369.85 274.498L369.839 276.509H371.85V274.509ZM377.337 256.824L375.71 255.66L375.705 255.668L377.337 256.824ZM392.358 244.786L393.191 246.604L393.191 246.604L392.358 244.786ZM435.611 244.519L434.801 246.348L434.805 246.35L435.611 244.519ZM450.153 255.812L448.534 256.987L448.539 256.993L448.544 257L450.153 255.812ZM455.373 272.165L453.373 272.153L453.373 272.171L453.373 272.188L455.373 272.165ZM449.087 287.186L447.736 285.712L447.73 285.717L449.087 287.186ZM433.001 294.111L432.783 292.123L431.001 292.317V294.111H433.001ZM433.001 294.963H431.001V296.757L432.784 296.951L433.001 294.963ZM452.869 303.06L451.455 304.474L451.461 304.48L452.869 303.06ZM459.421 319.679L457.421 319.658L457.421 319.674L457.421 319.69L459.421 319.679ZM453.668 336.671L452.094 335.437L452.089 335.444L453.668 336.671ZM437.635 348.283L436.877 346.432L436.874 346.434L437.635 348.283ZM414.038 350.491C405.673 350.491 398.321 349.058 391.941 346.241L390.325 349.9C397.297 352.978 405.215 354.491 414.038 354.491V350.491ZM391.952 346.246C385.588 343.387 380.659 339.493 377.089 334.589L373.855 336.943C377.885 342.479 383.396 346.788 390.313 349.895L391.952 346.246ZM377.089 334.589C373.549 329.725 371.753 324.137 371.719 317.751L367.719 317.772C367.757 324.951 369.796 331.366 373.855 336.943L377.089 334.589ZM369.719 319.761H399.549V315.761H369.719V319.761ZM397.549 317.795C397.592 320.306 398.368 322.595 399.863 324.602L403.071 322.213C402.08 320.883 401.577 319.407 401.549 317.727L397.549 317.795ZM399.892 324.64C401.411 326.581 403.445 328.052 405.913 329.087L407.46 325.399C405.526 324.587 404.08 323.501 403.042 322.175L399.892 324.64ZM405.913 329.087C408.402 330.131 411.194 330.628 414.251 330.628V326.628C411.626 326.628 409.375 326.202 407.46 325.399L405.913 329.087ZM414.251 330.628C417.219 330.628 419.927 330.107 422.327 329.008L420.663 325.371C418.873 326.19 416.751 326.628 414.251 326.628V330.628ZM422.353 328.996C424.737 327.865 426.661 326.274 428.054 324.205L424.737 321.971C423.786 323.383 422.444 324.526 420.638 325.383L422.353 328.996ZM428.054 324.205C429.47 322.103 430.141 319.708 430.1 317.09L426.1 317.154C426.13 319.011 425.665 320.593 424.737 321.971L428.054 324.205ZM430.1 317.154C430.143 314.484 429.311 312.072 427.628 310.002L424.524 312.524C425.611 313.862 426.128 315.357 426.1 317.09L430.1 317.154ZM427.644 310.021C426.033 307.986 423.816 306.466 421.105 305.405L419.648 309.13C421.837 309.987 423.42 311.13 424.508 312.504L427.644 310.021ZM421.105 305.405C418.379 304.338 415.3 303.83 411.907 303.83V307.83C414.906 307.83 417.474 308.28 419.648 309.13L421.105 305.405ZM411.907 303.83H400.827V307.83H411.907V303.83ZM402.827 305.83V285.375H398.827V305.83H402.827ZM400.827 287.375H411.907V283.375H400.827V287.375ZM411.907 287.375C415.069 287.375 417.939 286.861 420.472 285.775L418.896 282.098C416.954 282.931 414.639 283.375 411.907 283.375V287.375ZM420.461 285.78C423.011 284.704 425.083 283.165 426.573 281.12L423.341 278.763C422.346 280.128 420.902 281.252 418.907 282.094L420.461 285.78ZM426.557 281.142C428.112 279.07 428.864 276.68 428.821 274.05L424.822 274.115C424.851 275.889 424.36 277.405 423.357 278.742L426.557 281.142ZM428.821 274.116C428.863 271.624 428.256 269.343 426.952 267.344L423.602 269.529C424.429 270.797 424.852 272.279 424.822 274.049L428.821 274.116ZM426.952 267.344C425.669 265.377 423.886 263.866 421.67 262.799L419.935 266.403C421.555 267.183 422.754 268.228 423.602 269.529L426.952 267.344ZM421.683 262.805C419.481 261.725 416.986 261.216 414.251 261.216V265.216C416.487 265.216 418.36 265.63 419.922 266.396L421.683 262.805ZM414.251 261.216C411.313 261.216 408.611 261.739 406.186 262.83L407.827 266.478C409.663 265.652 411.791 265.216 414.251 265.216V261.216ZM406.174 262.835C403.793 263.925 401.852 265.472 400.421 267.493L403.685 269.805C404.668 268.417 406.03 267.3 407.839 266.473L406.174 262.835ZM400.421 267.493C398.967 269.545 398.23 271.895 398.188 274.476L402.188 274.541C402.217 272.719 402.723 271.162 403.685 269.805L400.421 267.493ZM400.188 272.509H371.85V276.509H400.188V272.509ZM373.85 274.519C373.884 268.225 375.6 262.736 378.969 257.98L375.705 255.668C371.829 261.139 369.888 267.44 369.85 274.498L373.85 274.519ZM378.963 257.987C382.396 253.188 387.115 249.387 393.191 246.604L391.525 242.967C384.888 246.008 379.593 250.232 375.71 255.66L378.963 257.987ZM393.191 246.604C399.244 243.831 406.249 242.418 414.251 242.418V238.418C405.775 238.418 398.185 239.916 391.525 242.967L393.191 246.604ZM414.251 242.418C422.086 242.418 428.922 243.746 434.801 246.348L436.42 242.69C429.942 239.823 422.538 238.418 414.251 238.418V242.418ZM434.805 246.35C440.744 248.963 445.291 252.519 448.534 256.987L451.771 254.637C448.054 249.516 442.907 245.544 436.416 242.689L434.805 246.35ZM448.544 257C451.793 261.397 453.406 266.424 453.373 272.153L457.373 272.176C457.411 265.619 455.544 259.743 451.761 254.623L448.544 257ZM453.373 272.188C453.438 277.764 451.552 282.214 447.736 285.712L450.439 288.66C455.146 284.346 457.45 278.782 457.373 272.142L453.373 272.188ZM447.73 285.717C443.86 289.294 438.917 291.452 432.783 292.123L433.218 296.099C440.082 295.349 445.863 292.891 450.445 288.655L447.73 285.717ZM431.001 294.111V294.963H435.001V294.111H431.001ZM432.784 296.951C441.321 297.881 447.448 300.467 451.455 304.474L454.284 301.645C449.413 296.775 442.294 293.963 433.217 292.975L432.784 296.951ZM451.461 304.48C455.488 308.474 457.487 313.481 457.421 319.658L461.421 319.7C461.497 312.524 459.129 306.452 454.278 301.64L451.461 304.48ZM457.421 319.69C457.454 325.64 455.681 330.863 452.095 335.437L455.242 337.905C459.397 332.607 461.459 326.502 461.421 319.668L457.421 319.69ZM452.089 335.444C448.505 340.057 443.467 343.735 436.877 346.432L438.393 350.134C445.51 347.221 451.161 343.158 455.248 337.898L452.089 335.444ZM436.874 346.434C430.342 349.121 422.743 350.491 414.038 350.491V354.491C423.159 354.491 431.292 353.056 438.396 350.133L436.874 346.434ZM541.466 338.855L540.054 340.272L541.468 341.681L542.88 340.269L541.466 338.855ZM475.415 273.017L473.992 271.611L472.592 273.028L474.003 274.434L475.415 273.017ZM493.312 254.906L494.727 253.492L493.304 252.069L491.89 253.5L493.312 254.906ZM559.363 320.957L560.778 322.372L562.192 320.957L560.778 319.543L559.363 320.957ZM493.312 338.855L491.898 340.269L493.31 341.681L494.724 340.272L493.312 338.855ZM475.415 320.957L474 319.543L472.586 320.957L474 322.372L475.415 320.957ZM541.466 254.906L542.888 253.5L541.474 252.069L540.052 253.492L541.466 254.906ZM559.363 273.017L560.775 274.434L562.186 273.028L560.786 271.611L559.363 273.017ZM542.878 337.439L476.827 271.601L474.003 274.434L540.054 340.272L542.878 337.439ZM476.837 274.423L494.735 256.312L491.89 253.5L473.992 271.611L476.837 274.423ZM491.898 256.32L557.949 322.372L560.778 319.543L494.727 253.492L491.898 256.32ZM557.949 319.543L540.052 337.441L542.88 340.269L560.778 322.372L557.949 319.543ZM494.727 337.441L476.829 319.543L474 322.372L491.898 340.269L494.727 337.441ZM476.829 322.372L542.88 256.32L540.052 253.492L474 319.543L476.829 322.372ZM540.043 256.312L557.941 274.423L560.786 271.611L542.888 253.5L540.043 256.312ZM557.952 271.601L491.9 337.439L494.724 340.272L560.775 274.434L557.952 271.601ZM630.129 241.909H632.129V239.909H630.129V241.909ZM630.129 351V353H632.129V351H630.129ZM600.512 351H598.512V353H600.512V351ZM600.512 269.182H602.512V267.182H600.512V269.182ZM599.873 269.182V267.182H599.32L598.846 267.465L599.873 269.182ZM576.009 283.457H574.009V286.984L577.036 285.174L576.009 283.457ZM576.009 258.315L574.967 256.609L574.009 257.194V258.315H576.009ZM602.856 241.909V239.909H602.293L601.813 240.203L602.856 241.909ZM628.129 241.909V351H632.129V241.909H628.129ZM630.129 349H600.512V353H630.129V349ZM602.512 351V269.182H598.512V351H602.512ZM600.512 267.182H599.873V271.182H600.512V267.182ZM598.846 267.465L574.983 281.741L577.036 285.174L600.9 270.898L598.846 267.465ZM578.009 283.457V258.315H574.009V283.457H578.009ZM577.052 260.022L603.899 243.616L601.813 240.203L574.967 256.609L577.052 260.022ZM602.856 243.909H630.129V239.909H602.856V243.909ZM700.042 353.983L700.035 355.983H700.042V353.983ZM674.367 347.112L673.3 348.803L673.3 348.803L674.367 347.112ZM657.694 327.456L655.875 328.286L655.875 328.286L657.694 327.456ZM651.888 296.668L653.888 296.674L653.888 296.674L651.888 296.668ZM657.748 266.092L655.935 265.247L655.932 265.254L657.748 266.092ZM674.367 246.969L673.331 245.259L673.327 245.261L674.367 246.969ZM725.716 247.023L724.674 248.73L724.68 248.733L725.716 247.023ZM742.389 266.146L744.202 265.301L744.202 265.301L742.389 266.146ZM748.195 296.668L746.195 296.662V296.668H748.195ZM742.336 327.562L744.155 328.393L744.155 328.393L742.336 327.562ZM725.663 347.218L726.728 348.911L726.73 348.91L725.663 347.218ZM712.613 321.916L710.91 320.867L710.908 320.871L712.613 321.916ZM717.513 296.668L715.513 296.668L715.513 296.674L717.513 296.668ZM715.276 278.29L717.185 277.692L717.185 277.692L715.276 278.29ZM709.097 267.744L707.777 269.246L707.783 269.251L707.789 269.256L709.097 267.744ZM687.524 272.058L685.827 271L685.827 271L687.524 272.058ZM682.57 296.668L680.57 296.655L680.57 296.658L682.57 296.668ZM684.754 315.524L682.84 316.103L682.841 316.106L684.754 315.524ZM690.933 326.391L689.602 327.883L689.612 327.892L690.933 326.391ZM700.049 351.983C690.454 351.949 682.277 349.734 675.434 345.42L673.3 348.803C680.875 353.58 689.814 355.946 700.035 355.983L700.049 351.983ZM675.434 345.42C668.588 341.103 663.276 334.868 659.514 326.626L655.875 328.286C659.925 337.161 665.728 344.029 673.3 348.803L675.434 345.42ZM659.514 326.626C655.755 318.391 653.853 308.428 653.888 296.674L649.888 296.662C649.852 308.842 651.821 319.404 655.875 328.286L659.514 326.626ZM653.888 296.674C653.923 284.875 655.844 274.985 659.563 266.931L655.932 265.254C651.91 273.961 649.924 284.454 649.888 296.662L653.888 296.674ZM659.56 266.937C663.318 258.877 668.605 252.82 675.407 248.678L673.327 245.261C665.783 249.855 659.99 256.547 655.935 265.247L659.56 266.937ZM675.403 248.68C682.249 244.532 690.435 242.418 700.042 242.418V238.418C689.833 238.418 680.903 240.671 673.331 245.259L675.403 248.68ZM700.042 242.418C709.646 242.418 717.83 244.549 724.674 248.729L726.759 245.316C719.185 240.69 710.253 238.418 700.042 238.418V242.418ZM724.68 248.733C731.517 252.876 736.82 258.933 740.576 266.991L744.202 265.301C740.145 256.597 734.333 249.905 726.753 245.312L724.68 248.733ZM740.576 266.991C744.327 275.038 746.23 284.905 746.195 296.662L750.195 296.674C750.231 284.495 748.263 274.014 744.202 265.301L740.576 266.991ZM746.195 296.668C746.195 308.497 744.275 318.497 740.516 326.732L744.155 328.393C748.209 319.512 750.195 308.915 750.195 296.668H746.195ZM740.516 326.732C736.754 334.974 731.442 341.21 724.596 345.526L726.73 348.91C734.302 344.135 740.105 337.267 744.155 328.393L740.516 326.732ZM724.599 345.525C717.795 349.802 709.638 351.983 700.042 351.983V355.983C710.261 355.983 719.185 353.654 726.728 348.911L724.599 345.525ZM700.042 331.906C706.013 331.906 710.781 328.729 714.318 322.962L710.908 320.871C707.911 325.757 704.298 327.906 700.042 327.906V331.906ZM714.316 322.965C717.916 317.119 719.549 308.242 719.513 296.661L715.513 296.674C715.548 308.034 713.914 315.989 710.91 320.867L714.316 322.965ZM719.513 296.668C719.513 289.063 718.759 282.716 717.185 277.692L713.368 278.889C714.776 283.382 715.513 289.286 715.513 296.668H719.513ZM717.185 277.692C715.628 272.725 713.411 268.831 710.405 266.231L707.789 269.256C710.039 271.202 711.942 274.339 713.368 278.889L717.185 277.692ZM710.417 266.241C707.435 263.621 703.95 262.281 700.042 262.281V266.281C702.951 266.281 705.504 267.249 707.777 269.246L710.417 266.241ZM700.042 262.281C694.094 262.281 689.341 265.363 685.827 271L689.221 273.116C692.17 268.384 695.762 266.281 700.042 266.281V262.281ZM685.827 271C682.296 276.665 680.642 285.328 680.57 296.655L684.57 296.68C684.64 285.564 686.289 277.82 689.221 273.116L685.827 271ZM680.57 296.658C680.534 304.406 681.27 310.908 682.84 316.103L686.669 314.946C685.255 310.268 684.535 304.199 684.57 296.677L680.57 296.658ZM682.841 316.106C684.393 321.208 686.603 325.208 689.602 327.883L692.264 324.898C690.008 322.885 688.098 319.642 686.667 314.942L682.841 316.106ZM689.612 327.892C692.624 330.543 696.125 331.906 700.042 331.906V327.906C697.14 327.906 694.569 326.926 692.254 324.889L689.612 327.892ZM788.731 331.611L786.731 331.599L786.696 337.457L790.306 332.843L788.731 331.611ZM788.944 296.668V294.668H786.957L786.944 296.655L788.944 296.668ZM792.78 296.668V298.668H793.803L794.402 297.837L792.78 296.668ZM812.595 269.182V267.182H811.571L810.973 268.012L812.595 269.182ZM845.621 269.182L847.201 270.408L849.704 267.182H845.621V269.182ZM812.382 312.009V314.009H813.361L813.962 313.235L812.382 312.009ZM804.072 312.009V310.009H803.098L802.497 310.776L804.072 312.009ZM762.311 351H760.311V353H762.311V351ZM762.311 241.909V239.909H760.311V241.909H762.311ZM791.714 241.909H793.714V239.909H791.714V241.909ZM791.714 351V353H793.714V351H791.714ZM812.808 351L811.077 352.002L811.655 353H812.808V351ZM794.058 318.614L792.585 317.261L791.591 318.344L792.327 319.616L794.058 318.614ZM813.234 297.733L814.931 296.674L813.539 294.444L811.761 296.38L813.234 297.733ZM846.473 351V353H850.078L848.17 349.941L846.473 351ZM790.731 331.623L790.944 296.68L786.944 296.655L786.731 331.599L790.731 331.623ZM788.944 298.668H792.78V294.668H788.944V298.668ZM794.402 297.837L814.217 270.351L810.973 268.012L791.157 295.498L794.402 297.837ZM812.595 271.182H845.621V267.182H812.595V271.182ZM844.041 267.956L810.802 310.782L813.962 313.235L847.201 270.408L844.041 267.956ZM812.382 310.009H804.072V314.009H812.382V310.009ZM802.497 310.776L787.156 330.378L790.306 332.843L805.647 313.241L802.497 310.776ZM764.311 351V241.909H760.311V351H764.311ZM762.311 243.909H791.714V239.909H762.311V243.909ZM789.714 241.909V351H793.714V241.909H789.714ZM791.714 349H762.311V353H791.714V349ZM814.539 349.998L795.789 317.612L792.327 319.616L811.077 352.002L814.539 349.998ZM795.531 319.966L814.707 299.086L811.761 296.38L792.585 317.261L795.531 319.966ZM811.537 298.792L844.776 352.059L848.17 349.941L814.931 296.674L811.537 298.792ZM846.473 349H812.808V353H846.473V349Z" fill="#A06F4C" mask="url(#path-94-outside-1_186_5294)"/>
</g>
</g>
<rect x="2.5" y="2.5" width="1205" height="586" stroke="#A06F4C" stroke-width="5"/>
<defs>
<filter id="filter0_d_186_5294" x="363.409" y="238.418" width="490.969" height="131.865" filterUnits="userSpaceOnUse" color-interpolation-filters="sRGB">
<feFlood flood-opacity="0" result="BackgroundImageFix"/>
<feColorMatrix in="SourceAlpha" type="matrix" values="0 0 0 0 0 0 0 0 0 0 0 0 0 0 0 0 0 0 127 0" result="hardAlpha"/>
<feOffset dy="10"/>
<feGaussianBlur stdDeviation="2.15"/>
<feComposite in2="hardAlpha" operator="out"/>
<feColorMatrix type="matrix" values="0 0 0 0 1 0 0 0 0 1 0 0 0 0 1 0 0 0 1 0"/>
<feBlend mode="normal" in2="BackgroundImageFix" result="effect1_dropShadow_186_5294"/>
<feBlend mode="normal" in="SourceGraphic" in2="effect1_dropShadow_186_5294" result="shape"/>
</filter>
<radialGradient id="paint0_radial_186_5294" cx="0" cy="0" r="1" gradientUnits="userSpaceOnUse" gradientTransform="translate(1122.43 -227.792) rotate(90) scale(200)">
<stop offset="0.875" stop-color="white" stop-opacity="0"/>
<stop offset="1" stop-color="#EFD8B1"/>
</radialGradient>
<radialGradient id="paint1_radial_186_5294" cx="0" cy="0" r="1" gradientUnits="userSpaceOnUse" gradientTransform="translate(1122.43 -227.792) rotate(90) scale(255)">
<stop offset="0.9" stop-color="white" stop-opacity="0"/>
<stop offset="0.9001" stop-color="#EFD8B1"/>
</radialGradient>
<radialGradient id="paint2_radial_186_5294" cx="0" cy="0" r="1" gradientUnits="userSpaceOnUse" gradientTransform="translate(57.5 57.5) rotate(90) scale(57.5)">
<stop offset="0.8" stop-color="white" stop-opacity="0"/>
<stop offset="0.8001" stop-color="#EFD8B1"/>
</radialGradient>
<radialGradient id="paint3_radial_186_5294" cx="0" cy="0" r="1" gradientUnits="userSpaceOnUse" gradientTransform="translate(75.5 75.5) rotate(90) scale(75.5)">
<stop offset="0.905" stop-color="white" stop-opacity="0"/>
<stop offset="1" stop-color="#EFD8B1"/>
</radialGradient>
<radialGradient id="paint4_radial_186_5294" cx="0" cy="0" r="1" gradientUnits="userSpaceOnUse" gradientTransform="translate(973.952 162.959) rotate(90) scale(54.5)">
<stop offset="0.8" stop-color="#D9D9D9" stop-opacity="0"/>
<stop offset="1" stop-color="#EFD8B1"/>
</radialGradient>
<radialGradient id="paint5_radial_186_5294" cx="0" cy="0" r="1" gradientUnits="userSpaceOnUse" gradientTransform="translate(973.952 162.959) rotate(90) scale(77.5)">
<stop offset="0.86" stop-color="white" stop-opacity="0"/>
<stop offset="1" stop-color="#EFD8B1"/>
</radialGradient>
<radialGradient id="paint6_radial_186_5294" cx="0" cy="0" r="1" gradientUnits="userSpaceOnUse" gradientTransform="translate(973.952 162.959) rotate(90) scale(124.5)">
<stop offset="0.88" stop-color="#D9D9D9" stop-opacity="0"/>
<stop offset="1" stop-color="#EFD8B1"/>
</radialGradient>
<radialGradient id="paint7_radial_186_5294" cx="0" cy="0" r="1" gradientUnits="userSpaceOnUse" gradientTransform="translate(1216.56 311.261) rotate(90) scale(55.6373)">
<stop offset="0.7" stop-color="white" stop-opacity="0"/>
<stop offset="1" stop-color="#EFD8B1"/>
</radialGradient>
<radialGradient id="paint8_radial_186_5294" cx="0" cy="0" r="1" gradientUnits="userSpaceOnUse" gradientTransform="translate(1216.56 311.261) rotate(90) scale(89.0196)">
<stop offset="0.875" stop-color="white" stop-opacity="0"/>
<stop offset="1" stop-color="#EFD8B1"/>
</radialGradient>
<radialGradient id="paint9_radial_186_5294" cx="0" cy="0" r="1" gradientUnits="userSpaceOnUse" gradientTransform="translate(1216.56 311.261) rotate(90) scale(113.5)">
<stop offset="0.9" stop-color="white" stop-opacity="0"/>
<stop offset="0.9001" stop-color="#EFD8B1"/>
</radialGradient>
<radialGradient id="paint10_radial_186_5294" cx="0" cy="0" r="1" gradientUnits="userSpaceOnUse" gradientTransform="translate(131.58 131.58) rotate(90) scale(131.58)">
<stop offset="0.8" stop-color="white" stop-opacity="0"/>
<stop offset="0.8001" stop-color="#EFD8B1"/>
</radialGradient>
<radialGradient id="paint11_radial_186_5294" cx="0" cy="0" r="1" gradientUnits="userSpaceOnUse" gradientTransform="translate(172.77 172.77) rotate(90) scale(172.77)">
<stop offset="0.905" stop-color="white" stop-opacity="0"/>
<stop offset="1" stop-color="#EFD8B1"/>
</radialGradient>
<radialGradient id="paint12_radial_186_5294" cx="0" cy="0" r="1" gradientUnits="userSpaceOnUse" gradientTransform="translate(113.017 366.633) rotate(90) scale(125)">
<stop offset="0.7" stop-color="white" stop-opacity="0"/>
<stop offset="1" stop-color="#EFD8B1"/>
</radialGradient>
<radialGradient id="paint13_radial_186_5294" cx="0" cy="0" r="1" gradientUnits="userSpaceOnUse" gradientTransform="translate(113.017 366.633) rotate(90) scale(200)">
<stop offset="0.875" stop-color="white" stop-opacity="0"/>
<stop offset="1" stop-color="#EFD8B1"/>
</radialGradient>
<radialGradient id="paint14_radial_186_5294" cx="0" cy="0" r="1" gradientUnits="userSpaceOnUse" gradientTransform="translate(113.017 366.633) rotate(90) scale(255)">
<stop offset="0.9" stop-color="white" stop-opacity="0"/>
<stop offset="0.9001" stop-color="#EFD8B1"/>
</radialGradient>
<radialGradient id="paint15_radial_186_5294" cx="0" cy="0" r="1" gradientUnits="userSpaceOnUse" gradientTransform="translate(-87.4683 733.427) rotate(90) scale(124.5)">
<stop offset="0.88" stop-color="#D9D9D9" stop-opacity="0"/>
<stop offset="1" stop-color="#EFD8B1"/>
</radialGradient>
<radialGradient id="paint16_radial_186_5294" cx="0" cy="0" r="1" gradientUnits="userSpaceOnUse" gradientTransform="translate(450.801 693.668) rotate(90) scale(99.2587)">
<stop offset="0.86" stop-color="white" stop-opacity="0"/>
<stop offset="1" stop-color="#EFD8B1"/>
</radialGradient>
<radialGradient id="paint17_radial_186_5294" cx="0" cy="0" r="1" gradientUnits="userSpaceOnUse" gradientTransform="translate(450.801 693.668) rotate(90) scale(159.454)">
<stop offset="0.88" stop-color="#D9D9D9" stop-opacity="0"/>
<stop offset="1" stop-color="#EFD8B1"/>
</radialGradient>
<clipPath id="clip0_186_5294">
<rect x="5" y="5" width="1200" height="581" fill="white"/>
</clipPath>
<clipPath id="clip1_186_5294">
<rect width="32" height="32" fill="white" transform="translate(722 409)"/>
</clipPath>
<clipPath id="clip2_186_5294">
<rect width="33" height="33" fill="white" transform="translate(772.5 552)"/>
</clipPath>
<clipPath id="clip3_186_5294">
<rect width="33" height="33" fill="white" transform="translate(894 413.5)"/>
</clipPath>
<clipPath id="clip4_186_5294">
<rect width="32" height="32" fill="white" transform="translate(927 552.5)"/>
</clipPath>
<clipPath id="clip5_186_5294">
<rect width="33" height="33" fill="white" transform="translate(1087 446.5)"/>
</clipPath>
<clipPath id="clip6_186_5294">
<rect width="32" height="32" fill="white" transform="translate(301.769 -34.0263) rotate(17.8309)"/>
</clipPath>
<clipPath id="clip7_186_5294">
<rect width="32" height="32" fill="white" transform="translate(133.04 39.8565) rotate(17.8309)"/>
</clipPath>
<clipPath id="clip8_186_5294">
<rect width="33" height="33" fill="white" transform="translate(426.57 44.9843) rotate(17.8309)"/>
</clipPath>
<clipPath id="clip9_186_5294">
<rect width="32" height="32" fill="white" transform="translate(289.975 107.143) rotate(17.8309)"/>
</clipPath>
<clipPath id="clip10_186_5294">
<rect width="350" height="350" fill="white" transform="translate(384 99)"/>
</clipPath>
<clipPath id="clip11_186_5294">
<rect width="350" height="350" fill="white" transform="translate(430 142)"/>
</clipPath>
</defs>
</svg>
