<svg width="802" height="519" viewBox="0 0 802 519" fill="none" xmlns="http://www.w3.org/2000/svg">
<g filter="url(#filter0_d_135_6978)">
<path d="M342.546 1.84487C404.773 13.2397 447.725 42.0311 516.464 35.1742C537.712 33.0547 579.095 12.9168 706.734 20.2723C866.283 29.4666 792.815 471.903 668.085 500.061C535.957 529.889 517.937 492.427 484.122 462.748C446.104 429.38 418.294 396.073 367.816 407.543C317.771 418.915 300.344 495.272 240.969 462.748C188.447 433.977 234.032 399.416 181.014 370.645C149.226 353.395 126.375 407.007 49.5732 392.067C-11.8681 380.114 3.49225 302.422 18.8526 265.071C31.7354 232.699 49.7714 158.187 18.8526 119.111C-19.796 70.2663 26.4202 35.7489 50.6993 30.0024C80.932 22.8469 131.96 78.2725 154.618 63.3706C190.185 39.9779 276.645 -10.2226 342.546 1.84487Z" fill="white"/>
</g>
<defs>
<filter id="filter0_d_135_6978" x="0" y="0" width="802" height="519" filterUnits="userSpaceOnUse" color-interpolation-filters="sRGB">
<feFlood flood-opacity="0" result="BackgroundImageFix"/>
<feColorMatrix in="SourceAlpha" type="matrix" values="0 0 0 0 0 0 0 0 0 0 0 0 0 0 0 0 0 0 127 0" result="hardAlpha"/>
<feOffset dy="4"/>
<feGaussianBlur stdDeviation="2"/>
<feComposite in2="hardAlpha" operator="out"/>
<feColorMatrix type="matrix" values="0 0 0 0 0.627451 0 0 0 0 0.435294 0 0 0 0 0.298039 0 0 0 1 0"/>
<feBlend mode="normal" in2="BackgroundImageFix" result="effect1_dropShadow_135_6978"/>
<feBlend mode="normal" in="SourceGraphic" in2="effect1_dropShadow_135_6978" result="shape"/>
</filter>
</defs>
</svg>
