<svg width="123" height="164" viewBox="0 0 123 164" fill="none" xmlns="http://www.w3.org/2000/svg">
<path d="M122.928 129.833V164H109.262V129.833C109.262 119.515 101.601 110.96 91.6794 109.538L61.5923 143.855L31.3411 109.538C21.4054 110.953 13.7453 119.515 13.7453 129.833V164H0.0717773V129.833C0.0717773 110.994 15.3989 95.6667 34.2384 95.6667H37.3271L61.5581 123.157L85.6593 95.6667H88.7548C107.594 95.6667 122.928 110.994 122.928 129.833ZM20.4283 41C20.4283 18.3885 38.8168 0 61.4283 0C84.0398 0 102.428 18.3885 102.428 41C102.428 63.6115 84.0398 82 61.4283 82C38.8168 82 20.4283 63.6115 20.4283 41ZM88.7616 41C88.7616 33.538 85.7413 26.7798 80.8828 21.8462C73.2089 37.4808 57.3556 47.8333 39.4659 47.8333C37.9558 47.8333 36.4593 47.6283 34.9559 47.4848C37.8874 59.4227 48.6021 68.3333 61.4283 68.3333C76.5026 68.3333 88.7616 56.0743 88.7616 41ZM35.1678 33.8318C36.5891 34.0232 38.0241 34.1667 39.4591 34.1667C52.4219 34.1667 63.9224 26.4792 69.1431 14.9103C66.6763 14.1792 64.1206 13.6667 61.4214 13.6667C48.8481 13.6667 38.3384 22.2493 35.1678 33.8318Z" fill="#A06F4C"/>
</svg>
